<?xml version="1.0" encoding="UTF-8" standalone="no"?><svg xmlns="http://www.w3.org/2000/svg" xmlns:xlink="http://www.w3.org/1999/xlink" contentScriptType="application/ecmascript" contentStyleType="text/css" height="650px" preserveAspectRatio="none" style="width:932px;height:650px;" version="1.1" viewBox="0 0 932 650" width="932px" zoomAndPan="magnify"><defs><filter height="300%" id="f1gruhng8ayv1l" width="300%" x="-1" y="-1"><feGaussianBlur result="blurOut" stdDeviation="2.0"/><feColorMatrix in="blurOut" result="blurOut2" type="matrix" values="0 0 0 0 0 0 0 0 0 0 0 0 0 0 0 0 0 0 .4 0"/><feOffset dx="4.0" dy="4.0" in="blurOut2" result="blurOut3"/><feBlend in="SourceGraphic" in2="blurOut3" mode="normal"/></filter></defs><g><polygon fill="#DDDDDD" filter="url(#f1gruhng8ayv1l)" points="243.487,8,331.487,8,338.487,31.6094,345.487,31.6094,345.487,63.2188,243.487,63.2188,243.487,8" style="stroke: #000000; stroke-width: 1.5;"/><line style="stroke: #000000; stroke-width: 1.5;" x1="243.487" x2="338.487" y1="31.6094" y2="31.6094"/><text fill="#000000" font-family="sans-serif" font-size="14" font-weight="bold" lengthAdjust="spacingAndGlyphs" textLength="82" x="247.487" y="24.5332">mastermind</text><polygon fill="#DDDDDD" filter="url(#f1gruhng8ayv1l)" points="222.987,353,391.987,353,398.987,376.6094,405.987,376.6094,405.987,408.2188,222.987,408.2188,222.987,353" style="stroke: #000000; stroke-width: 1.5;"/><line style="stroke: #000000; stroke-width: 1.5;" x1="222.987" x2="398.987" y1="376.6094" y2="376.6094"/><text fill="#000000" font-family="sans-serif" font-size="14" font-weight="bold" lengthAdjust="spacingAndGlyphs" textLength="163" x="226.987" y="369.5332">mastermind.controllers</text><polygon fill="#FFFFFF" filter="url(#f1gruhng8ayv1l)" points="276.987,583,337.987,583,344.987,606.6094,351.987,606.6094,351.987,638.2188,276.987,638.2188,276.987,583" style="stroke: #000000; stroke-width: 1.5;"/><line style="stroke: #000000; stroke-width: 1.5;" x1="276.987" x2="344.987" y1="606.6094" y2="606.6094"/><text fill="#000000" font-family="sans-serif" font-size="14" font-weight="bold" lengthAdjust="spacingAndGlyphs" textLength="55" x="280.987" y="599.5332">java.util</text><polygon fill="#DDDDDD" filter="url(#f1gruhng8ayv1l)" points="301.987,468,444.987,468,451.987,491.6094,458.987,491.6094,458.987,523.2188,301.987,523.2188,301.987,468" style="stroke: #000000; stroke-width: 1.5;"/><line style="stroke: #000000; stroke-width: 1.5;" x1="301.987" x2="451.987" y1="491.6094" y2="491.6094"/><text fill="#000000" font-family="sans-serif" font-size="14" font-weight="bold" lengthAdjust="spacingAndGlyphs" textLength="137" x="305.987" y="484.5332">mastermind.models</text><polygon fill="#DDDDDD" filter="url(#f1gruhng8ayv1l)" points="42.4873,238,164.4873,238,171.4873,261.6094,178.4873,261.6094,178.4873,293.2188,42.4873,293.2188,42.4873,238" style="stroke: #000000; stroke-width: 1.5;"/><line style="stroke: #000000; stroke-width: 1.5;" x1="42.4873" x2="171.4873" y1="261.6094" y2="261.6094"/><text fill="#000000" font-family="sans-serif" font-size="14" font-weight="bold" lengthAdjust="spacingAndGlyphs" textLength="116" x="46.4873" y="254.5332">mastermind.utils</text><polygon fill="#FFFFFF" filter="url(#f1gruhng8ayv1l)" points="77.4873,353,129.4873,353,136.4873,376.6094,143.4873,376.6094,143.4873,408.2188,77.4873,408.2188,77.4873,353" style="stroke: #000000; stroke-width: 1.5;"/><line style="stroke: #000000; stroke-width: 1.5;" x1="77.4873" x2="136.4873" y1="376.6094" y2="376.6094"/><text fill="#000000" font-family="sans-serif" font-size="14" font-weight="bold" lengthAdjust="spacingAndGlyphs" textLength="46" x="81.4873" y="369.5332">java.io</text><polygon fill="#DDDDDD" filter="url(#f1gruhng8ayv1l)" points="284.987,238,417.987,238,424.987,261.6094,431.987,261.6094,431.987,293.2188,284.987,293.2188,284.987,238" style="stroke: #000000; stroke-width: 1.5;"/><line style="stroke: #000000; stroke-width: 1.5;" x1="284.987" x2="424.987" y1="261.6094" y2="261.6094"/><text fill="#000000" font-family="sans-serif" font-size="14" font-weight="bold" lengthAdjust="spacingAndGlyphs" textLength="127" x="288.987" y="254.5332">mastermind.views</text><polygon fill="#DDDDDD" filter="url(#f1gruhng8ayv1l)" points="112.987,123,305.987,123,312.987,146.6094,319.987,146.6094,319.987,178.2188,112.987,178.2188,112.987,123" style="stroke: #000000; stroke-width: 1.5;"/><line style="stroke: #000000; stroke-width: 1.5;" x1="112.987" x2="312.987" y1="146.6094" y2="146.6094"/><text fill="#000000" font-family="sans-serif" font-size="14" font-weight="bold" lengthAdjust="spacingAndGlyphs" textLength="187" x="116.987" y="139.5332">mastermind.views.console</text><polygon fill="#DDDDDD" filter="url(#f1gruhng8ayv1l)" points="456.487,123,654.487,123,661.487,146.6094,668.487,146.6094,668.487,178.2188,456.487,178.2188,456.487,123" style="stroke: #000000; stroke-width: 1.5;"/><line style="stroke: #000000; stroke-width: 1.5;" x1="456.487" x2="661.487" y1="146.6094" y2="146.6094"/><text fill="#000000" font-family="sans-serif" font-size="14" font-weight="bold" lengthAdjust="spacingAndGlyphs" textLength="192" x="460.487" y="139.5332">mastermind.views.graphics</text><polygon fill="#FFFFFF" filter="url(#f1gruhng8ayv1l)" points="538.987,238,601.987,238,608.987,261.6094,615.987,261.6094,615.987,293.2188,538.987,293.2188,538.987,238" style="stroke: #000000; stroke-width: 1.5;"/><line style="stroke: #000000; stroke-width: 1.5;" x1="538.987" x2="608.987" y1="261.6094" y2="261.6094"/><text fill="#000000" font-family="sans-serif" font-size="14" font-weight="bold" lengthAdjust="spacingAndGlyphs" textLength="57" x="542.987" y="254.5332">java.awt</text><polygon fill="#FFFFFF" filter="url(#f1gruhng8ayv1l)" points="651.487,238,759.487,238,766.487,261.6094,773.487,261.6094,773.487,293.2188,651.487,293.2188,651.487,238" style="stroke: #000000; stroke-width: 1.5;"/><line style="stroke: #000000; stroke-width: 1.5;" x1="651.487" x2="766.487" y1="261.6094" y2="261.6094"/><text fill="#000000" font-family="sans-serif" font-size="14" font-weight="bold" lengthAdjust="spacingAndGlyphs" textLength="102" x="655.487" y="254.5332">java.awt.event</text><polygon fill="#FFFFFF" filter="url(#f1gruhng8ayv1l)" points="808.487,238,896.487,238,903.487,261.6094,910.487,261.6094,910.487,293.2188,808.487,293.2188,808.487,238" style="stroke: #000000; stroke-width: 1.5;"/><line style="stroke: #000000; stroke-width: 1.5;" x1="808.487" x2="903.487" y1="261.6094" y2="261.6094"/><text fill="#000000" font-family="sans-serif" font-size="14" font-weight="bold" lengthAdjust="spacingAndGlyphs" textLength="82" x="812.487" y="254.5332">javax.swing</text><!--link mastermind to mastermind.controllers--><path d="M243.216,49.421 C199.992,62.353 138.482,85.755 95.4873,123 C33.5989,176.612 -24.4415,227.347 24.4873,293 C47.9037,324.42 142.496,348.593 217.365,363.297 " fill="none" id="mastermind-mastermind.controllers" style="stroke: #A80036; stroke-width: 1.0; stroke-dasharray: 7.0,7.0;"/><polygon fill="#A80036" points="222.72,364.339,214.6503,358.6927,217.8122,363.3834,213.1214,366.5452,222.72,364.339" style="stroke: #A80036; stroke-width: 1.0;"/><!--link mastermind to mastermind.views--><path d="M310.523,63.238 C319.799,79.881 330.904,102.04 337.487,123 C348.977,159.581 354.246,203.505 356.619,232.609 " fill="none" id="mastermind-mastermind.views" style="stroke: #A80036; stroke-width: 1.0; stroke-dasharray: 7.0,7.0;"/><polygon fill="#A80036" points="357.029,237.866,360.3176,228.5824,356.6405,232.8811,352.3418,229.204,357.029,237.866" style="stroke: #A80036; stroke-width: 1.0;"/><!--link mastermind to mastermind.views.console--><path d="M276.002,63.279 C264.54,79.885 249.772,101.279 237.815,118.602 " fill="none" id="mastermind-mastermind.views.console" style="stroke: #A80036; stroke-width: 1.0; stroke-dasharray: 7.0,7.0;"/><polygon fill="#A80036" points="234.84,122.913,243.2446,117.7786,237.6804,118.7981,236.6608,113.2339,234.84,122.913" style="stroke: #A80036; stroke-width: 1.0;"/><!--link mastermind to mastermind.views.graphics--><path d="M345.527,58.02 C387.813,75.85 448.272,101.342 494.632,120.889 " fill="none" id="mastermind-mastermind.views.graphics" style="stroke: #A80036; stroke-width: 1.0; stroke-dasharray: 7.0,7.0;"/><polygon fill="#A80036" points="499.357,122.882,492.6185,115.6992,494.7499,120.9392,489.5099,123.0706,499.357,122.882" style="stroke: #A80036; stroke-width: 1.0;"/><!--link mastermind.controllers to java.util--><path d="M302.644,408.161 C295.84,424.959 287.973,447.31 284.487,468 C280.426,492.105 280.426,498.895 284.487,523 C287.646,541.75 294.404,561.8645 300.707,577.9742 " fill="none" id="mastermind.controllers-java.util" style="stroke: #A80036; stroke-width: 1.0; stroke-dasharray: 7.0,7.0;"/><polygon fill="#A80036" points="302.644,582.8393,303.0311,572.9981,300.7944,578.194,295.5985,575.9574,302.644,582.8393" style="stroke: #A80036; stroke-width: 1.0;"/><!--link mastermind.controllers to mastermind.models--><path d="M330.128,408.279 C339.745,424.745 352.112,445.917 362.183,463.161 " fill="none" id="mastermind.controllers-mastermind.models" style="stroke: #A80036; stroke-width: 1.0; stroke-dasharray: 7.0,7.0;"/><polygon fill="#A80036" points="364.959,467.913,363.874,458.1241,362.4373,463.5955,356.966,462.1587,364.959,467.913" style="stroke: #A80036; stroke-width: 1.0;"/><!--link mastermind.models to java.util--><path d="M364.846,523.279 C355.229,539.7445 342.863,560.9172 332.792,578.1606 " fill="none" id="mastermind.models-java.util" style="stroke: #A80036; stroke-width: 1.0; stroke-dasharray: 7.0,7.0;"/><polygon fill="#A80036" points="330.016,582.9128,338.0093,577.1589,332.5379,578.5954,331.1014,573.1239,330.016,582.9128" style="stroke: #A80036; stroke-width: 1.0;"/><!--link mastermind.utils to java.io--><path d="M110.487,293.279 C110.487,309.604 110.487,330.556 110.487,347.718 " fill="none" id="mastermind.utils-java.io" style="stroke: #A80036; stroke-width: 1.0; stroke-dasharray: 7.0,7.0;"/><polygon fill="#A80036" points="110.487,352.913,114.487,343.913,110.487,347.913,106.487,343.913,110.487,352.913" style="stroke: #A80036; stroke-width: 1.0;"/><!--link mastermind.views to mastermind.controllers--><path d="M348.06,293.279 C341.649,309.745 333.405,330.917 326.69,348.161 " fill="none" id="mastermind.views-mastermind.controllers" style="stroke: #A80036; stroke-width: 1.0; stroke-dasharray: 7.0,7.0;"/><polygon fill="#A80036" points="324.84,352.913,331.8327,345.9774,326.654,348.2537,324.3778,343.075,324.84,352.913" style="stroke: #A80036; stroke-width: 1.0;"/><!--link mastermind.views.console to mastermind.controllers--><path d="M224.72,178.051 C233.954,206.846 249.953,253.929 267.487,293 C275.93,311.814 286.855,332.108 296.047,348.308 " fill="none" id="mastermind.views.console-mastermind.controllers" style="stroke: #A80036; stroke-width: 1.0; stroke-dasharray: 7.0,7.0;"/><polygon fill="#A80036" points="298.59,352.764,297.6015,342.9649,296.111,348.4218,290.6541,346.9313,298.59,352.764" style="stroke: #A80036; stroke-width: 1.0;"/><!--link mastermind.views.console to mastermind.views--><path d="M250.139,178.279 C271.449,195.237 299.033,217.188 321.036,234.697 " fill="none" id="mastermind.views.console-mastermind.views" style="stroke: #A80036; stroke-width: 1.0; stroke-dasharray: 7.0,7.0;"/><polygon fill="#A80036" points="325.077,237.913,320.5242,229.1796,321.1642,234.8002,315.5436,235.4402,325.077,237.913" style="stroke: #A80036; stroke-width: 1.0;"/><!--link mastermind.views.console to mastermind.utils--><path d="M191.367,178.279 C175.658,195.026 155.38,216.642 139.059,234.041 " fill="none" id="mastermind.views.console-mastermind.utils" style="stroke: #A80036; stroke-width: 1.0; stroke-dasharray: 7.0,7.0;"/><polygon fill="#A80036" points="135.428,237.913,144.5021,234.084,138.8481,234.2657,138.6664,228.6118,135.428,237.913" style="stroke: #A80036; stroke-width: 1.0;"/><!--link mastermind.views.graphics to java.awt--><path d="M566.042,178.279 C568.209,194.604 570.99,215.556 573.268,232.718 " fill="none" id="mastermind.views.graphics-java.awt" style="stroke: #A80036; stroke-width: 1.0; stroke-dasharray: 7.0,7.0;"/><polygon fill="#A80036" points="573.958,237.913,576.7379,228.4646,573.2995,232.9565,568.8076,229.5182,573.958,237.913" style="stroke: #A80036; stroke-width: 1.0;"/><!--link mastermind.views.graphics to mastermind.controllers--><path d="M545.153,178.173 C524.695,208.348 488.492,257.856 449.487,293 C425.149,314.929 394.656,334.977 368.812,350.239 " fill="none" id="mastermind.views.graphics-mastermind.controllers" style="stroke: #A80036; stroke-width: 1.0; stroke-dasharray: 7.0,7.0;"/><polygon fill="#A80036" points="364.375,352.839,374.1623,351.7391,368.6887,350.3108,370.1171,344.8372,364.375,352.839" style="stroke: #A80036; stroke-width: 1.0;"/><!--link mastermind.views.graphics to java.awt.event--><path d="M598.035,178.279 C620.545,195.237 649.684,217.188 672.926,234.697 " fill="none" id="mastermind.views.graphics-java.awt.event" style="stroke: #A80036; stroke-width: 1.0; stroke-dasharray: 7.0,7.0;"/><polygon fill="#A80036" points="677.195,237.913,672.4127,229.3031,673.2012,234.9048,667.5995,235.6933,677.195,237.913" style="stroke: #A80036; stroke-width: 1.0;"/><!--link mastermind.views.graphics to mastermind.views--><path d="M514.401,178.136 C483.413,195.301 443.109,217.626 411.243,235.278 " fill="none" id="mastermind.views.graphics-mastermind.views" style="stroke: #A80036; stroke-width: 1.0; stroke-dasharray: 7.0,7.0;"/><polygon fill="#A80036" points="406.604,237.847,416.4151,236.9854,410.9779,235.4244,412.5389,229.9872,406.604,237.847" style="stroke: #A80036; stroke-width: 1.0;"/><!--link mastermind.views.graphics to javax.swing--><path d="M633.225,178.002 C678.518,195.025 738.517,217.675 791.487,238 C795.398,239.501 799.434,241.056 803.495,242.626 " fill="none" id="mastermind.views.graphics-javax.swing" style="stroke: #A80036; stroke-width: 1.0; stroke-dasharray: 7.0,7.0;"/><polygon fill="#A80036" points="808.27,244.474,801.3218,237.4938,803.6074,242.6684,798.4328,244.954,808.27,244.474" style="stroke: #A80036; stroke-width: 1.0;"/><!--
@startuml

package mastermind #DDDDDD { }
mastermind .down.> mastermind.controllers
mastermind .down.> mastermind.views
mastermind .down.> mastermind.views.console
mastermind .down.> mastermind.views.graphics

package mastermind.controllers #DDDDDD { }
package java.util{ }
mastermind.controllers .down.> java.util
mastermind.controllers .down.> mastermind.models

package mastermind.models #DDDDDD { }
package java.util{ }
mastermind.models .down.> java.util

package mastermind.utils #DDDDDD { }
package java.io{ }
mastermind.utils .down.> java.io

package mastermind.views #DDDDDD { }
mastermind.views .down.> mastermind.controllers

package mastermind.views.console #DDDDDD { }
mastermind.views.console .down.> mastermind.controllers
mastermind.views.console .down.> mastermind.views
mastermind.views.console .down.> mastermind.utils

package mastermind.views.graphics #DDDDDD { }
package java.awt{ }
mastermind.views.graphics .down.> java.awt
mastermind.views.graphics .down.> mastermind.controllers
package java.awt.event{ }
mastermind.views.graphics .down.> java.awt.event
mastermind.views.graphics .down.> mastermind.views
package javax.swing{ }
mastermind.views.graphics .down.> javax.swing

@enduml

PlantUML version 1.2019.05(Sat Apr 20 18:45:36 CEST 2019)
(GPL source distribution)
Java Runtime: OpenJDK Runtime Environment
JVM: OpenJDK 64-Bit Server VM
Java Version: 1.8.0_222-b10
Operating System: Windows 10
OS Version: 10.0
Default Encoding: windows-1252
Language: es
Country: ES
--></g></svg>