<?xml version="1.0" encoding="UTF-8" standalone="no"?><svg xmlns="http://www.w3.org/2000/svg" xmlns:xlink="http://www.w3.org/1999/xlink" contentScriptType="application/ecmascript" contentStyleType="text/css" height="158px" preserveAspectRatio="none" style="width:1963px;height:158px;" version="1.1" viewBox="0 0 1963 158" width="1963px" zoomAndPan="magnify"><defs><filter height="300%" id="f162jx3szel0es" width="300%" x="-1" y="-1"><feGaussianBlur result="blurOut" stdDeviation="2.0"/><feColorMatrix in="blurOut" result="blurOut2" type="matrix" values="0 0 0 0 0 0 0 0 0 0 0 0 0 0 0 0 0 0 .4 0"/><feOffset dx="4.0" dy="4.0" in="blurOut2" result="blurOut3"/><feBlend in="SourceGraphic" in2="blurOut3" mode="normal"/></filter></defs><g><!--entity mastermind--><polygon fill="#FFFFFF" filter="url(#f162jx3szel0es)" points="6,106,85,106,92,129.6094,109,129.6094,109,146.6094,6,146.6094,6,106" style="stroke: #000000; stroke-width: 1.5;"/><line style="stroke: #000000; stroke-width: 1.5;" x1="6" x2="92" y1="129.6094" y2="129.6094"/><text fill="#000000" font-family="sans-serif" font-size="14" lengthAdjust="spacingAndGlyphs" textLength="73" x="10" y="123.5332">mastermind</text><!--entity mastermind.controllers--><polygon fill="#FFFFFF" filter="url(#f162jx3szel0es)" points="144,106,293,106,300,129.6094,317,129.6094,317,146.6094,144,146.6094,144,106" style="stroke: #000000; stroke-width: 1.5;"/><line style="stroke: #000000; stroke-width: 1.5;" x1="144" x2="300" y1="129.6094" y2="129.6094"/><text fill="#000000" font-family="sans-serif" font-size="14" lengthAdjust="spacingAndGlyphs" textLength="143" x="148" y="123.5332">mastermind.controllers</text><!--entity mastermind.models--><polygon fill="#FFFFFF" filter="url(#f162jx3szel0es)" points="352.5,106,480.5,106,487.5,129.6094,504.5,129.6094,504.5,146.6094,352.5,146.6094,352.5,106" style="stroke: #000000; stroke-width: 1.5;"/><line style="stroke: #000000; stroke-width: 1.5;" x1="352.5" x2="487.5" y1="129.6094" y2="129.6094"/><text fill="#000000" font-family="sans-serif" font-size="14" lengthAdjust="spacingAndGlyphs" textLength="122" x="356.5" y="123.5332">mastermind.models</text><!--entity mastermind.views--><polygon fill="#FFFFFF" filter="url(#f162jx3szel0es)" points="540,106,657,106,664,129.6094,681,129.6094,681,146.6094,540,146.6094,540,106" style="stroke: #000000; stroke-width: 1.5;"/><line style="stroke: #000000; stroke-width: 1.5;" x1="540" x2="664" y1="129.6094" y2="129.6094"/><text fill="#000000" font-family="sans-serif" font-size="14" lengthAdjust="spacingAndGlyphs" textLength="111" x="544" y="123.5332">mastermind.views</text><!--entity mastermind.views.console--><polygon fill="#FFFFFF" filter="url(#f162jx3szel0es)" points="716.5,106,886.5,106,893.5,129.6094,910.5,129.6094,910.5,146.6094,716.5,146.6094,716.5,106" style="stroke: #000000; stroke-width: 1.5;"/><line style="stroke: #000000; stroke-width: 1.5;" x1="716.5" x2="893.5" y1="129.6094" y2="129.6094"/><text fill="#000000" font-family="sans-serif" font-size="14" lengthAdjust="spacingAndGlyphs" textLength="164" x="720.5" y="123.5332">mastermind.views.console</text><!--entity mastermind.views.graphics--><polygon fill="#FFFFFF" filter="url(#f162jx3szel0es)" points="946,106,1121,106,1128,129.6094,1145,129.6094,1145,146.6094,946,146.6094,946,106" style="stroke: #000000; stroke-width: 1.5;"/><line style="stroke: #000000; stroke-width: 1.5;" x1="946" x2="1128" y1="129.6094" y2="129.6094"/><text fill="#000000" font-family="sans-serif" font-size="14" lengthAdjust="spacingAndGlyphs" textLength="169" x="950" y="123.5332">mastermind.views.graphics</text><!--entity mastermind.utils--><polygon fill="#FFFFFF" filter="url(#f162jx3szel0es)" points="1180.5,106,1288.5,106,1295.5,129.6094,1312.5,129.6094,1312.5,146.6094,1180.5,146.6094,1180.5,106" style="stroke: #000000; stroke-width: 1.5;"/><line style="stroke: #000000; stroke-width: 1.5;" x1="1180.5" x2="1295.5" y1="129.6094" y2="129.6094"/><text fill="#000000" font-family="sans-serif" font-size="14" lengthAdjust="spacingAndGlyphs" textLength="102" x="1184.5" y="123.5332">mastermind.utils</text><!--entity java.io--><polygon fill="#FFFFFF" filter="url(#f162jx3szel0es)" points="1348,106,1395,106,1402,129.6094,1419,129.6094,1419,146.6094,1348,146.6094,1348,106" style="stroke: #000000; stroke-width: 1.5;"/><line style="stroke: #000000; stroke-width: 1.5;" x1="1348" x2="1402" y1="129.6094" y2="129.6094"/><text fill="#000000" font-family="sans-serif" font-size="14" lengthAdjust="spacingAndGlyphs" textLength="41" x="1352" y="123.5332">java.io</text><!--entity java.util--><polygon fill="#FFFFFF" filter="url(#f162jx3szel0es)" points="1454.5,106,1508.5,106,1515.5,129.6094,1532.5,129.6094,1532.5,146.6094,1454.5,146.6094,1454.5,106" style="stroke: #000000; stroke-width: 1.5;"/><line style="stroke: #000000; stroke-width: 1.5;" x1="1454.5" x2="1515.5" y1="129.6094" y2="129.6094"/><text fill="#000000" font-family="sans-serif" font-size="14" lengthAdjust="spacingAndGlyphs" textLength="48" x="1458.5" y="123.5332">java.util</text><!--entity java.awt--><polygon fill="#FFFFFF" filter="url(#f162jx3szel0es)" points="1568,106,1625,106,1632,129.6094,1649,129.6094,1649,146.6094,1568,146.6094,1568,106" style="stroke: #000000; stroke-width: 1.5;"/><line style="stroke: #000000; stroke-width: 1.5;" x1="1568" x2="1632" y1="129.6094" y2="129.6094"/><text fill="#000000" font-family="sans-serif" font-size="14" lengthAdjust="spacingAndGlyphs" textLength="51" x="1572" y="123.5332">java.awt</text><!--entity java.awt.event--><polygon fill="#FFFFFF" filter="url(#f162jx3szel0es)" points="1684.5,106,1780.5,106,1787.5,129.6094,1804.5,129.6094,1804.5,146.6094,1684.5,146.6094,1684.5,106" style="stroke: #000000; stroke-width: 1.5;"/><line style="stroke: #000000; stroke-width: 1.5;" x1="1684.5" x2="1787.5" y1="129.6094" y2="129.6094"/><text fill="#000000" font-family="sans-serif" font-size="14" lengthAdjust="spacingAndGlyphs" textLength="90" x="1688.5" y="123.5332">java.awt.event</text><!--entity javax.swing--><polygon fill="#FFFFFF" filter="url(#f162jx3szel0es)" points="1840,106,1917,106,1924,129.6094,1941,129.6094,1941,146.6094,1840,146.6094,1840,106" style="stroke: #000000; stroke-width: 1.5;"/><line style="stroke: #000000; stroke-width: 1.5;" x1="1840" x2="1924" y1="129.6094" y2="129.6094"/><text fill="#000000" font-family="sans-serif" font-size="14" lengthAdjust="spacingAndGlyphs" textLength="71" x="1844" y="123.5332">javax.swing</text><!--entity jar--><rect fill="#FEFECE" filter="url(#f162jx3szel0es)" height="37.6094" style="stroke: #A80036; stroke-width: 1.5;" width="113" x="1089" y="8"/><rect fill="#FEFECE" height="5" style="stroke: #A80036; stroke-width: 1.5;" width="10" x="1084" y="13"/><rect fill="#FEFECE" height="5" style="stroke: #A80036; stroke-width: 1.5;" width="10" x="1084" y="35.6094"/><text fill="#000000" font-family="sans-serif" font-size="14" lengthAdjust="spacingAndGlyphs" textLength="93" x="1099" y="32.5332">mastermind.jar</text><!--link jar to mastermind--><path d="M1075.58,28.577 C909.595,30.981 479.281,43.294 126.5,106 C125.002,106.2662 123.491,106.5514 121.969,106.8532 " fill="none" id="jar-mastermind" style="stroke: #A80036; stroke-width: 1.0;"/><polygon fill="#A80036" points="109.236,109.6856,118.8898,111.6359,114.1167,108.5999,117.1527,103.8268,109.236,109.6856" style="stroke: #A80036; stroke-width: 1.0;"/><line style="stroke: #A80036; stroke-width: 1.0;" x1="114.1167" x2="121.926" y1="108.5999" y2="106.8629"/><polygon fill="#A80036" points="1088.95,28.397,1082.8978,24.4765,1076.951,28.5552,1083.0033,32.4758,1088.95,28.397" style="stroke: #A80036; stroke-width: 1.0;"/><!--link jar to mastermind.controllers--><path d="M1075.74,32.597 C935.074,42.331 607.547,67.3503 334.5,106 C333.09,106.1995 331.671,106.4049 330.243,106.6154 " fill="none" id="jar-mastermind.controllers" style="stroke: #A80036; stroke-width: 1.0;"/><polygon fill="#A80036" points="317.227,108.6382,326.7347,111.2081,322.1676,107.8701,325.5057,103.3031,317.227,108.6382" style="stroke: #A80036; stroke-width: 1.0;"/><line style="stroke: #A80036; stroke-width: 1.0;" x1="322.1676" x2="330.073" y1="107.8701" y2="106.6418"/><polygon fill="#A80036" points="1088.76,31.702,1082.5014,28.1201,1076.7879,32.5196,1083.0465,36.1015,1088.76,31.702" style="stroke: #A80036; stroke-width: 1.0;"/><!--link jar to mastermind.models--><path d="M1075.44,34.924 C959.859,46.76 722.132,72.851 522.5,106 C520.858,106.2726 519.202,106.5536 517.534,106.8419 " fill="none" id="jar-mastermind.models" style="stroke: #A80036; stroke-width: 1.0;"/><polygon fill="#A80036" points="504.588,109.1781,514.1553,111.5163,509.5085,108.2902,512.7346,103.6434,504.588,109.1781" style="stroke: #A80036; stroke-width: 1.0;"/><line style="stroke: #A80036; stroke-width: 1.0;" x1="509.5085" x2="517.381" y1="108.2902" y2="106.8694"/><polygon fill="#A80036" points="1088.59,33.585,1082.2163,30.2121,1076.6515,34.7982,1083.0252,38.1711,1088.59,33.585" style="stroke: #A80036; stroke-width: 1.0;"/><!--link jar to mastermind.views--><path d="M1075.88,39.144 C987.804,53.4747 831.543,79.6658 698.5,106 C696.991,106.2986 695.469,106.6031 693.936,106.9124 " fill="none" id="jar-mastermind.views" style="stroke: #A80036; stroke-width: 1.0;"/><polygon fill="#A80036" points="681.047,109.5725,690.6697,111.6711,685.9438,108.562,689.0529,103.8362,681.047,109.5725" style="stroke: #A80036; stroke-width: 1.0;"/><line style="stroke: #A80036; stroke-width: 1.0;" x1="685.9438" x2="693.7785" y1="108.562" y2="106.9448"/><polygon fill="#A80036" points="1088.9,37.033,1082.3392,34.0403,1077.0534,38.9454,1083.6142,41.9381,1088.9,37.033" style="stroke: #A80036; stroke-width: 1.0;"/><!--link jar to mastermind.views.console--><path d="M1076.14,48.3681 C1022.61,64.0885 948.511,85.8508 892.661,102.2523 " fill="none" id="jar-mastermind.views.console" style="stroke: #A80036; stroke-width: 1.0;"/><polygon fill="#A80036" points="879.961,105.9822,889.7234,107.2843,884.7584,104.5734,887.4693,99.6084,879.961,105.9822" style="stroke: #A80036; stroke-width: 1.0;"/><line style="stroke: #A80036; stroke-width: 1.0;" x1="884.7584" x2="892.434" y1="104.5734" y2="102.3191"/><polygon fill="#A80036" points="1088.8,44.65,1081.9169,42.4998,1077.2848,48.0264,1084.1679,50.1766,1088.8,44.65" style="stroke: #A80036; stroke-width: 1.0;"/><!--link jar to mastermind.views.graphics--><path d="M1117.04,55.7454 C1103.95,68.5064 1088.43,83.6416 1075.2,96.547 " fill="none" id="jar-mastermind.views.graphics" style="stroke: #A80036; stroke-width: 1.0;"/><polygon fill="#A80036" points="1065.6,105.905,1074.8371,102.4881,1069.1807,102.4153,1069.2536,96.7589,1065.6,105.905" style="stroke: #A80036; stroke-width: 1.0;"/><line style="stroke: #A80036; stroke-width: 1.0;" x1="1069.1807" x2="1074.905" y1="102.4153" y2="96.8297"/><polygon fill="#A80036" points="1126.69,46.339,1119.6013,47.6621,1118.0962,54.7144,1125.1849,53.3913,1126.69,46.339" style="stroke: #A80036; stroke-width: 1.0;"/><!--link jar to mastermind.utils--><path d="M1174.24,55.7454 C1187.46,68.5064 1203.14,83.6416 1216.51,96.547 " fill="none" id="jar-mastermind.utils" style="stroke: #A80036; stroke-width: 1.0;"/><polygon fill="#A80036" points="1226.2,105.905,1222.5028,96.7764,1222.6026,102.4324,1216.9467,102.5322,1226.2,105.905" style="stroke: #A80036; stroke-width: 1.0;"/><line style="stroke: #A80036; stroke-width: 1.0;" x1="1222.6026" x2="1216.85" y1="102.4324" y2="96.876"/><polygon fill="#A80036" points="1164.5,46.339,1166.0388,53.384,1173.1337,54.6732,1171.5949,47.6282,1164.5,46.339" style="stroke: #A80036; stroke-width: 1.0;"/><!--link jar to java.io--><path d="M1201.97,51.1333 C1242.64,67.7934 1296.91,90.0287 1335.5,105.8344 " fill="none" id="jar-java.io" style="stroke: #A80036; stroke-width: 1.0;"/><polygon fill="#A80036" points="1347.68,110.8278,1340.8683,103.7144,1343.0533,108.9322,1337.8354,111.1172,1347.68,110.8278" style="stroke: #A80036; stroke-width: 1.0;"/><line style="stroke: #A80036; stroke-width: 1.0;" x1="1343.0533" x2="1335.655" y1="108.9322" y2="105.8996"/><polygon fill="#A80036" points="1189.71,46.111,1193.7457,52.087,1200.8142,50.6602,1196.7785,44.6842,1189.71,46.111" style="stroke: #A80036; stroke-width: 1.0;"/><!--link jar to java.util--><path d="M1215.09,45.239 C1274.27,60.24 1361.38,83.1109 1436.5,106 C1438.22,106.5249 1439.97,107.0674 1441.74,107.6228 " fill="none" id="jar-java.util" style="stroke: #A80036; stroke-width: 1.0;"/><polygon fill="#A80036" points="1454.37,111.7223,1447.0449,105.1387,1449.6143,110.1784,1444.5747,112.7478,1454.37,111.7223" style="stroke: #A80036; stroke-width: 1.0;"/><line style="stroke: #A80036; stroke-width: 1.0;" x1="1449.6143" x2="1442.005" y1="110.1784" y2="107.7089"/><polygon fill="#A80036" points="1202.15,41.974,1206.9869,47.3223,1213.7842,44.9145,1208.9472,39.5662,1202.15,41.974" style="stroke: #A80036; stroke-width: 1.0;"/><!--link jar to java.awt--><path d="M1215.07,38.485 C1296.26,51.3905 1434.23,75.4061 1550.5,106 C1552.09,106.4182 1553.7,106.857 1555.32,107.3125 " fill="none" id="jar-java.awt" style="stroke: #A80036; stroke-width: 1.0;"/><polygon fill="#A80036" points="1567.83,111.0632,1560.3623,104.6419,1563.0416,109.624,1558.0595,112.3033,1567.83,111.0632" style="stroke: #A80036; stroke-width: 1.0;"/><line style="stroke: #A80036; stroke-width: 1.0;" x1="1563.0416" x2="1555.38" y1="109.624" y2="107.3304"/><polygon fill="#A80036" points="1202.05,36.433,1207.3524,41.3202,1213.903,38.3054,1208.6007,33.4182,1202.05,36.433" style="stroke: #A80036; stroke-width: 1.0;"/><!--link jar to java.awt.event--><path d="M1215.03,36.244 C1315.27,48.6192 1505.98,73.9963 1666.5,106 C1668.12,106.3224 1669.75,106.6565 1671.4,107.0007 " fill="none" id="jar-java.awt.event" style="stroke: #A80036; stroke-width: 1.0;"/><polygon fill="#A80036" points="1684.16,109.8054,1676.2263,103.9696,1679.2762,108.7339,1674.5119,111.7838,1684.16,109.8054" style="stroke: #A80036; stroke-width: 1.0;"/><line style="stroke: #A80036; stroke-width: 1.0;" x1="1679.2762" x2="1671.465" y1="108.7339" y2="107.0157"/><polygon fill="#A80036" points="1202.09,34.657,1207.5573,39.3589,1214.0004,36.1206,1208.5331,31.4187,1202.09,34.657" style="stroke: #A80036; stroke-width: 1.0;"/><!--link jar to javax.swing--><path d="M1215.44,32.249 C1338.94,40.596 1603.31,62.2545 1822.5,106 C1824,106.3001 1825.52,106.6173 1827.05,106.9492 " fill="none" id="jar-javax.swing" style="stroke: #A80036; stroke-width: 1.0;"/><polygon fill="#A80036" points="1839.85,109.9895,1832.0225,104.0121,1834.9862,108.8304,1830.1679,111.7941,1839.85,109.9895" style="stroke: #A80036; stroke-width: 1.0;"/><line style="stroke: #A80036; stroke-width: 1.0;" x1="1834.9862" x2="1827.205" y1="108.8304" y2="106.9857"/><polygon fill="#A80036" points="1202.16,31.366,1207.8832,35.7529,1214.1339,32.1572,1208.4107,27.7703,1202.16,31.366" style="stroke: #A80036; stroke-width: 1.0;"/><!--
@startuml

package "  "  as mastermind {
}
package "  "  as mastermind.controllers {
}
package "  "  as mastermind.models {
}
package "  "  as mastermind.views {
}
package "  "  as mastermind.views.console {
}
package "  "  as mastermind.views.graphics {
}
package "  "  as mastermind.utils {
}
package "  "  as java.io {
}
package "  "  as java.util {
}
package "  "  as java.awt {
}
package "  "  as java.awt.event {
}
package "  "  as javax.swing {
}

[mastermind.jar] as jar

jar *- -> mastermind
jar *- -> mastermind.controllers
jar *- -> mastermind.models
jar *- -> mastermind.views
jar *- -> mastermind.views.console
jar *- -> mastermind.views.graphics
jar *- -> mastermind.utils
jar *- -> java.io
jar *- -> java.util
jar *- -> java.awt
jar *- -> java.awt.event
jar *- -> javax.swing
@enduml

PlantUML version 1.2019.05(Sat Apr 20 18:45:36 CEST 2019)
(GPL source distribution)
Java Runtime: OpenJDK Runtime Environment
JVM: OpenJDK 64-Bit Server VM
Java Version: 1.8.0_222-b10
Operating System: Windows 10
OS Version: 10.0
Default Encoding: windows-1252
Language: es
Country: ES
--></g></svg>