<?xml version="1.0" encoding="UTF-8" standalone="no"?><svg xmlns="http://www.w3.org/2000/svg" xmlns:xlink="http://www.w3.org/1999/xlink" contentScriptType="application/ecmascript" contentStyleType="text/css" height="656px" preserveAspectRatio="none" style="width:1371px;height:656px;" version="1.1" viewBox="0 0 1371 656" width="1371px" zoomAndPan="magnify"><defs><filter height="300%" id="f1o3pmokqngx3b" width="300%" x="-1" y="-1"><feGaussianBlur result="blurOut" stdDeviation="2.0"/><feColorMatrix in="blurOut" result="blurOut2" type="matrix" values="0 0 0 0 0 0 0 0 0 0 0 0 0 0 0 0 0 0 .4 0"/><feOffset dx="4.0" dy="4.0" in="blurOut2" result="blurOut3"/><feBlend in="SourceGraphic" in2="blurOut3" mode="normal"/></filter></defs><g><!--cluster mastermind.views.console--><polygon fill="#FFFFFF" filter="url(#f1o3pmokqngx3b)" points="530,148,723,148,730,171.6094,1163,171.6094,1163,644,530,644,530,148" style="stroke: #000000; stroke-width: 1.5;"/><line style="stroke: #000000; stroke-width: 1.5;" x1="530" x2="730" y1="171.6094" y2="171.6094"/><text fill="#000000" font-family="sans-serif" font-size="14" font-weight="bold" lengthAdjust="spacingAndGlyphs" textLength="187" x="534" y="164.5332">mastermind.views.console</text><!--cluster mastermind.views--><polygon fill="#FFFFFF" filter="url(#f1o3pmokqngx3b)" points="562,24,695,24,702,47.6094,705,47.6094,705,124,562,124,562,24" style="stroke: #000000; stroke-width: 1.5;"/><line style="stroke: #000000; stroke-width: 1.5;" x1="562" x2="702" y1="47.6094" y2="47.6094"/><text fill="#000000" font-family="sans-serif" font-size="14" font-weight="bold" lengthAdjust="spacingAndGlyphs" textLength="127" x="566" y="40.5332">mastermind.views</text><!--cluster mastermind.controllers--><polygon fill="#FFFFFF" filter="url(#f1o3pmokqngx3b)" points="22,516.5,191,516.5,198,540.1094,506,540.1094,506,616.5,22,616.5,22,516.5" style="stroke: #000000; stroke-width: 1.5;"/><line style="stroke: #000000; stroke-width: 1.5;" x1="22" x2="198" y1="540.1094" y2="540.1094"/><text fill="#000000" font-family="sans-serif" font-size="14" font-weight="bold" lengthAdjust="spacingAndGlyphs" textLength="163" x="26" y="533.0332">mastermind.controllers</text><!--cluster mastermind.utils--><polygon fill="#FFFFFF" filter="url(#f1o3pmokqngx3b)" points="1187,196.5,1309,196.5,1316,220.1094,1349,220.1094,1349,296.5,1187,296.5,1187,196.5" style="stroke: #000000; stroke-width: 1.5;"/><line style="stroke: #000000; stroke-width: 1.5;" x1="1187" x2="1316" y1="220.1094" y2="220.1094"/><text fill="#000000" font-family="sans-serif" font-size="14" font-weight="bold" lengthAdjust="spacingAndGlyphs" textLength="116" x="1191" y="213.0332">mastermind.utils</text><!--class mastermind.views.console.ConsoleView--><rect fill="#FEFECE" filter="url(#f1o3pmokqngx3b)" height="144.8516" id="mastermind.views.console.ConsoleView" style="stroke: #A80036; stroke-width: 1.5;" width="168" x="549" y="184"/><ellipse cx="592.35" cy="200" fill="#ADD1B2" rx="11" ry="11" style="stroke: #A80036; stroke-width: 1.0;"/><path d="M595.1156,195.875 Q595.2719,195.6563 595.4594,195.5469 Q595.6469,195.4375 595.8656,195.4375 Q596.2406,195.4375 596.475,195.6953 Q596.7094,195.9531 596.7094,196.5625 L596.7094,198.0156 Q596.7094,198.625 596.475,198.8906 Q596.2406,199.1563 595.8656,199.1563 Q595.5219,199.1563 595.3188,198.9531 Q595.1156,198.7656 595.0063,198.25 Q594.9594,197.8906 594.7719,197.7031 Q594.4438,197.3281 593.8344,197.1094 Q593.225,196.8906 592.6,196.8906 Q591.8344,196.8906 591.2016,197.2188 Q590.5688,197.5469 590.0766,198.2969 Q589.5844,199.0469 589.5844,200.0781 L589.5844,201.1719 Q589.5844,202.4063 590.475,203.2266 Q591.3656,204.0469 592.9594,204.0469 Q593.8969,204.0469 594.5531,203.7969 Q594.9438,203.6406 595.3656,203.2031 Q595.6313,202.9375 595.7797,202.8594 Q595.9281,202.7813 596.1313,202.7813 Q596.4594,202.7813 596.7172,203.0391 Q596.975,203.2969 596.975,203.6406 Q596.975,203.9844 596.6313,204.3906 Q596.1313,204.9688 595.3344,205.2969 Q594.2563,205.75 592.9594,205.75 Q591.4438,205.75 590.2406,205.125 Q589.2563,204.625 588.5688,203.5547 Q587.8813,202.4844 587.8813,201.2031 L587.8813,200.0469 Q587.8813,198.7188 588.4984,197.5703 Q589.1156,196.4219 590.2094,195.8047 Q591.3031,195.1875 592.5375,195.1875 Q593.2719,195.1875 593.9203,195.3516 Q594.5688,195.5156 595.1156,195.875 Z "/><text fill="#000000" font-family="sans-serif" font-size="12" lengthAdjust="spacingAndGlyphs" textLength="73" x="612.65" y="204.9102">ConsoleView</text><line style="stroke: #A80036; stroke-width: 1.5;" x1="550" x2="716" y1="216" y2="216"/><rect fill="none" height="6" style="stroke: #C82930; stroke-width: 1.0;" width="6" x="557" y="225.418"/><text fill="#000000" font-family="sans-serif" font-size="11" lengthAdjust="spacingAndGlyphs" textLength="103" x="569" y="231.4189">startView: StartView</text><rect fill="none" height="6" style="stroke: #C82930; stroke-width: 1.0;" width="6" x="557" y="239.2539"/><text fill="#000000" font-family="sans-serif" font-size="11" lengthAdjust="spacingAndGlyphs" textLength="142" x="569" y="245.2549">proposalView: ProposalView</text><rect fill="none" height="6" style="stroke: #C82930; stroke-width: 1.0;" width="6" x="557" y="253.0898"/><text fill="#000000" font-family="sans-serif" font-size="11" lengthAdjust="spacingAndGlyphs" textLength="133" x="569" y="259.0908">resumeView: ResumeView</text><line style="stroke: #A80036; stroke-width: 1.5;" x1="550" x2="716" y1="265.5078" y2="265.5078"/><ellipse cx="560" cy="277.9258" fill="#84BE84" rx="3" ry="3" style="stroke: #038048; stroke-width: 1.0;"/><text fill="#000000" font-family="sans-serif" font-size="11" lengthAdjust="spacingAndGlyphs" textLength="73" x="569" y="280.9268">ConsoleView()</text><ellipse cx="560" cy="291.7617" fill="#84BE84" rx="3" ry="3" style="stroke: #038048; stroke-width: 1.0;"/><text fill="#000000" font-family="sans-serif" font-size="11" lengthAdjust="spacingAndGlyphs" textLength="138" x="569" y="294.7627">visit(ResumeController): void</text><ellipse cx="560" cy="305.5977" fill="#84BE84" rx="3" ry="3" style="stroke: #038048; stroke-width: 1.0;"/><text fill="#000000" font-family="sans-serif" font-size="11" lengthAdjust="spacingAndGlyphs" textLength="141" x="569" y="308.5986">visit(ProposalController): void</text><ellipse cx="560" cy="319.4336" fill="#84BE84" rx="3" ry="3" style="stroke: #038048; stroke-width: 1.0;"/><text fill="#000000" font-family="sans-serif" font-size="11" lengthAdjust="spacingAndGlyphs" textLength="122" x="569" y="322.4346">visit(StartController): void</text><!--class mastermind.views.console.ProposalView--><rect fill="#FEFECE" filter="url(#f1o3pmokqngx3b)" height="75.6719" id="mastermind.views.console.ProposalView" style="stroke: #A80036; stroke-width: 1.5;" width="184" x="963" y="389"/><ellipse cx="1012.75" cy="405" fill="#ADD1B2" rx="11" ry="11" style="stroke: #A80036; stroke-width: 1.0;"/><path d="M1015.5156,400.875 Q1015.6719,400.6563 1015.8594,400.5469 Q1016.0469,400.4375 1016.2656,400.4375 Q1016.6406,400.4375 1016.875,400.6953 Q1017.1094,400.9531 1017.1094,401.5625 L1017.1094,403.0156 Q1017.1094,403.625 1016.875,403.8906 Q1016.6406,404.1563 1016.2656,404.1563 Q1015.9219,404.1563 1015.7188,403.9531 Q1015.5156,403.7656 1015.4063,403.25 Q1015.3594,402.8906 1015.1719,402.7031 Q1014.8438,402.3281 1014.2344,402.1094 Q1013.625,401.8906 1013,401.8906 Q1012.2344,401.8906 1011.6016,402.2188 Q1010.9688,402.5469 1010.4766,403.2969 Q1009.9844,404.0469 1009.9844,405.0781 L1009.9844,406.1719 Q1009.9844,407.4063 1010.875,408.2266 Q1011.7656,409.0469 1013.3594,409.0469 Q1014.2969,409.0469 1014.9531,408.7969 Q1015.3438,408.6406 1015.7656,408.2031 Q1016.0313,407.9375 1016.1797,407.8594 Q1016.3281,407.7813 1016.5313,407.7813 Q1016.8594,407.7813 1017.1172,408.0391 Q1017.375,408.2969 1017.375,408.6406 Q1017.375,408.9844 1017.0313,409.3906 Q1016.5313,409.9688 1015.7344,410.2969 Q1014.6563,410.75 1013.3594,410.75 Q1011.8438,410.75 1010.6406,410.125 Q1009.6563,409.625 1008.9688,408.5547 Q1008.2813,407.4844 1008.2813,406.2031 L1008.2813,405.0469 Q1008.2813,403.7188 1008.8984,402.5703 Q1009.5156,401.4219 1010.6094,400.8047 Q1011.7031,400.1875 1012.9375,400.1875 Q1013.6719,400.1875 1014.3203,400.3516 Q1014.9688,400.5156 1015.5156,400.875 Z "/><text fill="#000000" font-family="sans-serif" font-size="12" lengthAdjust="spacingAndGlyphs" textLength="76" x="1033.25" y="409.9102">ProposalView</text><line style="stroke: #A80036; stroke-width: 1.5;" x1="964" x2="1146" y1="421" y2="421"/><line style="stroke: #A80036; stroke-width: 1.5;" x1="964" x2="1146" y1="429" y2="429"/><polygon fill="#4177AF" points="974,437.418,970,443.418,978,443.418" style="stroke: #1963A0; stroke-width: 1.0;"/><text fill="#000000" font-family="sans-serif" font-size="11" lengthAdjust="spacingAndGlyphs" textLength="76" x="983" y="444.4189">ProposalView()</text><polygon fill="#4177AF" points="974,451.2539,970,457.2539,978,457.2539" style="stroke: #1963A0; stroke-width: 1.0;"/><text fill="#000000" font-family="sans-serif" font-size="11" lengthAdjust="spacingAndGlyphs" textLength="158" x="983" y="458.2549">interact(ProposalController): void</text><!--class mastermind.views.console.ResumeView--><rect fill="#FEFECE" filter="url(#f1o3pmokqngx3b)" height="75.6719" id="mastermind.views.console.ResumeView" style="stroke: #A80036; stroke-width: 1.5;" width="181" x="546.5" y="389"/><ellipse cx="595.75" cy="405" fill="#ADD1B2" rx="11" ry="11" style="stroke: #A80036; stroke-width: 1.0;"/><path d="M598.5156,400.875 Q598.6719,400.6563 598.8594,400.5469 Q599.0469,400.4375 599.2656,400.4375 Q599.6406,400.4375 599.875,400.6953 Q600.1094,400.9531 600.1094,401.5625 L600.1094,403.0156 Q600.1094,403.625 599.875,403.8906 Q599.6406,404.1563 599.2656,404.1563 Q598.9219,404.1563 598.7188,403.9531 Q598.5156,403.7656 598.4063,403.25 Q598.3594,402.8906 598.1719,402.7031 Q597.8438,402.3281 597.2344,402.1094 Q596.625,401.8906 596,401.8906 Q595.2344,401.8906 594.6016,402.2188 Q593.9688,402.5469 593.4766,403.2969 Q592.9844,404.0469 592.9844,405.0781 L592.9844,406.1719 Q592.9844,407.4063 593.875,408.2266 Q594.7656,409.0469 596.3594,409.0469 Q597.2969,409.0469 597.9531,408.7969 Q598.3438,408.6406 598.7656,408.2031 Q599.0313,407.9375 599.1797,407.8594 Q599.3281,407.7813 599.5313,407.7813 Q599.8594,407.7813 600.1172,408.0391 Q600.375,408.2969 600.375,408.6406 Q600.375,408.9844 600.0313,409.3906 Q599.5313,409.9688 598.7344,410.2969 Q597.6563,410.75 596.3594,410.75 Q594.8438,410.75 593.6406,410.125 Q592.6563,409.625 591.9688,408.5547 Q591.2813,407.4844 591.2813,406.2031 L591.2813,405.0469 Q591.2813,403.7188 591.8984,402.5703 Q592.5156,401.4219 593.6094,400.8047 Q594.7031,400.1875 595.9375,400.1875 Q596.6719,400.1875 597.3203,400.3516 Q597.9688,400.5156 598.5156,400.875 Z "/><text fill="#000000" font-family="sans-serif" font-size="12" lengthAdjust="spacingAndGlyphs" textLength="74" x="616.25" y="409.9102">ResumeView</text><line style="stroke: #A80036; stroke-width: 1.5;" x1="547.5" x2="726.5" y1="421" y2="421"/><line style="stroke: #A80036; stroke-width: 1.5;" x1="547.5" x2="726.5" y1="429" y2="429"/><polygon fill="#4177AF" points="557.5,437.418,553.5,443.418,561.5,443.418" style="stroke: #1963A0; stroke-width: 1.0;"/><text fill="#000000" font-family="sans-serif" font-size="11" lengthAdjust="spacingAndGlyphs" textLength="73" x="566.5" y="444.4189">ResumeView()</text><polygon fill="#4177AF" points="557.5,451.2539,553.5,457.2539,561.5,457.2539" style="stroke: #1963A0; stroke-width: 1.0;"/><text fill="#000000" font-family="sans-serif" font-size="11" lengthAdjust="spacingAndGlyphs" textLength="155" x="566.5" y="458.2549">interact(ResumeController): void</text><!--class mastermind.views.console.StartView--><rect fill="#FEFECE" filter="url(#f1o3pmokqngx3b)" height="75.6719" id="mastermind.views.console.StartView" style="stroke: #A80036; stroke-width: 1.5;" width="165" x="762.5" y="389"/><ellipse cx="815.25" cy="405" fill="#ADD1B2" rx="11" ry="11" style="stroke: #A80036; stroke-width: 1.0;"/><path d="M818.0156,400.875 Q818.1719,400.6563 818.3594,400.5469 Q818.5469,400.4375 818.7656,400.4375 Q819.1406,400.4375 819.375,400.6953 Q819.6094,400.9531 819.6094,401.5625 L819.6094,403.0156 Q819.6094,403.625 819.375,403.8906 Q819.1406,404.1563 818.7656,404.1563 Q818.4219,404.1563 818.2188,403.9531 Q818.0156,403.7656 817.9063,403.25 Q817.8594,402.8906 817.6719,402.7031 Q817.3438,402.3281 816.7344,402.1094 Q816.125,401.8906 815.5,401.8906 Q814.7344,401.8906 814.1016,402.2188 Q813.4688,402.5469 812.9766,403.2969 Q812.4844,404.0469 812.4844,405.0781 L812.4844,406.1719 Q812.4844,407.4063 813.375,408.2266 Q814.2656,409.0469 815.8594,409.0469 Q816.7969,409.0469 817.4531,408.7969 Q817.8438,408.6406 818.2656,408.2031 Q818.5313,407.9375 818.6797,407.8594 Q818.8281,407.7813 819.0313,407.7813 Q819.3594,407.7813 819.6172,408.0391 Q819.875,408.2969 819.875,408.6406 Q819.875,408.9844 819.5313,409.3906 Q819.0313,409.9688 818.2344,410.2969 Q817.1563,410.75 815.8594,410.75 Q814.3438,410.75 813.1406,410.125 Q812.1563,409.625 811.4688,408.5547 Q810.7813,407.4844 810.7813,406.2031 L810.7813,405.0469 Q810.7813,403.7188 811.3984,402.5703 Q812.0156,401.4219 813.1094,400.8047 Q814.2031,400.1875 815.4375,400.1875 Q816.1719,400.1875 816.8203,400.3516 Q817.4688,400.5156 818.0156,400.875 Z "/><text fill="#000000" font-family="sans-serif" font-size="12" lengthAdjust="spacingAndGlyphs" textLength="51" x="835.75" y="409.9102">StartView</text><line style="stroke: #A80036; stroke-width: 1.5;" x1="763.5" x2="926.5" y1="421" y2="421"/><line style="stroke: #A80036; stroke-width: 1.5;" x1="763.5" x2="926.5" y1="429" y2="429"/><polygon fill="#4177AF" points="773.5,437.418,769.5,443.418,777.5,443.418" style="stroke: #1963A0; stroke-width: 1.0;"/><text fill="#000000" font-family="sans-serif" font-size="11" lengthAdjust="spacingAndGlyphs" textLength="57" x="782.5" y="444.4189">StartView()</text><polygon fill="#4177AF" points="773.5,451.2539,769.5,457.2539,777.5,457.2539" style="stroke: #1963A0; stroke-width: 1.0;"/><text fill="#000000" font-family="sans-serif" font-size="11" lengthAdjust="spacingAndGlyphs" textLength="139" x="782.5" y="458.2549">interact(StartController): void</text><!--class mastermind.views.console.SecretCombinationView--><rect fill="#FEFECE" filter="url(#f1o3pmokqngx3b)" height="75.6719" id="mastermind.views.console.SecretCombinationView" style="stroke: #A80036; stroke-width: 1.5;" width="164" x="983" y="538.5"/><ellipse cx="998" cy="554.5" fill="#ADD1B2" rx="11" ry="11" style="stroke: #A80036; stroke-width: 1.0;"/><path d="M1000.7656,550.375 Q1000.9219,550.1563 1001.1094,550.0469 Q1001.2969,549.9375 1001.5156,549.9375 Q1001.8906,549.9375 1002.125,550.1953 Q1002.3594,550.4531 1002.3594,551.0625 L1002.3594,552.5156 Q1002.3594,553.125 1002.125,553.3906 Q1001.8906,553.6563 1001.5156,553.6563 Q1001.1719,553.6563 1000.9688,553.4531 Q1000.7656,553.2656 1000.6563,552.75 Q1000.6094,552.3906 1000.4219,552.2031 Q1000.0938,551.8281 999.4844,551.6094 Q998.875,551.3906 998.25,551.3906 Q997.4844,551.3906 996.8516,551.7188 Q996.2188,552.0469 995.7266,552.7969 Q995.2344,553.5469 995.2344,554.5781 L995.2344,555.6719 Q995.2344,556.9063 996.125,557.7266 Q997.0156,558.5469 998.6094,558.5469 Q999.5469,558.5469 1000.2031,558.2969 Q1000.5938,558.1406 1001.0156,557.7031 Q1001.2813,557.4375 1001.4297,557.3594 Q1001.5781,557.2813 1001.7813,557.2813 Q1002.1094,557.2813 1002.3672,557.5391 Q1002.625,557.7969 1002.625,558.1406 Q1002.625,558.4844 1002.2813,558.8906 Q1001.7813,559.4688 1000.9844,559.7969 Q999.9063,560.25 998.6094,560.25 Q997.0938,560.25 995.8906,559.625 Q994.9063,559.125 994.2188,558.0547 Q993.5313,556.9844 993.5313,555.7031 L993.5313,554.5469 Q993.5313,553.2188 994.1484,552.0703 Q994.7656,550.9219 995.8594,550.3047 Q996.9531,549.6875 998.1875,549.6875 Q998.9219,549.6875 999.5703,549.8516 Q1000.2188,550.0156 1000.7656,550.375 Z "/><text fill="#000000" font-family="sans-serif" font-size="12" lengthAdjust="spacingAndGlyphs" textLength="132" x="1012" y="559.4102">SecretCombinationView</text><line style="stroke: #A80036; stroke-width: 1.5;" x1="984" x2="1146" y1="570.5" y2="570.5"/><line style="stroke: #A80036; stroke-width: 1.5;" x1="984" x2="1146" y1="578.5" y2="578.5"/><polygon fill="#4177AF" points="994,586.918,990,592.918,998,592.918" style="stroke: #1963A0; stroke-width: 1.0;"/><text fill="#000000" font-family="sans-serif" font-size="11" lengthAdjust="spacingAndGlyphs" textLength="124" x="1003" y="593.9189">SecretCombinationView()</text><polygon fill="#4177AF" points="994,600.7539,990,606.7539,998,606.7539" style="stroke: #1963A0; stroke-width: 1.0;"/><text fill="#000000" font-family="sans-serif" font-size="11" lengthAdjust="spacingAndGlyphs" textLength="78" x="1003" y="607.7549">writeln(int): void</text><!--class mastermind.views.console.ProposedCombinationView--><rect fill="#FEFECE" filter="url(#f1o3pmokqngx3b)" height="103.3438" id="mastermind.views.console.ProposedCombinationView" style="stroke: #A80036; stroke-width: 1.5;" width="183" x="619.5" y="525"/><ellipse cx="634.5" cy="541" fill="#ADD1B2" rx="11" ry="11" style="stroke: #A80036; stroke-width: 1.0;"/><path d="M637.2656,536.875 Q637.4219,536.6563 637.6094,536.5469 Q637.7969,536.4375 638.0156,536.4375 Q638.3906,536.4375 638.625,536.6953 Q638.8594,536.9531 638.8594,537.5625 L638.8594,539.0156 Q638.8594,539.625 638.625,539.8906 Q638.3906,540.1563 638.0156,540.1563 Q637.6719,540.1563 637.4688,539.9531 Q637.2656,539.7656 637.1563,539.25 Q637.1094,538.8906 636.9219,538.7031 Q636.5938,538.3281 635.9844,538.1094 Q635.375,537.8906 634.75,537.8906 Q633.9844,537.8906 633.3516,538.2188 Q632.7188,538.5469 632.2266,539.2969 Q631.7344,540.0469 631.7344,541.0781 L631.7344,542.1719 Q631.7344,543.4063 632.625,544.2266 Q633.5156,545.0469 635.1094,545.0469 Q636.0469,545.0469 636.7031,544.7969 Q637.0938,544.6406 637.5156,544.2031 Q637.7813,543.9375 637.9297,543.8594 Q638.0781,543.7813 638.2813,543.7813 Q638.6094,543.7813 638.8672,544.0391 Q639.125,544.2969 639.125,544.6406 Q639.125,544.9844 638.7813,545.3906 Q638.2813,545.9688 637.4844,546.2969 Q636.4063,546.75 635.1094,546.75 Q633.5938,546.75 632.3906,546.125 Q631.4063,545.625 630.7188,544.5547 Q630.0313,543.4844 630.0313,542.2031 L630.0313,541.0469 Q630.0313,539.7188 630.6484,538.5703 Q631.2656,537.4219 632.3594,536.8047 Q633.4531,536.1875 634.6875,536.1875 Q635.4219,536.1875 636.0703,536.3516 Q636.7188,536.5156 637.2656,536.875 Z "/><text fill="#000000" font-family="sans-serif" font-size="12" lengthAdjust="spacingAndGlyphs" textLength="151" x="648.5" y="545.9102">ProposedCombinationView</text><line style="stroke: #A80036; stroke-width: 1.5;" x1="620.5" x2="801.5" y1="557" y2="557"/><rect fill="none" height="6" style="stroke: #C82930; stroke-width: 1.0;" width="6" x="627.5" y="566.418"/><text fill="#000000" font-family="sans-serif" font-size="11" lengthAdjust="spacingAndGlyphs" text-decoration="underline" textLength="86" x="639.5" y="572.4189">ERROR_CODE: int</text><line style="stroke: #A80036; stroke-width: 1.5;" x1="620.5" x2="801.5" y1="578.8359" y2="578.8359"/><polygon fill="#4177AF" points="630.5,587.2539,626.5,593.2539,634.5,593.2539" style="stroke: #1963A0; stroke-width: 1.0;"/><text fill="#000000" font-family="sans-serif" font-size="11" lengthAdjust="spacingAndGlyphs" textLength="138" x="639.5" y="594.2549">ProposedCombinationView()</text><polygon fill="#4177AF" points="630.5,601.0898,626.5,607.0898,634.5,607.0898" style="stroke: #1963A0; stroke-width: 1.0;"/><text fill="#000000" font-family="sans-serif" font-size="11" lengthAdjust="spacingAndGlyphs" textLength="76" x="639.5" y="608.0908">write(int[]): void</text><polygon fill="#4177AF" points="630.5,614.9258,626.5,620.9258,634.5,620.9258" style="stroke: #1963A0; stroke-width: 1.0;"/><text fill="#000000" font-family="sans-serif" font-size="11" lengthAdjust="spacingAndGlyphs" textLength="53" x="639.5" y="621.9268">read(): int[]</text><!--class mastermind.views.console.ResultView--><rect fill="#FEFECE" filter="url(#f1o3pmokqngx3b)" height="75.6719" id="mastermind.views.console.ResultView" style="stroke: #A80036; stroke-width: 1.5;" width="110" x="838" y="538.5"/><ellipse cx="860.2" cy="554.5" fill="#ADD1B2" rx="11" ry="11" style="stroke: #A80036; stroke-width: 1.0;"/><path d="M862.9656,550.375 Q863.1219,550.1563 863.3094,550.0469 Q863.4969,549.9375 863.7156,549.9375 Q864.0906,549.9375 864.325,550.1953 Q864.5594,550.4531 864.5594,551.0625 L864.5594,552.5156 Q864.5594,553.125 864.325,553.3906 Q864.0906,553.6563 863.7156,553.6563 Q863.3719,553.6563 863.1688,553.4531 Q862.9656,553.2656 862.8563,552.75 Q862.8094,552.3906 862.6219,552.2031 Q862.2938,551.8281 861.6844,551.6094 Q861.075,551.3906 860.45,551.3906 Q859.6844,551.3906 859.0516,551.7188 Q858.4188,552.0469 857.9266,552.7969 Q857.4344,553.5469 857.4344,554.5781 L857.4344,555.6719 Q857.4344,556.9063 858.325,557.7266 Q859.2156,558.5469 860.8094,558.5469 Q861.7469,558.5469 862.4031,558.2969 Q862.7938,558.1406 863.2156,557.7031 Q863.4813,557.4375 863.6297,557.3594 Q863.7781,557.2813 863.9813,557.2813 Q864.3094,557.2813 864.5672,557.5391 Q864.825,557.7969 864.825,558.1406 Q864.825,558.4844 864.4813,558.8906 Q863.9813,559.4688 863.1844,559.7969 Q862.1063,560.25 860.8094,560.25 Q859.2938,560.25 858.0906,559.625 Q857.1063,559.125 856.4188,558.0547 Q855.7313,556.9844 855.7313,555.7031 L855.7313,554.5469 Q855.7313,553.2188 856.3484,552.0703 Q856.9656,550.9219 858.0594,550.3047 Q859.1531,549.6875 860.3875,549.6875 Q861.1219,549.6875 861.7703,549.8516 Q862.4188,550.0156 862.9656,550.375 Z "/><text fill="#000000" font-family="sans-serif" font-size="12" lengthAdjust="spacingAndGlyphs" textLength="62" x="875.8" y="559.4102">ResultView</text><line style="stroke: #A80036; stroke-width: 1.5;" x1="839" x2="947" y1="570.5" y2="570.5"/><line style="stroke: #A80036; stroke-width: 1.5;" x1="839" x2="947" y1="578.5" y2="578.5"/><polygon fill="#4177AF" points="849,586.918,845,592.918,853,592.918" style="stroke: #1963A0; stroke-width: 1.0;"/><text fill="#000000" font-family="sans-serif" font-size="11" lengthAdjust="spacingAndGlyphs" textLength="64" x="858" y="593.9189">ResultView()</text><polygon fill="#4177AF" points="849,600.7539,845,606.7539,853,606.7539" style="stroke: #1963A0; stroke-width: 1.0;"/><text fill="#000000" font-family="sans-serif" font-size="11" lengthAdjust="spacingAndGlyphs" textLength="84" x="858" y="607.7549">writeln(int[]): void</text><!--class mastermind.views.View--><rect fill="#FEFECE" filter="url(#f1o3pmokqngx3b)" height="48" id="mastermind.views.View" style="stroke: #A80036; stroke-width: 1.5;" width="58" x="604" y="60"/><ellipse cx="619" cy="76" fill="#ADD1B2" rx="11" ry="11" style="stroke: #A80036; stroke-width: 1.0;"/><path d="M621.7656,71.875 Q621.9219,71.6563 622.1094,71.5469 Q622.2969,71.4375 622.5156,71.4375 Q622.8906,71.4375 623.125,71.6953 Q623.3594,71.9531 623.3594,72.5625 L623.3594,74.0156 Q623.3594,74.625 623.125,74.8906 Q622.8906,75.1563 622.5156,75.1563 Q622.1719,75.1563 621.9688,74.9531 Q621.7656,74.7656 621.6563,74.25 Q621.6094,73.8906 621.4219,73.7031 Q621.0938,73.3281 620.4844,73.1094 Q619.875,72.8906 619.25,72.8906 Q618.4844,72.8906 617.8516,73.2188 Q617.2188,73.5469 616.7266,74.2969 Q616.2344,75.0469 616.2344,76.0781 L616.2344,77.1719 Q616.2344,78.4063 617.125,79.2266 Q618.0156,80.0469 619.6094,80.0469 Q620.5469,80.0469 621.2031,79.7969 Q621.5938,79.6406 622.0156,79.2031 Q622.2813,78.9375 622.4297,78.8594 Q622.5781,78.7813 622.7813,78.7813 Q623.1094,78.7813 623.3672,79.0391 Q623.625,79.2969 623.625,79.6406 Q623.625,79.9844 623.2813,80.3906 Q622.7813,80.9688 621.9844,81.2969 Q620.9063,81.75 619.6094,81.75 Q618.0938,81.75 616.8906,81.125 Q615.9063,80.625 615.2188,79.5547 Q614.5313,78.4844 614.5313,77.2031 L614.5313,76.0469 Q614.5313,74.7188 615.1484,73.5703 Q615.7656,72.4219 616.8594,71.8047 Q617.9531,71.1875 619.1875,71.1875 Q619.9219,71.1875 620.5703,71.3516 Q621.2188,71.5156 621.7656,71.875 Z "/><text fill="#000000" font-family="sans-serif" font-size="12" lengthAdjust="spacingAndGlyphs" textLength="26" x="633" y="80.9102">View</text><line style="stroke: #A80036; stroke-width: 1.5;" x1="605" x2="661" y1="92" y2="92"/><line style="stroke: #A80036; stroke-width: 1.5;" x1="605" x2="661" y1="100" y2="100"/><!--class mastermind.controllers.ResumeController--><rect fill="#FEFECE" filter="url(#f1o3pmokqngx3b)" height="48" id="mastermind.controllers.ResumeController" style="stroke: #A80036; stroke-width: 1.5;" width="134" x="38" y="552.5"/><ellipse cx="53" cy="568.5" fill="#ADD1B2" rx="11" ry="11" style="stroke: #A80036; stroke-width: 1.0;"/><path d="M55.7656,564.375 Q55.9219,564.1563 56.1094,564.0469 Q56.2969,563.9375 56.5156,563.9375 Q56.8906,563.9375 57.125,564.1953 Q57.3594,564.4531 57.3594,565.0625 L57.3594,566.5156 Q57.3594,567.125 57.125,567.3906 Q56.8906,567.6563 56.5156,567.6563 Q56.1719,567.6563 55.9688,567.4531 Q55.7656,567.2656 55.6563,566.75 Q55.6094,566.3906 55.4219,566.2031 Q55.0938,565.8281 54.4844,565.6094 Q53.875,565.3906 53.25,565.3906 Q52.4844,565.3906 51.8516,565.7188 Q51.2188,566.0469 50.7266,566.7969 Q50.2344,567.5469 50.2344,568.5781 L50.2344,569.6719 Q50.2344,570.9063 51.125,571.7266 Q52.0156,572.5469 53.6094,572.5469 Q54.5469,572.5469 55.2031,572.2969 Q55.5938,572.1406 56.0156,571.7031 Q56.2813,571.4375 56.4297,571.3594 Q56.5781,571.2813 56.7813,571.2813 Q57.1094,571.2813 57.3672,571.5391 Q57.625,571.7969 57.625,572.1406 Q57.625,572.4844 57.2813,572.8906 Q56.7813,573.4688 55.9844,573.7969 Q54.9063,574.25 53.6094,574.25 Q52.0938,574.25 50.8906,573.625 Q49.9063,573.125 49.2188,572.0547 Q48.5313,570.9844 48.5313,569.7031 L48.5313,568.5469 Q48.5313,567.2188 49.1484,566.0703 Q49.7656,564.9219 50.8594,564.3047 Q51.9531,563.6875 53.1875,563.6875 Q53.9219,563.6875 54.5703,563.8516 Q55.2188,564.0156 55.7656,564.375 Z "/><text fill="#000000" font-family="sans-serif" font-size="12" lengthAdjust="spacingAndGlyphs" textLength="102" x="67" y="573.4102">ResumeController</text><line style="stroke: #A80036; stroke-width: 1.5;" x1="39" x2="171" y1="584.5" y2="584.5"/><line style="stroke: #A80036; stroke-width: 1.5;" x1="39" x2="171" y1="592.5" y2="592.5"/><!--class mastermind.controllers.StartController--><rect fill="#FEFECE" filter="url(#f1o3pmokqngx3b)" height="48" id="mastermind.controllers.StartController" style="stroke: #A80036; stroke-width: 1.5;" width="111" x="207.5" y="552.5"/><ellipse cx="222.5" cy="568.5" fill="#ADD1B2" rx="11" ry="11" style="stroke: #A80036; stroke-width: 1.0;"/><path d="M225.2656,564.375 Q225.4219,564.1563 225.6094,564.0469 Q225.7969,563.9375 226.0156,563.9375 Q226.3906,563.9375 226.625,564.1953 Q226.8594,564.4531 226.8594,565.0625 L226.8594,566.5156 Q226.8594,567.125 226.625,567.3906 Q226.3906,567.6563 226.0156,567.6563 Q225.6719,567.6563 225.4688,567.4531 Q225.2656,567.2656 225.1563,566.75 Q225.1094,566.3906 224.9219,566.2031 Q224.5938,565.8281 223.9844,565.6094 Q223.375,565.3906 222.75,565.3906 Q221.9844,565.3906 221.3516,565.7188 Q220.7188,566.0469 220.2266,566.7969 Q219.7344,567.5469 219.7344,568.5781 L219.7344,569.6719 Q219.7344,570.9063 220.625,571.7266 Q221.5156,572.5469 223.1094,572.5469 Q224.0469,572.5469 224.7031,572.2969 Q225.0938,572.1406 225.5156,571.7031 Q225.7813,571.4375 225.9297,571.3594 Q226.0781,571.2813 226.2813,571.2813 Q226.6094,571.2813 226.8672,571.5391 Q227.125,571.7969 227.125,572.1406 Q227.125,572.4844 226.7813,572.8906 Q226.2813,573.4688 225.4844,573.7969 Q224.4063,574.25 223.1094,574.25 Q221.5938,574.25 220.3906,573.625 Q219.4063,573.125 218.7188,572.0547 Q218.0313,570.9844 218.0313,569.7031 L218.0313,568.5469 Q218.0313,567.2188 218.6484,566.0703 Q219.2656,564.9219 220.3594,564.3047 Q221.4531,563.6875 222.6875,563.6875 Q223.4219,563.6875 224.0703,563.8516 Q224.7188,564.0156 225.2656,564.375 Z "/><text fill="#000000" font-family="sans-serif" font-size="12" lengthAdjust="spacingAndGlyphs" textLength="79" x="236.5" y="573.4102">StartController</text><line style="stroke: #A80036; stroke-width: 1.5;" x1="208.5" x2="317.5" y1="584.5" y2="584.5"/><line style="stroke: #A80036; stroke-width: 1.5;" x1="208.5" x2="317.5" y1="592.5" y2="592.5"/><!--class mastermind.controllers.ProposalController--><rect fill="#FEFECE" filter="url(#f1o3pmokqngx3b)" height="48" id="mastermind.controllers.ProposalController" style="stroke: #A80036; stroke-width: 1.5;" width="136" x="354" y="552.5"/><ellipse cx="369" cy="568.5" fill="#ADD1B2" rx="11" ry="11" style="stroke: #A80036; stroke-width: 1.0;"/><path d="M371.7656,564.375 Q371.9219,564.1563 372.1094,564.0469 Q372.2969,563.9375 372.5156,563.9375 Q372.8906,563.9375 373.125,564.1953 Q373.3594,564.4531 373.3594,565.0625 L373.3594,566.5156 Q373.3594,567.125 373.125,567.3906 Q372.8906,567.6563 372.5156,567.6563 Q372.1719,567.6563 371.9688,567.4531 Q371.7656,567.2656 371.6563,566.75 Q371.6094,566.3906 371.4219,566.2031 Q371.0938,565.8281 370.4844,565.6094 Q369.875,565.3906 369.25,565.3906 Q368.4844,565.3906 367.8516,565.7188 Q367.2188,566.0469 366.7266,566.7969 Q366.2344,567.5469 366.2344,568.5781 L366.2344,569.6719 Q366.2344,570.9063 367.125,571.7266 Q368.0156,572.5469 369.6094,572.5469 Q370.5469,572.5469 371.2031,572.2969 Q371.5938,572.1406 372.0156,571.7031 Q372.2813,571.4375 372.4297,571.3594 Q372.5781,571.2813 372.7813,571.2813 Q373.1094,571.2813 373.3672,571.5391 Q373.625,571.7969 373.625,572.1406 Q373.625,572.4844 373.2813,572.8906 Q372.7813,573.4688 371.9844,573.7969 Q370.9063,574.25 369.6094,574.25 Q368.0938,574.25 366.8906,573.625 Q365.9063,573.125 365.2188,572.0547 Q364.5313,570.9844 364.5313,569.7031 L364.5313,568.5469 Q364.5313,567.2188 365.1484,566.0703 Q365.7656,564.9219 366.8594,564.3047 Q367.9531,563.6875 369.1875,563.6875 Q369.9219,563.6875 370.5703,563.8516 Q371.2188,564.0156 371.7656,564.375 Z "/><text fill="#000000" font-family="sans-serif" font-size="12" lengthAdjust="spacingAndGlyphs" textLength="104" x="383" y="573.4102">ProposalController</text><line style="stroke: #A80036; stroke-width: 1.5;" x1="355" x2="489" y1="584.5" y2="584.5"/><line style="stroke: #A80036; stroke-width: 1.5;" x1="355" x2="489" y1="592.5" y2="592.5"/><!--class mastermind.utils.WithConsoleView--><rect fill="#FEFECE" filter="url(#f1o3pmokqngx3b)" height="48" id="mastermind.utils.WithConsoleView" style="stroke: #A80036; stroke-width: 1.5;" width="129" x="1203.5" y="232.5"/><ellipse cx="1218.5" cy="248.5" fill="#ADD1B2" rx="11" ry="11" style="stroke: #A80036; stroke-width: 1.0;"/><path d="M1221.2656,244.375 Q1221.4219,244.1563 1221.6094,244.0469 Q1221.7969,243.9375 1222.0156,243.9375 Q1222.3906,243.9375 1222.625,244.1953 Q1222.8594,244.4531 1222.8594,245.0625 L1222.8594,246.5156 Q1222.8594,247.125 1222.625,247.3906 Q1222.3906,247.6563 1222.0156,247.6563 Q1221.6719,247.6563 1221.4688,247.4531 Q1221.2656,247.2656 1221.1563,246.75 Q1221.1094,246.3906 1220.9219,246.2031 Q1220.5938,245.8281 1219.9844,245.6094 Q1219.375,245.3906 1218.75,245.3906 Q1217.9844,245.3906 1217.3516,245.7188 Q1216.7188,246.0469 1216.2266,246.7969 Q1215.7344,247.5469 1215.7344,248.5781 L1215.7344,249.6719 Q1215.7344,250.9063 1216.625,251.7266 Q1217.5156,252.5469 1219.1094,252.5469 Q1220.0469,252.5469 1220.7031,252.2969 Q1221.0938,252.1406 1221.5156,251.7031 Q1221.7813,251.4375 1221.9297,251.3594 Q1222.0781,251.2813 1222.2813,251.2813 Q1222.6094,251.2813 1222.8672,251.5391 Q1223.125,251.7969 1223.125,252.1406 Q1223.125,252.4844 1222.7813,252.8906 Q1222.2813,253.4688 1221.4844,253.7969 Q1220.4063,254.25 1219.1094,254.25 Q1217.5938,254.25 1216.3906,253.625 Q1215.4063,253.125 1214.7188,252.0547 Q1214.0313,250.9844 1214.0313,249.7031 L1214.0313,248.5469 Q1214.0313,247.2188 1214.6484,246.0703 Q1215.2656,244.9219 1216.3594,244.3047 Q1217.4531,243.6875 1218.6875,243.6875 Q1219.4219,243.6875 1220.0703,243.8516 Q1220.7188,244.0156 1221.2656,244.375 Z "/><text fill="#000000" font-family="sans-serif" font-size="12" lengthAdjust="spacingAndGlyphs" textLength="97" x="1232.5" y="253.4102">WithConsoleView</text><line style="stroke: #A80036; stroke-width: 1.5;" x1="1204.5" x2="1331.5" y1="264.5" y2="264.5"/><line style="stroke: #A80036; stroke-width: 1.5;" x1="1204.5" x2="1331.5" y1="272.5" y2="272.5"/><!--link mastermind.views.View to mastermind.views.console.ConsoleView--><path d="M633,128.487 C633,145.31 633,165.015 633,183.816 " fill="none" id="mastermind.views.View-mastermind.views.console.ConsoleView" style="stroke: #A80036; stroke-width: 1.0;"/><polygon fill="none" points="626,128.35,633,108.35,640,128.35,626,128.35" style="stroke: #A80036; stroke-width: 1.0;"/><!--link mastermind.views.console.ConsoleView to mastermind.views.console.ProposalView--><path d="M729.487,296.026 C795.491,322.381 882.942,357.299 950.578,384.306 " fill="none" id="mastermind.views.console.ConsoleView-mastermind.views.console.ProposalView" style="stroke: #A80036; stroke-width: 1.0;"/><polygon fill="#A80036" points="962.967,389.252,956.0924,382.1994,958.3236,387.3976,953.1254,389.6288,962.967,389.252" style="stroke: #A80036; stroke-width: 1.0;"/><line style="stroke: #A80036; stroke-width: 1.0;" x1="958.3236" x2="950.8945" y1="387.3976" y2="384.4315"/><polygon fill="#A80036" points="717.131,291.093,721.2202,297.0326,728.2756,295.5424,724.1865,289.6028,717.131,291.093" style="stroke: #A80036; stroke-width: 1.0;"/><!--link mastermind.views.console.ConsoleView to mastermind.views.console.ResumeView--><path d="M635.028,342.921 C635.293,354.105 635.558,365.262 635.804,375.603 " fill="none" id="mastermind.views.console.ConsoleView-mastermind.views.console.ResumeView" style="stroke: #A80036; stroke-width: 1.0;"/><polygon fill="#A80036" points="636.114,388.66,639.8993,379.5676,635.9953,383.6614,631.9015,379.7575,636.114,388.66" style="stroke: #A80036; stroke-width: 1.0;"/><line style="stroke: #A80036; stroke-width: 1.0;" x1="635.9953" x2="635.805" y1="383.6614" y2="375.664"/><polygon fill="#A80036" points="634.708,329.448,630.8516,335.5413,634.9928,341.4446,638.8493,335.3514,634.708,329.448" style="stroke: #A80036; stroke-width: 1.0;"/><!--link mastermind.views.console.ConsoleView to mastermind.views.console.StartView--><path d="M727.535,332.638 C748.129,349.006 769.307,365.838 787.911,380.625 " fill="none" id="mastermind.views.console.ConsoleView-mastermind.views.console.StartView" style="stroke: #A80036; stroke-width: 1.0;"/><polygon fill="#A80036" points="798.251,388.843,793.6941,380.1118,794.3367,385.732,788.7165,386.3746,798.251,388.843" style="stroke: #A80036; stroke-width: 1.0;"/><line style="stroke: #A80036; stroke-width: 1.0;" x1="794.3367" x2="788.074" y1="385.732" y2="380.754"/><polygon fill="#A80036" points="717.093,324.338,719.3003,331.203,726.4862,331.8058,724.2789,324.9409,717.093,324.338" style="stroke: #A80036; stroke-width: 1.0;"/><!--link mastermind.views.console.ConsoleView to mastermind.controllers.ResumeController--><path d="M548.944,299.07 C457.677,345.572 309.022,425.347 190,508.5 C171.824,521.198 152.345,536.425 136.625,549.152 " fill="none" id="mastermind.views.console.ConsoleView-mastermind.controllers.ResumeController" style="stroke: #A80036; stroke-width: 1.0; stroke-dasharray: 7.0,7.0;"/><polygon fill="#A80036" points="132.713,552.331,142.2203,549.7596,136.5934,549.1778,137.1752,543.551,132.713,552.331" style="stroke: #A80036; stroke-width: 1.0;"/><!--link mastermind.views.console.ConsoleView to mastermind.controllers.StartController--><path d="M548.846,326.739 C488.86,376.548 406.66,445.73 336,508.5 C321.188,521.658 304.928,536.538 291.521,548.927 " fill="none" id="mastermind.views.console.ConsoleView-mastermind.controllers.StartController" style="stroke: #A80036; stroke-width: 1.0; stroke-dasharray: 7.0,7.0;"/><polygon fill="#A80036" points="287.819,552.351,297.1422,549.1765,291.4897,548.956,291.7102,543.3034,287.819,552.351" style="stroke: #A80036; stroke-width: 1.0;"/><!--link mastermind.views.console.ConsoleView to mastermind.controllers.ProposalController--><path d="M573.26,329.084 C558.234,348.137 542.541,368.993 529,389 C492.355,443.141 455.77,510.491 436.315,547.637 " fill="none" id="mastermind.views.console.ConsoleView-mastermind.controllers.ProposalController" style="stroke: #A80036; stroke-width: 1.0; stroke-dasharray: 7.0,7.0;"/><polygon fill="#A80036" points="433.799,552.454,441.5109,546.3281,436.1136,548.022,434.4197,542.6247,433.799,552.454" style="stroke: #A80036; stroke-width: 1.0;"/><!--link mastermind.utils.WithConsoleView to mastermind.views.console.ProposalView--><path d="M1223.13,292.999 C1187.64,321.069 1138.24,360.148 1102.18,388.68 " fill="none" id="mastermind.utils.WithConsoleView-mastermind.views.console.ProposalView" style="stroke: #A80036; stroke-width: 1.0;"/><polygon fill="none" points="1218.8,287.494,1238.83,280.576,1227.49,298.474,1218.8,287.494" style="stroke: #A80036; stroke-width: 1.0;"/><!--link mastermind.views.console.ProposalView to mastermind.controllers.ProposalController--><path d="M962.987,460.587 C956.939,462.221 950.906,463.714 945,465 C763.793,504.468 705.457,448.431 530,508.5 C503.105,517.708 475.927,534.617 455.562,549.144 " fill="none" id="mastermind.views.console.ProposalView-mastermind.controllers.ProposalController" style="stroke: #A80036; stroke-width: 1.0; stroke-dasharray: 7.0,7.0;"/><polygon fill="#A80036" points="451.323,552.204,460.9619,550.181,455.3775,549.2781,456.2804,543.6938,451.323,552.204" style="stroke: #A80036; stroke-width: 1.0;"/><!--link mastermind.views.console.ProposalView to mastermind.views.console.SecretCombinationView--><path d="M1057.52,465.22 C1058.93,485.921 1060.68,511.758 1062.13,533.219 " fill="none" id="mastermind.views.console.ProposalView-mastermind.views.console.SecretCombinationView" style="stroke: #A80036; stroke-width: 1.0; stroke-dasharray: 7.0,7.0;"/><polygon fill="#A80036" points="1062.48,538.291,1065.8628,529.0413,1062.1422,533.3024,1057.8811,529.5818,1062.48,538.291" style="stroke: #A80036; stroke-width: 1.0;"/><!--link mastermind.views.console.ProposalView to mastermind.views.console.ProposedCombinationView--><path d="M962.792,459.063 C899.99,480.306 826.997,505.201 820,508.5 C811.108,512.693 802.033,517.438 793.103,522.42 " fill="none" id="mastermind.views.console.ProposalView-mastermind.views.console.ProposedCombinationView" style="stroke: #A80036; stroke-width: 1.0; stroke-dasharray: 7.0,7.0;"/><polygon fill="#A80036" points="788.733,524.883,798.5374,523.9487,793.0888,522.428,794.6095,516.9794,788.733,524.883" style="stroke: #A80036; stroke-width: 1.0;"/><!--link mastermind.views.console.ProposalView to mastermind.views.console.ResultView--><path d="M1013.17,465.102 C997.95,478.689 980.641,494.23 965,508.5 C955.646,517.034 945.67,526.246 936.216,535.027 " fill="none" id="mastermind.views.console.ProposalView-mastermind.views.console.ResultView" style="stroke: #A80036; stroke-width: 1.0; stroke-dasharray: 7.0,7.0;"/><polygon fill="#A80036" points="932.482,538.498,941.7975,535.3009,936.1444,535.0941,936.3513,529.441,932.482,538.498" style="stroke: #A80036; stroke-width: 1.0;"/><!--link mastermind.utils.WithConsoleView to mastermind.views.console.ProposedCombinationView--><path d="M1252.36,299.611 C1231.25,354.105 1192.95,444.511 1164,465 C1038.22,554.037 965.363,457.331 820,508.5 C807.848,512.778 795.607,518.556 783.941,524.936 " fill="none" id="mastermind.utils.WithConsoleView-mastermind.views.console.ProposedCombinationView" style="stroke: #A80036; stroke-width: 1.0;"/><polygon fill="none" points="1245.9,296.908,1259.56,280.705,1258.99,301.887,1245.9,296.908" style="stroke: #A80036; stroke-width: 1.0;"/><!--link mastermind.utils.WithConsoleView to mastermind.views.console.ResultView--><path d="M1272.36,300.902 C1274.5,348.171 1269.82,422.673 1226,465 C1141.42,546.706 1070.52,456.577 965,508.5 C950.292,515.737 936.49,526.969 924.983,538.181 " fill="none" id="mastermind.utils.WithConsoleView-mastermind.views.console.ResultView" style="stroke: #A80036; stroke-width: 1.0;"/><polygon fill="none" points="1265.36,301.166,1270.95,280.729,1279.33,300.195,1265.36,301.166" style="stroke: #A80036; stroke-width: 1.0;"/><!--link mastermind.views.console.ResumeView to mastermind.controllers.ResumeController--><path d="M546.279,431.476 C453.179,437.938 305.951,456.322 190,508.5 C168.359,518.238 147.383,534.675 131.683,548.831 " fill="none" id="mastermind.views.console.ResumeView-mastermind.controllers.ResumeController" style="stroke: #A80036; stroke-width: 1.0; stroke-dasharray: 7.0,7.0;"/><polygon fill="#A80036" points="127.807,552.375,137.1481,549.2534,131.4969,549.0008,131.7494,543.3496,127.807,552.375" style="stroke: #A80036; stroke-width: 1.0;"/><!--link mastermind.utils.WithConsoleView to mastermind.views.console.SecretCombinationView--><path d="M1288.92,299.173 C1308.01,343.674 1328.83,414.589 1297,465 C1264.25,516.87 1199.75,544.898 1147.06,559.732 " fill="none" id="mastermind.utils.WithConsoleView-mastermind.views.console.SecretCombinationView" style="stroke: #A80036; stroke-width: 1.0;"/><polygon fill="none" points="1282.45,301.851,1280.46,280.754,1295.17,296.009,1282.45,301.851" style="stroke: #A80036; stroke-width: 1.0;"/><!--link mastermind.utils.WithConsoleView to mastermind.views.console.StartView--><path d="M1223.61,292.512 C1205.6,305.416 1184.09,319.248 1163,329 C1071.79,371.184 1040.66,358.203 945,389 C939.361,390.815 933.57,392.755 927.752,394.76 " fill="none" id="mastermind.utils.WithConsoleView-mastermind.views.console.StartView" style="stroke: #A80036; stroke-width: 1.0;"/><polygon fill="none" points="1219.45,286.882,1239.69,280.589,1227.79,298.126,1219.45,286.882" style="stroke: #A80036; stroke-width: 1.0;"/><!--link mastermind.views.console.StartView to mastermind.controllers.StartController--><path d="M762.268,460.388 C756.472,462.107 750.677,463.67 745,465 C567.018,506.705 502.596,433.249 336,508.5 C316.081,517.497 297.953,534.067 284.744,548.477 " fill="none" id="mastermind.views.console.StartView-mastermind.controllers.StartController" style="stroke: #A80036; stroke-width: 1.0; stroke-dasharray: 7.0,7.0;"/><polygon fill="#A80036" points="281.151,552.476,290.1409,548.4534,284.4922,548.7563,284.1894,543.1075,281.151,552.476" style="stroke: #A80036; stroke-width: 1.0;"/><!--
@startuml

class  mastermind.views.console.ConsoleView{
- startView: StartView
- proposalView: ProposalView
- resumeView: ResumeView
+ ConsoleView()
+ visit(ResumeController): void
+ visit(ProposalController): void
+ visit(StartController): void
}
mastermind.views.View <|-down- mastermind.views.console.ConsoleView
mastermind.views.console.ConsoleView *-down-> mastermind.views.console.ProposalView
mastermind.views.console.ConsoleView *-down-> mastermind.views.console.ResumeView
mastermind.views.console.ConsoleView *-down-> mastermind.views.console.StartView
mastermind.views.console.ConsoleView ..> mastermind.controllers.ResumeController
mastermind.views.console.ConsoleView ..> mastermind.controllers.StartController
mastermind.views.console.ConsoleView ..> mastermind.controllers.ProposalController

class  mastermind.views.console.ProposalView{
~ ProposalView()
~ interact(ProposalController): void
}
mastermind.utils.WithConsoleView <|-down- mastermind.views.console.ProposalView
mastermind.views.console.ProposalView ..> mastermind.controllers.ProposalController
mastermind.views.console.ProposalView ..> mastermind.views.console.SecretCombinationView
mastermind.views.console.ProposalView ..> mastermind.views.console.ProposedCombinationView
mastermind.views.console.ProposalView ..> mastermind.views.console.ResultView

class  mastermind.views.console.ProposedCombinationView{
- {static} ERROR_CODE: int
~ ProposedCombinationView()
~ write(int[]): void
~ read(): int[]
}
mastermind.utils.WithConsoleView <|-down- mastermind.views.console.ProposedCombinationView

class  mastermind.views.console.ResultView{
~ ResultView()
~ writeln(int[]): void
}
mastermind.utils.WithConsoleView <|-down- mastermind.views.console.ResultView

class  mastermind.views.console.ResumeView{
~ ResumeView()
~ interact(ResumeController): void
}
mastermind.views.console.ResumeView ..> mastermind.controllers.ResumeController

class  mastermind.views.console.SecretCombinationView{
~ SecretCombinationView()
~ writeln(int): void
}
mastermind.utils.WithConsoleView <|-down- mastermind.views.console.SecretCombinationView

class  mastermind.views.console.StartView{
~ StartView()
~ interact(StartController): void
}
mastermind.utils.WithConsoleView <|-down- mastermind.views.console.StartView
mastermind.views.console.StartView ..> mastermind.controllers.StartController

@enduml

PlantUML version 1.2019.05(Sat Apr 20 18:45:36 CEST 2019)
(GPL source distribution)
Java Runtime: OpenJDK Runtime Environment
JVM: OpenJDK 64-Bit Server VM
Java Version: 1.8.0_222-b10
Operating System: Windows 10
OS Version: 10.0
Default Encoding: windows-1252
Language: es
Country: ES
--></g></svg>