<?xml version="1.0" encoding="UTF-8" standalone="no"?><svg xmlns="http://www.w3.org/2000/svg" xmlns:xlink="http://www.w3.org/1999/xlink" contentScriptType="application/ecmascript" contentStyleType="text/css" height="440px" preserveAspectRatio="none" style="width:916px;height:440px;" version="1.1" viewBox="0 0 916 440" width="916px" zoomAndPan="magnify"><defs><filter height="300%" id="f9p52lfpa8qhh" width="300%" x="-1" y="-1"><feGaussianBlur result="blurOut" stdDeviation="2.0"/><feColorMatrix in="blurOut" result="blurOut2" type="matrix" values="0 0 0 0 0 0 0 0 0 0 0 0 0 0 0 0 0 0 .4 0"/><feOffset dx="4.0" dy="4.0" in="blurOut2" result="blurOut3"/><feBlend in="SourceGraphic" in2="blurOut3" mode="normal"/></filter></defs><g><!--cluster mastermind.views--><polygon fill="#FFFFFF" filter="url(#f9p52lfpa8qhh)" points="37,24,170,24,177,47.6094,894,47.6094,894,304,37,304,37,24" style="stroke: #000000; stroke-width: 1.5;"/><line style="stroke: #000000; stroke-width: 1.5;" x1="37" x2="177" y1="47.6094" y2="47.6094"/><text fill="#000000" font-family="sans-serif" font-size="14" font-weight="bold" lengthAdjust="spacingAndGlyphs" textLength="127" x="41" y="40.5332">mastermind.views</text><!--cluster mastermind.controllers--><polygon fill="#FFFFFF" filter="url(#f9p52lfpa8qhh)" points="22,328,191,328,198,351.6094,303,351.6094,303,428,22,428,22,328" style="stroke: #000000; stroke-width: 1.5;"/><line style="stroke: #000000; stroke-width: 1.5;" x1="22" x2="198" y1="351.6094" y2="351.6094"/><text fill="#000000" font-family="sans-serif" font-size="14" font-weight="bold" lengthAdjust="spacingAndGlyphs" textLength="163" x="26" y="344.5332">mastermind.controllers</text><!--class mastermind.views.Color--><rect fill="#FEFECE" filter="url(#f9p52lfpa8qhh)" height="227.8672" id="mastermind.views.Color" style="stroke: #A80036; stroke-width: 1.5;" width="143" x="716.5" y="60"/><ellipse cx="768.75" cy="76" fill="#ADD1B2" rx="11" ry="11" style="stroke: #A80036; stroke-width: 1.0;"/><path d="M771.5156,71.875 Q771.6719,71.6563 771.8594,71.5469 Q772.0469,71.4375 772.2656,71.4375 Q772.6406,71.4375 772.875,71.6953 Q773.1094,71.9531 773.1094,72.5625 L773.1094,74.0156 Q773.1094,74.625 772.875,74.8906 Q772.6406,75.1563 772.2656,75.1563 Q771.9219,75.1563 771.7188,74.9531 Q771.5156,74.7656 771.4063,74.25 Q771.3594,73.8906 771.1719,73.7031 Q770.8438,73.3281 770.2344,73.1094 Q769.625,72.8906 769,72.8906 Q768.2344,72.8906 767.6016,73.2188 Q766.9688,73.5469 766.4766,74.2969 Q765.9844,75.0469 765.9844,76.0781 L765.9844,77.1719 Q765.9844,78.4063 766.875,79.2266 Q767.7656,80.0469 769.3594,80.0469 Q770.2969,80.0469 770.9531,79.7969 Q771.3438,79.6406 771.7656,79.2031 Q772.0313,78.9375 772.1797,78.8594 Q772.3281,78.7813 772.5313,78.7813 Q772.8594,78.7813 773.1172,79.0391 Q773.375,79.2969 773.375,79.6406 Q773.375,79.9844 773.0313,80.3906 Q772.5313,80.9688 771.7344,81.2969 Q770.6563,81.75 769.3594,81.75 Q767.8438,81.75 766.6406,81.125 Q765.6563,80.625 764.9688,79.5547 Q764.2813,78.4844 764.2813,77.2031 L764.2813,76.0469 Q764.2813,74.7188 764.8984,73.5703 Q765.5156,72.4219 766.6094,71.8047 Q767.7031,71.1875 768.9375,71.1875 Q769.6719,71.1875 770.3203,71.3516 Q770.9688,71.5156 771.5156,71.875 Z "/><text fill="#000000" font-family="sans-serif" font-size="12" lengthAdjust="spacingAndGlyphs" textLength="30" x="789.25" y="80.9102">Color</text><line style="stroke: #A80036; stroke-width: 1.5;" x1="717.5" x2="858.5" y1="92" y2="92"/><ellipse cx="727.5" cy="104.418" fill="none" rx="3" ry="3" style="stroke: #038048; stroke-width: 1.0;"/><text fill="#000000" font-family="sans-serif" font-size="11" lengthAdjust="spacingAndGlyphs" text-decoration="underline" textLength="51" x="736.5" y="107.4189">RED: Color</text><ellipse cx="727.5" cy="118.2539" fill="none" rx="3" ry="3" style="stroke: #038048; stroke-width: 1.0;"/><text fill="#000000" font-family="sans-serif" font-size="11" lengthAdjust="spacingAndGlyphs" text-decoration="underline" textLength="57" x="736.5" y="121.2549">BLUE: Color</text><ellipse cx="727.5" cy="132.0898" fill="none" rx="3" ry="3" style="stroke: #038048; stroke-width: 1.0;"/><text fill="#000000" font-family="sans-serif" font-size="11" lengthAdjust="spacingAndGlyphs" text-decoration="underline" textLength="75" x="736.5" y="135.0908">YELLOW: Color</text><ellipse cx="727.5" cy="145.9258" fill="none" rx="3" ry="3" style="stroke: #038048; stroke-width: 1.0;"/><text fill="#000000" font-family="sans-serif" font-size="11" lengthAdjust="spacingAndGlyphs" text-decoration="underline" textLength="65" x="736.5" y="148.9268">GREEN: Color</text><ellipse cx="727.5" cy="159.7617" fill="none" rx="3" ry="3" style="stroke: #038048; stroke-width: 1.0;"/><text fill="#000000" font-family="sans-serif" font-size="11" lengthAdjust="spacingAndGlyphs" text-decoration="underline" textLength="75" x="736.5" y="162.7627">ORANGE: Color</text><ellipse cx="727.5" cy="173.5977" fill="none" rx="3" ry="3" style="stroke: #038048; stroke-width: 1.0;"/><text fill="#000000" font-family="sans-serif" font-size="11" lengthAdjust="spacingAndGlyphs" text-decoration="underline" textLength="69" x="736.5" y="176.5986">PURPLE: Color</text><rect fill="none" height="6" style="stroke: #C82930; stroke-width: 1.0;" width="6" x="724.5" y="184.4336"/><text fill="#000000" font-family="sans-serif" font-size="11" lengthAdjust="spacingAndGlyphs" textLength="51" x="736.5" y="190.4346">initial: char</text><line style="stroke: #A80036; stroke-width: 1.5;" x1="717.5" x2="858.5" y1="196.8516" y2="196.8516"/><rect fill="#F24D5C" height="6" style="stroke: #C82930; stroke-width: 1.0;" width="6" x="724.5" y="206.2695"/><text fill="#000000" font-family="sans-serif" font-size="11" lengthAdjust="spacingAndGlyphs" textLength="55" x="736.5" y="212.2705">Color(char)</text><ellipse cx="727.5" cy="223.1055" fill="#84BE84" rx="3" ry="3" style="stroke: #038048; stroke-width: 1.0;"/><text fill="#000000" font-family="sans-serif" font-size="11" lengthAdjust="spacingAndGlyphs" text-decoration="underline" textLength="105" x="736.5" y="226.1064">valueOf(String): Color</text><ellipse cx="727.5" cy="236.9414" fill="#84BE84" rx="3" ry="3" style="stroke: #038048; stroke-width: 1.0;"/><text fill="#000000" font-family="sans-serif" font-size="11" lengthAdjust="spacingAndGlyphs" text-decoration="underline" textLength="117" x="736.5" y="239.9424">getInstance(char): Color</text><ellipse cx="727.5" cy="250.7773" fill="#84BE84" rx="3" ry="3" style="stroke: #038048; stroke-width: 1.0;"/><text fill="#000000" font-family="sans-serif" font-size="11" lengthAdjust="spacingAndGlyphs" text-decoration="underline" textLength="106" x="736.5" y="253.7783">getInstance(int): Color</text><ellipse cx="727.5" cy="264.6133" fill="#84BE84" rx="3" ry="3" style="stroke: #038048; stroke-width: 1.0;"/><text fill="#000000" font-family="sans-serif" font-size="11" lengthAdjust="spacingAndGlyphs" textLength="74" x="736.5" y="267.6143">getInitial(): char</text><ellipse cx="727.5" cy="278.4492" fill="#84BE84" rx="3" ry="3" style="stroke: #038048; stroke-width: 1.0;"/><text fill="#000000" font-family="sans-serif" font-size="11" lengthAdjust="spacingAndGlyphs" text-decoration="underline" textLength="81" x="736.5" y="281.4502">allInitials(): String</text><!--class mastermind.views.Error--><rect fill="#FEFECE" filter="url(#f9p52lfpa8qhh)" height="144.8516" id="mastermind.views.Error" style="stroke: #A80036; stroke-width: 1.5;" width="172" x="491" y="101.5"/><ellipse cx="559.25" cy="117.5" fill="#ADD1B2" rx="11" ry="11" style="stroke: #A80036; stroke-width: 1.0;"/><path d="M562.0156,113.375 Q562.1719,113.1563 562.3594,113.0469 Q562.5469,112.9375 562.7656,112.9375 Q563.1406,112.9375 563.375,113.1953 Q563.6094,113.4531 563.6094,114.0625 L563.6094,115.5156 Q563.6094,116.125 563.375,116.3906 Q563.1406,116.6563 562.7656,116.6563 Q562.4219,116.6563 562.2188,116.4531 Q562.0156,116.2656 561.9063,115.75 Q561.8594,115.3906 561.6719,115.2031 Q561.3438,114.8281 560.7344,114.6094 Q560.125,114.3906 559.5,114.3906 Q558.7344,114.3906 558.1016,114.7188 Q557.4688,115.0469 556.9766,115.7969 Q556.4844,116.5469 556.4844,117.5781 L556.4844,118.6719 Q556.4844,119.9063 557.375,120.7266 Q558.2656,121.5469 559.8594,121.5469 Q560.7969,121.5469 561.4531,121.2969 Q561.8438,121.1406 562.2656,120.7031 Q562.5313,120.4375 562.6797,120.3594 Q562.8281,120.2813 563.0313,120.2813 Q563.3594,120.2813 563.6172,120.5391 Q563.875,120.7969 563.875,121.1406 Q563.875,121.4844 563.5313,121.8906 Q563.0313,122.4688 562.2344,122.7969 Q561.1563,123.25 559.8594,123.25 Q558.3438,123.25 557.1406,122.625 Q556.1563,122.125 555.4688,121.0547 Q554.7813,119.9844 554.7813,118.7031 L554.7813,117.5469 Q554.7813,116.2188 555.3984,115.0703 Q556.0156,113.9219 557.1094,113.3047 Q558.2031,112.6875 559.4375,112.6875 Q560.1719,112.6875 560.8203,112.8516 Q561.4688,113.0156 562.0156,113.375 Z "/><text fill="#000000" font-family="sans-serif" font-size="12" lengthAdjust="spacingAndGlyphs" textLength="27" x="579.75" y="122.4102">Error</text><line style="stroke: #A80036; stroke-width: 1.5;" x1="492" x2="662" y1="133.5" y2="133.5"/><ellipse cx="502" cy="145.918" fill="none" rx="3" ry="3" style="stroke: #038048; stroke-width: 1.0;"/><text fill="#000000" font-family="sans-serif" font-size="11" lengthAdjust="spacingAndGlyphs" text-decoration="underline" textLength="92" x="511" y="148.9189">DUPLICATED: Error</text><ellipse cx="502" cy="159.7539" fill="none" rx="3" ry="3" style="stroke: #038048; stroke-width: 1.0;"/><text fill="#000000" font-family="sans-serif" font-size="11" lengthAdjust="spacingAndGlyphs" text-decoration="underline" textLength="146" x="511" y="162.7549">WRONG_CHARACTERS: Error</text><ellipse cx="502" cy="173.5898" fill="none" rx="3" ry="3" style="stroke: #038048; stroke-width: 1.0;"/><text fill="#000000" font-family="sans-serif" font-size="11" lengthAdjust="spacingAndGlyphs" text-decoration="underline" textLength="116" x="511" y="176.5908">WRONG_LENGTH: Error</text><rect fill="none" height="6" style="stroke: #C82930; stroke-width: 1.0;" width="6" x="499" y="184.4258"/><text fill="#000000" font-family="sans-serif" font-size="11" lengthAdjust="spacingAndGlyphs" textLength="78" x="511" y="190.4268">message: String</text><line style="stroke: #A80036; stroke-width: 1.5;" x1="492" x2="662" y1="196.8438" y2="196.8438"/><rect fill="#F24D5C" height="6" style="stroke: #C82930; stroke-width: 1.0;" width="6" x="499" y="206.2617"/><text fill="#000000" font-family="sans-serif" font-size="11" lengthAdjust="spacingAndGlyphs" textLength="60" x="511" y="212.2627">Error(String)</text><ellipse cx="502" cy="223.0977" fill="#84BE84" rx="3" ry="3" style="stroke: #038048; stroke-width: 1.0;"/><text fill="#000000" font-family="sans-serif" font-size="11" lengthAdjust="spacingAndGlyphs" text-decoration="underline" textLength="104" x="511" y="226.0986">valueOf(String): Error</text><ellipse cx="502" cy="236.9336" fill="#84BE84" rx="3" ry="3" style="stroke: #038048; stroke-width: 1.0;"/><text fill="#000000" font-family="sans-serif" font-size="11" lengthAdjust="spacingAndGlyphs" textLength="101" x="511" y="239.9346">getMessage(): String</text><!--class mastermind.views.Message--><rect fill="#FEFECE" filter="url(#f9p52lfpa8qhh)" height="214.0313" id="mastermind.views.Message" style="stroke: #A80036; stroke-width: 1.5;" width="207" x="230.5" y="67"/><ellipse cx="304.25" cy="83" fill="#ADD1B2" rx="11" ry="11" style="stroke: #A80036; stroke-width: 1.0;"/><path d="M307.0156,78.875 Q307.1719,78.6563 307.3594,78.5469 Q307.5469,78.4375 307.7656,78.4375 Q308.1406,78.4375 308.375,78.6953 Q308.6094,78.9531 308.6094,79.5625 L308.6094,81.0156 Q308.6094,81.625 308.375,81.8906 Q308.1406,82.1563 307.7656,82.1563 Q307.4219,82.1563 307.2188,81.9531 Q307.0156,81.7656 306.9063,81.25 Q306.8594,80.8906 306.6719,80.7031 Q306.3438,80.3281 305.7344,80.1094 Q305.125,79.8906 304.5,79.8906 Q303.7344,79.8906 303.1016,80.2188 Q302.4688,80.5469 301.9766,81.2969 Q301.4844,82.0469 301.4844,83.0781 L301.4844,84.1719 Q301.4844,85.4063 302.375,86.2266 Q303.2656,87.0469 304.8594,87.0469 Q305.7969,87.0469 306.4531,86.7969 Q306.8438,86.6406 307.2656,86.2031 Q307.5313,85.9375 307.6797,85.8594 Q307.8281,85.7813 308.0313,85.7813 Q308.3594,85.7813 308.6172,86.0391 Q308.875,86.2969 308.875,86.6406 Q308.875,86.9844 308.5313,87.3906 Q308.0313,87.9688 307.2344,88.2969 Q306.1563,88.75 304.8594,88.75 Q303.3438,88.75 302.1406,88.125 Q301.1563,87.625 300.4688,86.5547 Q299.7813,85.4844 299.7813,84.2031 L299.7813,83.0469 Q299.7813,81.7188 300.3984,80.5703 Q301.0156,79.4219 302.1094,78.8047 Q303.2031,78.1875 304.4375,78.1875 Q305.1719,78.1875 305.8203,78.3516 Q306.4688,78.5156 307.0156,78.875 Z "/><text fill="#000000" font-family="sans-serif" font-size="12" lengthAdjust="spacingAndGlyphs" textLength="51" x="324.75" y="87.9102">Message</text><line style="stroke: #A80036; stroke-width: 1.5;" x1="231.5" x2="436.5" y1="99" y2="99"/><ellipse cx="241.5" cy="111.418" fill="none" rx="3" ry="3" style="stroke: #038048; stroke-width: 1.0;"/><text fill="#000000" font-family="sans-serif" font-size="11" lengthAdjust="spacingAndGlyphs" text-decoration="underline" textLength="77" x="250.5" y="114.4189">TURN: Message</text><ellipse cx="241.5" cy="125.2539" fill="none" rx="3" ry="3" style="stroke: #038048; stroke-width: 1.0;"/><text fill="#000000" font-family="sans-serif" font-size="11" lengthAdjust="spacingAndGlyphs" text-decoration="underline" textLength="89" x="250.5" y="128.2549">SECRET: Message</text><ellipse cx="241.5" cy="139.0898" fill="none" rx="3" ry="3" style="stroke: #038048; stroke-width: 1.0;"/><text fill="#000000" font-family="sans-serif" font-size="11" lengthAdjust="spacingAndGlyphs" text-decoration="underline" textLength="91" x="250.5" y="142.0908">RESUME: Message</text><ellipse cx="241.5" cy="152.9258" fill="none" rx="3" ry="3" style="stroke: #038048; stroke-width: 1.0;"/><text fill="#000000" font-family="sans-serif" font-size="11" lengthAdjust="spacingAndGlyphs" text-decoration="underline" textLength="89" x="250.5" y="155.9268">RESULT: Message</text><ellipse cx="241.5" cy="166.7617" fill="none" rx="3" ry="3" style="stroke: #038048; stroke-width: 1.0;"/><text fill="#000000" font-family="sans-serif" font-size="11" lengthAdjust="spacingAndGlyphs" text-decoration="underline" textLength="181" x="250.5" y="169.7627">PROPOSED_COMBINATION: Message</text><ellipse cx="241.5" cy="180.5977" fill="none" rx="3" ry="3" style="stroke: #038048; stroke-width: 1.0;"/><text fill="#000000" font-family="sans-serif" font-size="11" lengthAdjust="spacingAndGlyphs" text-decoration="underline" textLength="76" x="250.5" y="183.5986">TITLE: Message</text><ellipse cx="241.5" cy="194.4336" fill="none" rx="3" ry="3" style="stroke: #038048; stroke-width: 1.0;"/><text fill="#000000" font-family="sans-serif" font-size="11" lengthAdjust="spacingAndGlyphs" text-decoration="underline" textLength="89" x="250.5" y="197.4346">WINNER: Message</text><ellipse cx="241.5" cy="208.2695" fill="none" rx="3" ry="3" style="stroke: #038048; stroke-width: 1.0;"/><text fill="#000000" font-family="sans-serif" font-size="11" lengthAdjust="spacingAndGlyphs" text-decoration="underline" textLength="92" x="250.5" y="211.2705">LOOSER: Message</text><rect fill="none" height="6" style="stroke: #C82930; stroke-width: 1.0;" width="6" x="238.5" y="219.1055"/><text fill="#000000" font-family="sans-serif" font-size="11" lengthAdjust="spacingAndGlyphs" textLength="78" x="250.5" y="225.1064">message: String</text><line style="stroke: #A80036; stroke-width: 1.5;" x1="231.5" x2="436.5" y1="231.5234" y2="231.5234"/><rect fill="#F24D5C" height="6" style="stroke: #C82930; stroke-width: 1.0;" width="6" x="238.5" y="240.9414"/><text fill="#000000" font-family="sans-serif" font-size="11" lengthAdjust="spacingAndGlyphs" textLength="80" x="250.5" y="246.9424">Message(String)</text><ellipse cx="241.5" cy="257.7773" fill="#84BE84" rx="3" ry="3" style="stroke: #038048; stroke-width: 1.0;"/><text fill="#000000" font-family="sans-serif" font-size="11" lengthAdjust="spacingAndGlyphs" text-decoration="underline" textLength="124" x="250.5" y="260.7783">valueOf(String): Message</text><ellipse cx="241.5" cy="271.6133" fill="#84BE84" rx="3" ry="3" style="stroke: #038048; stroke-width: 1.0;"/><text fill="#000000" font-family="sans-serif" font-size="11" lengthAdjust="spacingAndGlyphs" textLength="101" x="250.5" y="274.6143">getMessage(): String</text><!--class mastermind.views.View--><rect fill="#FEFECE" filter="url(#f9p52lfpa8qhh)" height="75.6719" id="mastermind.views.View" style="stroke: #A80036; stroke-width: 1.5;" width="142" x="53" y="136"/><ellipse cx="106.75" cy="152" fill="#ADD1B2" rx="11" ry="11" style="stroke: #A80036; stroke-width: 1.0;"/><path d="M109.5156,147.875 Q109.6719,147.6563 109.8594,147.5469 Q110.0469,147.4375 110.2656,147.4375 Q110.6406,147.4375 110.875,147.6953 Q111.1094,147.9531 111.1094,148.5625 L111.1094,150.0156 Q111.1094,150.625 110.875,150.8906 Q110.6406,151.1563 110.2656,151.1563 Q109.9219,151.1563 109.7188,150.9531 Q109.5156,150.7656 109.4063,150.25 Q109.3594,149.8906 109.1719,149.7031 Q108.8438,149.3281 108.2344,149.1094 Q107.625,148.8906 107,148.8906 Q106.2344,148.8906 105.6016,149.2188 Q104.9688,149.5469 104.4766,150.2969 Q103.9844,151.0469 103.9844,152.0781 L103.9844,153.1719 Q103.9844,154.4063 104.875,155.2266 Q105.7656,156.0469 107.3594,156.0469 Q108.2969,156.0469 108.9531,155.7969 Q109.3438,155.6406 109.7656,155.2031 Q110.0313,154.9375 110.1797,154.8594 Q110.3281,154.7813 110.5313,154.7813 Q110.8594,154.7813 111.1172,155.0391 Q111.375,155.2969 111.375,155.6406 Q111.375,155.9844 111.0313,156.3906 Q110.5313,156.9688 109.7344,157.2969 Q108.6563,157.75 107.3594,157.75 Q105.8438,157.75 104.6406,157.125 Q103.6563,156.625 102.9688,155.5547 Q102.2813,154.4844 102.2813,153.2031 L102.2813,152.0469 Q102.2813,150.7188 102.8984,149.5703 Q103.5156,148.4219 104.6094,147.8047 Q105.7031,147.1875 106.9375,147.1875 Q107.6719,147.1875 108.3203,147.3516 Q108.9688,147.5156 109.5156,147.875 Z "/><text fill="#000000" font-family="sans-serif" font-size="12" lengthAdjust="spacingAndGlyphs" textLength="26" x="127.25" y="156.9102">View</text><line style="stroke: #A80036; stroke-width: 1.5;" x1="54" x2="194" y1="168" y2="168"/><line style="stroke: #A80036; stroke-width: 1.5;" x1="54" x2="194" y1="176" y2="176"/><ellipse cx="64" cy="188.418" fill="#84BE84" rx="3" ry="3" style="stroke: #038048; stroke-width: 1.0;"/><text fill="#000000" font-family="sans-serif" font-size="11" lengthAdjust="spacingAndGlyphs" textLength="34" x="73" y="191.4189">View()</text><ellipse cx="64" cy="202.2539" fill="#84BE84" rx="3" ry="3" style="stroke: #038048; stroke-width: 1.0;"/><text fill="#000000" font-family="sans-serif" font-size="11" lengthAdjust="spacingAndGlyphs" textLength="116" x="73" y="205.2549">interact(Controller): void</text><!--class mastermind.controllers.ControllersVisitor--><rect fill="#FEFECE" filter="url(#f9p52lfpa8qhh)" height="48" id="mastermind.controllers.ControllersVisitor" style="stroke: #A80036; stroke-width: 1.5;" width="127" x="159.5" y="364"/><ellipse cx="174.5" cy="380" fill="#ADD1B2" rx="11" ry="11" style="stroke: #A80036; stroke-width: 1.0;"/><path d="M177.2656,375.875 Q177.4219,375.6563 177.6094,375.5469 Q177.7969,375.4375 178.0156,375.4375 Q178.3906,375.4375 178.625,375.6953 Q178.8594,375.9531 178.8594,376.5625 L178.8594,378.0156 Q178.8594,378.625 178.625,378.8906 Q178.3906,379.1563 178.0156,379.1563 Q177.6719,379.1563 177.4688,378.9531 Q177.2656,378.7656 177.1563,378.25 Q177.1094,377.8906 176.9219,377.7031 Q176.5938,377.3281 175.9844,377.1094 Q175.375,376.8906 174.75,376.8906 Q173.9844,376.8906 173.3516,377.2188 Q172.7188,377.5469 172.2266,378.2969 Q171.7344,379.0469 171.7344,380.0781 L171.7344,381.1719 Q171.7344,382.4063 172.625,383.2266 Q173.5156,384.0469 175.1094,384.0469 Q176.0469,384.0469 176.7031,383.7969 Q177.0938,383.6406 177.5156,383.2031 Q177.7813,382.9375 177.9297,382.8594 Q178.0781,382.7813 178.2813,382.7813 Q178.6094,382.7813 178.8672,383.0391 Q179.125,383.2969 179.125,383.6406 Q179.125,383.9844 178.7813,384.3906 Q178.2813,384.9688 177.4844,385.2969 Q176.4063,385.75 175.1094,385.75 Q173.5938,385.75 172.3906,385.125 Q171.4063,384.625 170.7188,383.5547 Q170.0313,382.4844 170.0313,381.2031 L170.0313,380.0469 Q170.0313,378.7188 170.6484,377.5703 Q171.2656,376.4219 172.3594,375.8047 Q173.4531,375.1875 174.6875,375.1875 Q175.4219,375.1875 176.0703,375.3516 Q176.7188,375.5156 177.2656,375.875 Z "/><text fill="#000000" font-family="sans-serif" font-size="12" lengthAdjust="spacingAndGlyphs" textLength="95" x="188.5" y="384.9102">ControllersVisitor</text><line style="stroke: #A80036; stroke-width: 1.5;" x1="160.5" x2="285.5" y1="396" y2="396"/><line style="stroke: #A80036; stroke-width: 1.5;" x1="160.5" x2="285.5" y1="404" y2="404"/><!--class mastermind.controllers.Controller--><rect fill="#FEFECE" filter="url(#f9p52lfpa8qhh)" height="48" id="mastermind.controllers.Controller" style="stroke: #A80036; stroke-width: 1.5;" width="86" x="38" y="364"/><ellipse cx="53" cy="380" fill="#ADD1B2" rx="11" ry="11" style="stroke: #A80036; stroke-width: 1.0;"/><path d="M55.7656,375.875 Q55.9219,375.6563 56.1094,375.5469 Q56.2969,375.4375 56.5156,375.4375 Q56.8906,375.4375 57.125,375.6953 Q57.3594,375.9531 57.3594,376.5625 L57.3594,378.0156 Q57.3594,378.625 57.125,378.8906 Q56.8906,379.1563 56.5156,379.1563 Q56.1719,379.1563 55.9688,378.9531 Q55.7656,378.7656 55.6563,378.25 Q55.6094,377.8906 55.4219,377.7031 Q55.0938,377.3281 54.4844,377.1094 Q53.875,376.8906 53.25,376.8906 Q52.4844,376.8906 51.8516,377.2188 Q51.2188,377.5469 50.7266,378.2969 Q50.2344,379.0469 50.2344,380.0781 L50.2344,381.1719 Q50.2344,382.4063 51.125,383.2266 Q52.0156,384.0469 53.6094,384.0469 Q54.5469,384.0469 55.2031,383.7969 Q55.5938,383.6406 56.0156,383.2031 Q56.2813,382.9375 56.4297,382.8594 Q56.5781,382.7813 56.7813,382.7813 Q57.1094,382.7813 57.3672,383.0391 Q57.625,383.2969 57.625,383.6406 Q57.625,383.9844 57.2813,384.3906 Q56.7813,384.9688 55.9844,385.2969 Q54.9063,385.75 53.6094,385.75 Q52.0938,385.75 50.8906,385.125 Q49.9063,384.625 49.2188,383.5547 Q48.5313,382.4844 48.5313,381.2031 L48.5313,380.0469 Q48.5313,378.7188 49.1484,377.5703 Q49.7656,376.4219 50.8594,375.8047 Q51.9531,375.1875 53.1875,375.1875 Q53.9219,375.1875 54.5703,375.3516 Q55.2188,375.5156 55.7656,375.875 Z "/><text fill="#000000" font-family="sans-serif" font-size="12" lengthAdjust="spacingAndGlyphs" textLength="54" x="67" y="384.9102">Controller</text><line style="stroke: #A80036; stroke-width: 1.5;" x1="39" x2="123" y1="396" y2="396"/><line style="stroke: #A80036; stroke-width: 1.5;" x1="39" x2="123" y1="404" y2="404"/><!--link mastermind.views.Color to mastermind.views.Color--><path d="M859.675,134.12 C879.415,136.046 894.5,149.34 894.5,174 C894.5,196.541 881.896,209.585 864.655,213.132 " fill="none" id="mastermind.views.Color-mastermind.views.Color" style="stroke: #A80036; stroke-width: 1.0; stroke-dasharray: 7.0,7.0;"/><polygon fill="#A80036" points="859.675,213.88,869.1702,216.4957,864.6193,213.1357,867.9793,208.5848,859.675,213.88" style="stroke: #A80036; stroke-width: 1.0;"/><!--link mastermind.views.Error to mastermind.views.Error--><path d="M663.194,134.713 C683.241,138.021 698,151.116 698,174 C698,194.917 685.669,207.656 668.239,212.217 " fill="none" id="mastermind.views.Error-mastermind.views.Error" style="stroke: #A80036; stroke-width: 1.0; stroke-dasharray: 7.0,7.0;"/><polygon fill="#A80036" points="663.194,213.287,672.828,215.3332,668.0853,212.2499,671.1686,207.5072,663.194,213.287" style="stroke: #A80036; stroke-width: 1.0;"/><!--link mastermind.views.Message to mastermind.views.Message--><path d="M437.588,135.595 C457.985,139.986 472.5,152.788 472.5,174 C472.5,193.389 460.373,205.751 442.711,211.087 " fill="none" id="mastermind.views.Message-mastermind.views.Message" style="stroke: #A80036; stroke-width: 1.0; stroke-dasharray: 7.0,7.0;"/><polygon fill="#A80036" points="437.588,212.405,447.3007,214.0368,442.4304,211.1594,445.3078,206.289,437.588,212.405" style="stroke: #A80036; stroke-width: 1.0;"/><!--link mastermind.controllers.ControllersVisitor to mastermind.views.View--><path d="M203.564,345.38 C185.51,306.719 158.867,249.664 141.471,212.413 " fill="none" id="mastermind.controllers.ControllersVisitor-mastermind.views.View" style="stroke: #A80036; stroke-width: 1.0;"/><polygon fill="none" points="210.008,342.635,212.128,363.7186,197.323,348.5589,210.008,342.635" style="stroke: #A80036; stroke-width: 1.0;"/><!--link mastermind.views.View to mastermind.controllers.Controller--><path d="M116.411,212.413 C107.955,254.107 94.466,320.61 86.8084,358.3633 " fill="none" id="mastermind.views.View-mastermind.controllers.Controller" style="stroke: #A80036; stroke-width: 1.0; stroke-dasharray: 7.0,7.0;"/><polygon fill="#A80036" points="85.7222,363.7186,91.4316,355.6935,86.7162,358.8184,83.5913,354.103,85.7222,363.7186" style="stroke: #A80036; stroke-width: 1.0;"/><!--
@startuml

class  mastermind.views.Color{
+ {static} RED: Color
+ {static} BLUE: Color
+ {static} YELLOW: Color
+ {static} GREEN: Color
+ {static} ORANGE: Color
+ {static} PURPLE: Color
- initial: char
- Color(char)
+ {static} valueOf(String): Color
+ {static} getInstance(char): Color
+ {static} getInstance(int): Color
+ getInitial(): char
+ {static} allInitials(): String
}
mastermind.views.Color ..> mastermind.views.Color

class  mastermind.views.Error{
+ {static} DUPLICATED: Error
+ {static} WRONG_CHARACTERS: Error
+ {static} WRONG_LENGTH: Error
- message: String
- Error(String)
+ {static} valueOf(String): Error
+ getMessage(): String
}
mastermind.views.Error ..> mastermind.views.Error

class  mastermind.views.Message{
+ {static} TURN: Message
+ {static} SECRET: Message
+ {static} RESUME: Message
+ {static} RESULT: Message
+ {static} PROPOSED_COMBINATION: Message
+ {static} TITLE: Message
+ {static} WINNER: Message
+ {static} LOOSER: Message
- message: String
- Message(String)
+ {static} valueOf(String): Message
+ getMessage(): String
}
mastermind.views.Message ..> mastermind.views.Message

class  mastermind.views.View{
+ View()
+ interact(Controller): void
}
mastermind.controllers.ControllersVisitor <|-down- mastermind.views.View
mastermind.views.View ..> mastermind.controllers.Controller

@enduml

PlantUML version 1.2019.05(Sat Apr 20 18:45:36 CEST 2019)
(GPL source distribution)
Java Runtime: OpenJDK Runtime Environment
JVM: OpenJDK 64-Bit Server VM
Java Version: 1.8.0_222-b10
Operating System: Windows 10
OS Version: 10.0
Default Encoding: windows-1252
Language: es
Country: ES
--></g></svg>