<?xml version="1.0" encoding="UTF-8" standalone="no"?><svg xmlns="http://www.w3.org/2000/svg" xmlns:xlink="http://www.w3.org/1999/xlink" contentScriptType="application/ecmascript" contentStyleType="text/css" height="960px" preserveAspectRatio="none" style="width:1845px;height:960px;" version="1.1" viewBox="0 0 1845 960" width="1845px" zoomAndPan="magnify"><defs><filter height="300%" id="f1eu6m9dr87btn" width="300%" x="-1" y="-1"><feGaussianBlur result="blurOut" stdDeviation="2.0"/><feColorMatrix in="blurOut" result="blurOut2" type="matrix" values="0 0 0 0 0 0 0 0 0 0 0 0 0 0 0 0 0 0 .4 0"/><feOffset dx="4.0" dy="4.0" in="blurOut2" result="blurOut3"/><feBlend in="SourceGraphic" in2="blurOut3" mode="normal"/></filter></defs><g><!--cluster mastermind.views.graphics--><polygon fill="#FFFFFF" filter="url(#f1eu6m9dr87btn)" points="720,148,918,148,925,171.6094,1760,171.6094,1760,824,720,824,720,148" style="stroke: #000000; stroke-width: 1.5;"/><line style="stroke: #000000; stroke-width: 1.5;" x1="720" x2="925" y1="171.6094" y2="171.6094"/><text fill="#000000" font-family="sans-serif" font-size="14" font-weight="bold" lengthAdjust="spacingAndGlyphs" textLength="192" x="724" y="164.5332">mastermind.views.graphics</text><!--cluster java.awt--><polygon fill="#FFFFFF" filter="url(#f1eu6m9dr87btn)" points="1379,24,1442,24,1449,47.6094,1553,47.6094,1553,124,1379,124,1379,24" style="stroke: #000000; stroke-width: 1.5;"/><line style="stroke: #000000; stroke-width: 1.5;" x1="1379" x2="1449" y1="47.6094" y2="47.6094"/><text fill="#000000" font-family="sans-serif" font-size="14" font-weight="bold" lengthAdjust="spacingAndGlyphs" textLength="57" x="1383" y="40.5332">java.awt</text><!--cluster javax.swing--><polygon fill="#FFFFFF" filter="url(#f1eu6m9dr87btn)" points="22,387.5,110,387.5,117,411.1094,696,411.1094,696,487.5,22,487.5,22,387.5" style="stroke: #000000; stroke-width: 1.5;"/><line style="stroke: #000000; stroke-width: 1.5;" x1="22" x2="117" y1="411.1094" y2="411.1094"/><text fill="#000000" font-family="sans-serif" font-size="14" font-weight="bold" lengthAdjust="spacingAndGlyphs" textLength="82" x="26" y="404.0332">javax.swing</text><!--cluster mastermind.controllers--><polygon fill="#FFFFFF" filter="url(#f1eu6m9dr87btn)" points="1339,848,1508,848,1515,871.6094,1823,871.6094,1823,948,1339,948,1339,848" style="stroke: #000000; stroke-width: 1.5;"/><line style="stroke: #000000; stroke-width: 1.5;" x1="1339" x2="1515" y1="871.6094" y2="871.6094"/><text fill="#000000" font-family="sans-serif" font-size="14" font-weight="bold" lengthAdjust="spacingAndGlyphs" textLength="163" x="1343" y="864.5332">mastermind.controllers</text><!--cluster mastermind.views--><polygon fill="#FFFFFF" filter="url(#f1eu6m9dr87btn)" points="1596,24,1729,24,1736,47.6094,1739,47.6094,1739,124,1596,124,1596,24" style="stroke: #000000; stroke-width: 1.5;"/><line style="stroke: #000000; stroke-width: 1.5;" x1="1596" x2="1736" y1="47.6094" y2="47.6094"/><text fill="#000000" font-family="sans-serif" font-size="14" font-weight="bold" lengthAdjust="spacingAndGlyphs" textLength="127" x="1600" y="40.5332">mastermind.views</text><!--cluster java.awt.event--><polygon fill="#FFFFFF" filter="url(#f1eu6m9dr87btn)" points="584,848,692,848,699,871.6094,1106,871.6094,1106,948,584,948,584,848" style="stroke: #000000; stroke-width: 1.5;"/><line style="stroke: #000000; stroke-width: 1.5;" x1="584" x2="699" y1="871.6094" y2="871.6094"/><text fill="#000000" font-family="sans-serif" font-size="14" font-weight="bold" lengthAdjust="spacingAndGlyphs" textLength="102" x="588" y="864.5332">java.awt.event</text><!--class mastermind.views.graphics.Constraints--><rect fill="#FEFECE" filter="url(#f1eu6m9dr87btn)" height="61.8359" id="mastermind.views.graphics.Constraints" style="stroke: #A80036; stroke-width: 1.5;" width="151" x="1390.5" y="211.5"/><ellipse cx="1430.25" cy="227.5" fill="#ADD1B2" rx="11" ry="11" style="stroke: #A80036; stroke-width: 1.0;"/><path d="M1433.0156,223.375 Q1433.1719,223.1563 1433.3594,223.0469 Q1433.5469,222.9375 1433.7656,222.9375 Q1434.1406,222.9375 1434.375,223.1953 Q1434.6094,223.4531 1434.6094,224.0625 L1434.6094,225.5156 Q1434.6094,226.125 1434.375,226.3906 Q1434.1406,226.6563 1433.7656,226.6563 Q1433.4219,226.6563 1433.2188,226.4531 Q1433.0156,226.2656 1432.9063,225.75 Q1432.8594,225.3906 1432.6719,225.2031 Q1432.3438,224.8281 1431.7344,224.6094 Q1431.125,224.3906 1430.5,224.3906 Q1429.7344,224.3906 1429.1016,224.7188 Q1428.4688,225.0469 1427.9766,225.7969 Q1427.4844,226.5469 1427.4844,227.5781 L1427.4844,228.6719 Q1427.4844,229.9063 1428.375,230.7266 Q1429.2656,231.5469 1430.8594,231.5469 Q1431.7969,231.5469 1432.4531,231.2969 Q1432.8438,231.1406 1433.2656,230.7031 Q1433.5313,230.4375 1433.6797,230.3594 Q1433.8281,230.2813 1434.0313,230.2813 Q1434.3594,230.2813 1434.6172,230.5391 Q1434.875,230.7969 1434.875,231.1406 Q1434.875,231.4844 1434.5313,231.8906 Q1434.0313,232.4688 1433.2344,232.7969 Q1432.1563,233.25 1430.8594,233.25 Q1429.3438,233.25 1428.1406,232.625 Q1427.1563,232.125 1426.4688,231.0547 Q1425.7813,229.9844 1425.7813,228.7031 L1425.7813,227.5469 Q1425.7813,226.2188 1426.3984,225.0703 Q1427.0156,223.9219 1428.1094,223.3047 Q1429.2031,222.6875 1430.4375,222.6875 Q1431.1719,222.6875 1431.8203,222.8516 Q1432.4688,223.0156 1433.0156,223.375 Z "/><text fill="#000000" font-family="sans-serif" font-size="12" lengthAdjust="spacingAndGlyphs" textLength="64" x="1449.75" y="232.4102">Constraints</text><line style="stroke: #A80036; stroke-width: 1.5;" x1="1391.5" x2="1540.5" y1="243.5" y2="243.5"/><line style="stroke: #A80036; stroke-width: 1.5;" x1="1391.5" x2="1540.5" y1="251.5" y2="251.5"/><polygon fill="#4177AF" points="1401.5,259.918,1397.5,265.918,1405.5,265.918" style="stroke: #1963A0; stroke-width: 1.0;"/><text fill="#000000" font-family="sans-serif" font-size="11" lengthAdjust="spacingAndGlyphs" textLength="125" x="1410.5" y="266.9189">Constraints(int, int, int, int)</text><!--class mastermind.views.graphics.GameView--><rect fill="#FEFECE" filter="url(#f1eu6m9dr87btn)" height="172.5234" id="mastermind.views.graphics.GameView" style="stroke: #A80036; stroke-width: 1.5;" width="304" x="1125" y="361"/><ellipse cx="1242.75" cy="377" fill="#ADD1B2" rx="11" ry="11" style="stroke: #A80036; stroke-width: 1.0;"/><path d="M1245.5156,372.875 Q1245.6719,372.6563 1245.8594,372.5469 Q1246.0469,372.4375 1246.2656,372.4375 Q1246.6406,372.4375 1246.875,372.6953 Q1247.1094,372.9531 1247.1094,373.5625 L1247.1094,375.0156 Q1247.1094,375.625 1246.875,375.8906 Q1246.6406,376.1563 1246.2656,376.1563 Q1245.9219,376.1563 1245.7188,375.9531 Q1245.5156,375.7656 1245.4063,375.25 Q1245.3594,374.8906 1245.1719,374.7031 Q1244.8438,374.3281 1244.2344,374.1094 Q1243.625,373.8906 1243,373.8906 Q1242.2344,373.8906 1241.6016,374.2188 Q1240.9688,374.5469 1240.4766,375.2969 Q1239.9844,376.0469 1239.9844,377.0781 L1239.9844,378.1719 Q1239.9844,379.4063 1240.875,380.2266 Q1241.7656,381.0469 1243.3594,381.0469 Q1244.2969,381.0469 1244.9531,380.7969 Q1245.3438,380.6406 1245.7656,380.2031 Q1246.0313,379.9375 1246.1797,379.8594 Q1246.3281,379.7813 1246.5313,379.7813 Q1246.8594,379.7813 1247.1172,380.0391 Q1247.375,380.2969 1247.375,380.6406 Q1247.375,380.9844 1247.0313,381.3906 Q1246.5313,381.9688 1245.7344,382.2969 Q1244.6563,382.75 1243.3594,382.75 Q1241.8438,382.75 1240.6406,382.125 Q1239.6563,381.625 1238.9688,380.5547 Q1238.2813,379.4844 1238.2813,378.2031 L1238.2813,377.0469 Q1238.2813,375.7188 1238.8984,374.5703 Q1239.5156,373.4219 1240.6094,372.8047 Q1241.7031,372.1875 1242.9375,372.1875 Q1243.6719,372.1875 1244.3203,372.3516 Q1244.9688,372.5156 1245.5156,372.875 Z "/><text fill="#000000" font-family="sans-serif" font-size="12" lengthAdjust="spacingAndGlyphs" textLength="60" x="1263.25" y="381.9102">GameView</text><line style="stroke: #A80036; stroke-width: 1.5;" x1="1126" x2="1428" y1="393" y2="393"/><rect fill="none" height="6" style="stroke: #C82930; stroke-width: 1.0;" width="6" x="1133" y="402.418"/><text fill="#000000" font-family="sans-serif" font-size="11" lengthAdjust="spacingAndGlyphs" text-decoration="underline" textLength="99" x="1145" y="408.4189">GAME_OVER: String</text><rect fill="none" height="6" style="stroke: #C82930; stroke-width: 1.0;" width="6" x="1133" y="416.2539"/><text fill="#000000" font-family="sans-serif" font-size="11" lengthAdjust="spacingAndGlyphs" textLength="237" x="1145" y="422.2549">secretCombinationView: SecretCombinationView</text><rect fill="none" height="6" style="stroke: #C82930; stroke-width: 1.0;" width="6" x="1133" y="430.0898"/><text fill="#000000" font-family="sans-serif" font-size="11" lengthAdjust="spacingAndGlyphs" textLength="278" x="1145" y="436.0908">proposedCombinationsView: ProposedCombinationsView</text><rect fill="none" height="6" style="stroke: #C82930; stroke-width: 1.0;" width="6" x="1133" y="443.9258"/><text fill="#000000" font-family="sans-serif" font-size="11" lengthAdjust="spacingAndGlyphs" textLength="258" x="1145" y="449.9268">proposalCombinationView: ProposalCombinationView</text><line style="stroke: #A80036; stroke-width: 1.5;" x1="1126" x2="1428" y1="456.3438" y2="456.3438"/><polygon fill="#4177AF" points="1136,464.7617,1132,470.7617,1140,470.7617" style="stroke: #1963A0; stroke-width: 1.0;"/><text fill="#000000" font-family="sans-serif" font-size="11" lengthAdjust="spacingAndGlyphs" textLength="62" x="1145" y="471.7627">GameView()</text><rect fill="#F24D5C" height="6" style="stroke: #C82930; stroke-width: 1.0;" width="6" x="1133" y="479.5977"/><text fill="#000000" font-family="sans-serif" font-size="11" lengthAdjust="spacingAndGlyphs" textLength="58" x="1145" y="485.5986">clear(): void</text><polygon fill="#4177AF" points="1136,492.4336,1132,498.4336,1140,498.4336" style="stroke: #1963A0; stroke-width: 1.0;"/><text fill="#000000" font-family="sans-serif" font-size="11" lengthAdjust="spacingAndGlyphs" textLength="139" x="1145" y="499.4346">interact(StartController): void</text><polygon fill="#4177AF" points="1136,506.2695,1132,512.2695,1140,512.2695" style="stroke: #1963A0; stroke-width: 1.0;"/><text fill="#000000" font-family="sans-serif" font-size="11" lengthAdjust="spacingAndGlyphs" textLength="158" x="1145" y="513.2705">interact(ProposalController): void</text><rect fill="#F24D5C" height="6" style="stroke: #C82930; stroke-width: 1.0;" width="6" x="1133" y="521.1055"/><text fill="#000000" font-family="sans-serif" font-size="11" lengthAdjust="spacingAndGlyphs" textLength="200" x="1145" y="527.1064">drawGameOver(ProposalController): void</text><!--class mastermind.views.graphics.ProposedCombinationsView--><rect fill="#FEFECE" filter="url(#f1eu6m9dr87btn)" height="75.6719" id="mastermind.views.graphics.ProposedCombinationsView" style="stroke: #A80036; stroke-width: 1.5;" width="190" x="1182" y="663"/><ellipse cx="1197" cy="679" fill="#ADD1B2" rx="11" ry="11" style="stroke: #A80036; stroke-width: 1.0;"/><path d="M1199.7656,674.875 Q1199.9219,674.6563 1200.1094,674.5469 Q1200.2969,674.4375 1200.5156,674.4375 Q1200.8906,674.4375 1201.125,674.6953 Q1201.3594,674.9531 1201.3594,675.5625 L1201.3594,677.0156 Q1201.3594,677.625 1201.125,677.8906 Q1200.8906,678.1563 1200.5156,678.1563 Q1200.1719,678.1563 1199.9688,677.9531 Q1199.7656,677.7656 1199.6563,677.25 Q1199.6094,676.8906 1199.4219,676.7031 Q1199.0938,676.3281 1198.4844,676.1094 Q1197.875,675.8906 1197.25,675.8906 Q1196.4844,675.8906 1195.8516,676.2188 Q1195.2188,676.5469 1194.7266,677.2969 Q1194.2344,678.0469 1194.2344,679.0781 L1194.2344,680.1719 Q1194.2344,681.4063 1195.125,682.2266 Q1196.0156,683.0469 1197.6094,683.0469 Q1198.5469,683.0469 1199.2031,682.7969 Q1199.5938,682.6406 1200.0156,682.2031 Q1200.2813,681.9375 1200.4297,681.8594 Q1200.5781,681.7813 1200.7813,681.7813 Q1201.1094,681.7813 1201.3672,682.0391 Q1201.625,682.2969 1201.625,682.6406 Q1201.625,682.9844 1201.2813,683.3906 Q1200.7813,683.9688 1199.9844,684.2969 Q1198.9063,684.75 1197.6094,684.75 Q1196.0938,684.75 1194.8906,684.125 Q1193.9063,683.625 1193.2188,682.5547 Q1192.5313,681.4844 1192.5313,680.2031 L1192.5313,679.0469 Q1192.5313,677.7188 1193.1484,676.5703 Q1193.7656,675.4219 1194.8594,674.8047 Q1195.9531,674.1875 1197.1875,674.1875 Q1197.9219,674.1875 1198.5703,674.3516 Q1199.2188,674.5156 1199.7656,674.875 Z "/><text fill="#000000" font-family="sans-serif" font-size="12" lengthAdjust="spacingAndGlyphs" textLength="158" x="1211" y="683.9102">ProposedCombinationsView</text><line style="stroke: #A80036; stroke-width: 1.5;" x1="1183" x2="1371" y1="695" y2="695"/><line style="stroke: #A80036; stroke-width: 1.5;" x1="1183" x2="1371" y1="703" y2="703"/><polygon fill="#4177AF" points="1193,711.418,1189,717.418,1197,717.418" style="stroke: #1963A0; stroke-width: 1.0;"/><text fill="#000000" font-family="sans-serif" font-size="11" lengthAdjust="spacingAndGlyphs" textLength="144" x="1202" y="718.4189">ProposedCombinationsView()</text><polygon fill="#4177AF" points="1193,725.2539,1189,731.2539,1197,731.2539" style="stroke: #1963A0; stroke-width: 1.0;"/><text fill="#000000" font-family="sans-serif" font-size="11" lengthAdjust="spacingAndGlyphs" textLength="140" x="1202" y="732.2549">add(ProposalController): void</text><!--class mastermind.views.graphics.SecretCombinationView--><rect fill="#FEFECE" filter="url(#f1eu6m9dr87btn)" height="103.3438" id="mastermind.views.graphics.SecretCombinationView" style="stroke: #A80036; stroke-width: 1.5;" width="164" x="983" y="649.5"/><ellipse cx="998" cy="665.5" fill="#ADD1B2" rx="11" ry="11" style="stroke: #A80036; stroke-width: 1.0;"/><path d="M1000.7656,661.375 Q1000.9219,661.1563 1001.1094,661.0469 Q1001.2969,660.9375 1001.5156,660.9375 Q1001.8906,660.9375 1002.125,661.1953 Q1002.3594,661.4531 1002.3594,662.0625 L1002.3594,663.5156 Q1002.3594,664.125 1002.125,664.3906 Q1001.8906,664.6563 1001.5156,664.6563 Q1001.1719,664.6563 1000.9688,664.4531 Q1000.7656,664.2656 1000.6563,663.75 Q1000.6094,663.3906 1000.4219,663.2031 Q1000.0938,662.8281 999.4844,662.6094 Q998.875,662.3906 998.25,662.3906 Q997.4844,662.3906 996.8516,662.7188 Q996.2188,663.0469 995.7266,663.7969 Q995.2344,664.5469 995.2344,665.5781 L995.2344,666.6719 Q995.2344,667.9063 996.125,668.7266 Q997.0156,669.5469 998.6094,669.5469 Q999.5469,669.5469 1000.2031,669.2969 Q1000.5938,669.1406 1001.0156,668.7031 Q1001.2813,668.4375 1001.4297,668.3594 Q1001.5781,668.2813 1001.7813,668.2813 Q1002.1094,668.2813 1002.3672,668.5391 Q1002.625,668.7969 1002.625,669.1406 Q1002.625,669.4844 1002.2813,669.8906 Q1001.7813,670.4688 1000.9844,670.7969 Q999.9063,671.25 998.6094,671.25 Q997.0938,671.25 995.8906,670.625 Q994.9063,670.125 994.2188,669.0547 Q993.5313,667.9844 993.5313,666.7031 L993.5313,665.5469 Q993.5313,664.2188 994.1484,663.0703 Q994.7656,661.9219 995.8594,661.3047 Q996.9531,660.6875 998.1875,660.6875 Q998.9219,660.6875 999.5703,660.8516 Q1000.2188,661.0156 1000.7656,661.375 Z "/><text fill="#000000" font-family="sans-serif" font-size="12" lengthAdjust="spacingAndGlyphs" textLength="132" x="1012" y="670.4102">SecretCombinationView</text><line style="stroke: #A80036; stroke-width: 1.5;" x1="984" x2="1146" y1="681.5" y2="681.5"/><rect fill="none" height="6" style="stroke: #C82930; stroke-width: 1.0;" width="6" x="991" y="690.918"/><text fill="#000000" font-family="sans-serif" font-size="11" lengthAdjust="spacingAndGlyphs" text-decoration="underline" textLength="60" x="1003" y="696.9189">TITLE: String</text><rect fill="none" height="6" style="stroke: #C82930; stroke-width: 1.0;" width="6" x="991" y="704.7539"/><text fill="#000000" font-family="sans-serif" font-size="11" lengthAdjust="spacingAndGlyphs" textLength="53" x="1003" y="710.7549">title: JLabel</text><rect fill="none" height="6" style="stroke: #C82930; stroke-width: 1.0;" width="6" x="991" y="718.5898"/><text fill="#000000" font-family="sans-serif" font-size="11" lengthAdjust="spacingAndGlyphs" textLength="126" x="1003" y="724.5908">secretCombination: JLabel</text><line style="stroke: #A80036; stroke-width: 1.5;" x1="984" x2="1146" y1="731.0078" y2="731.0078"/><polygon fill="#4177AF" points="994,739.4258,990,745.4258,998,745.4258" style="stroke: #1963A0; stroke-width: 1.0;"/><text fill="#000000" font-family="sans-serif" font-size="11" lengthAdjust="spacingAndGlyphs" textLength="135" x="1003" y="746.4268">SecretCombinationView(int)</text><!--class mastermind.views.graphics.ProposalCombinationView--><rect fill="#FEFECE" filter="url(#f1eu6m9dr87btn)" height="214.0313" id="mastermind.views.graphics.ProposalCombinationView" style="stroke: #A80036; stroke-width: 1.5;" width="211" x="736.5" y="594"/><ellipse cx="765.9" cy="610" fill="#ADD1B2" rx="11" ry="11" style="stroke: #A80036; stroke-width: 1.0;"/><path d="M768.6656,605.875 Q768.8219,605.6563 769.0094,605.5469 Q769.1969,605.4375 769.4156,605.4375 Q769.7906,605.4375 770.025,605.6953 Q770.2594,605.9531 770.2594,606.5625 L770.2594,608.0156 Q770.2594,608.625 770.025,608.8906 Q769.7906,609.1563 769.4156,609.1563 Q769.0719,609.1563 768.8688,608.9531 Q768.6656,608.7656 768.5563,608.25 Q768.5094,607.8906 768.3219,607.7031 Q767.9938,607.3281 767.3844,607.1094 Q766.775,606.8906 766.15,606.8906 Q765.3844,606.8906 764.7516,607.2188 Q764.1188,607.5469 763.6266,608.2969 Q763.1344,609.0469 763.1344,610.0781 L763.1344,611.1719 Q763.1344,612.4063 764.025,613.2266 Q764.9156,614.0469 766.5094,614.0469 Q767.4469,614.0469 768.1031,613.7969 Q768.4938,613.6406 768.9156,613.2031 Q769.1813,612.9375 769.3297,612.8594 Q769.4781,612.7813 769.6813,612.7813 Q770.0094,612.7813 770.2672,613.0391 Q770.525,613.2969 770.525,613.6406 Q770.525,613.9844 770.1813,614.3906 Q769.6813,614.9688 768.8844,615.2969 Q767.8063,615.75 766.5094,615.75 Q764.9938,615.75 763.7906,615.125 Q762.8063,614.625 762.1188,613.5547 Q761.4313,612.4844 761.4313,611.2031 L761.4313,610.0469 Q761.4313,608.7188 762.0484,607.5703 Q762.6656,606.4219 763.7594,605.8047 Q764.8531,605.1875 766.0875,605.1875 Q766.8219,605.1875 767.4703,605.3516 Q768.1188,605.5156 768.6656,605.875 Z "/><text fill="#000000" font-family="sans-serif" font-size="12" lengthAdjust="spacingAndGlyphs" textLength="147" x="783.1" y="614.9102">ProposalCombinationView</text><line style="stroke: #A80036; stroke-width: 1.5;" x1="737.5" x2="946.5" y1="626" y2="626"/><rect fill="none" height="6" style="stroke: #C82930; stroke-width: 1.0;" width="6" x="744.5" y="635.418"/><text fill="#000000" font-family="sans-serif" font-size="11" lengthAdjust="spacingAndGlyphs" text-decoration="underline" textLength="74" x="756.5" y="641.4189">ACCEPT: String</text><rect fill="none" height="6" style="stroke: #C82930; stroke-width: 1.0;" width="6" x="744.5" y="649.2539"/><text fill="#000000" font-family="sans-serif" font-size="11" lengthAdjust="spacingAndGlyphs" textLength="59" x="756.5" y="655.2549">label: JLabel</text><rect fill="none" height="6" style="stroke: #C82930; stroke-width: 1.0;" width="6" x="744.5" y="663.0898"/><text fill="#000000" font-family="sans-serif" font-size="11" lengthAdjust="spacingAndGlyphs" textLength="94" x="756.5" y="669.0908">textField: JTextField</text><rect fill="none" height="6" style="stroke: #C82930; stroke-width: 1.0;" width="6" x="744.5" y="676.9258"/><text fill="#000000" font-family="sans-serif" font-size="11" lengthAdjust="spacingAndGlyphs" textLength="72" x="756.5" y="682.9268">button: JButton</text><rect fill="none" height="6" style="stroke: #C82930; stroke-width: 1.0;" width="6" x="744.5" y="690.7617"/><text fill="#000000" font-family="sans-serif" font-size="11" lengthAdjust="spacingAndGlyphs" textLength="87" x="756.5" y="696.7627">characters: String</text><line style="stroke: #A80036; stroke-width: 1.5;" x1="737.5" x2="946.5" y1="703.1797" y2="703.1797"/><polygon fill="#4177AF" points="747.5,711.5977,743.5,717.5977,751.5,717.5977" style="stroke: #1963A0; stroke-width: 1.0;"/><text fill="#000000" font-family="sans-serif" font-size="11" lengthAdjust="spacingAndGlyphs" textLength="185" x="756.5" y="718.5986">ProposalCombinationView(JRootPane)</text><ellipse cx="747.5" cy="729.4336" fill="#84BE84" rx="3" ry="3" style="stroke: #038048; stroke-width: 1.0;"/><text fill="#000000" font-family="sans-serif" font-size="11" lengthAdjust="spacingAndGlyphs" textLength="137" x="756.5" y="732.4346">keyPressed(KeyEvent): void</text><ellipse cx="747.5" cy="743.2695" fill="#84BE84" rx="3" ry="3" style="stroke: #038048; stroke-width: 1.0;"/><text fill="#000000" font-family="sans-serif" font-size="11" lengthAdjust="spacingAndGlyphs" textLength="142" x="756.5" y="746.2705">keyReleased(KeyEvent): void</text><ellipse cx="747.5" cy="757.1055" fill="#84BE84" rx="3" ry="3" style="stroke: #038048; stroke-width: 1.0;"/><text fill="#000000" font-family="sans-serif" font-size="11" lengthAdjust="spacingAndGlyphs" textLength="127" x="756.5" y="760.1064">keyTyped(KeyEvent): void</text><ellipse cx="747.5" cy="770.9414" fill="#84BE84" rx="3" ry="3" style="stroke: #038048; stroke-width: 1.0;"/><text fill="#000000" font-family="sans-serif" font-size="11" lengthAdjust="spacingAndGlyphs" textLength="171" x="756.5" y="773.9424">actionPerformed(ActionEvent): void</text><polygon fill="#4177AF" points="747.5,780.7773,743.5,786.7773,751.5,786.7773" style="stroke: #1963A0; stroke-width: 1.0;"/><text fill="#000000" font-family="sans-serif" font-size="11" lengthAdjust="spacingAndGlyphs" textLength="113" x="756.5" y="787.7783">resetCharacters(): void</text><polygon fill="#4177AF" points="747.5,794.6133,743.5,800.6133,751.5,800.6133" style="stroke: #1963A0; stroke-width: 1.0;"/><text fill="#000000" font-family="sans-serif" font-size="11" lengthAdjust="spacingAndGlyphs" textLength="111" x="756.5" y="801.6143">getCharacters(): String</text><!--class mastermind.views.graphics.GraphicsView--><rect fill="#FEFECE" filter="url(#f1eu6m9dr87btn)" height="117.1797" id="mastermind.views.graphics.GraphicsView" style="stroke: #A80036; stroke-width: 1.5;" width="167" x="1576.5" y="184"/><ellipse cx="1618.05" cy="200" fill="#ADD1B2" rx="11" ry="11" style="stroke: #A80036; stroke-width: 1.0;"/><path d="M1620.8156,195.875 Q1620.9719,195.6563 1621.1594,195.5469 Q1621.3469,195.4375 1621.5656,195.4375 Q1621.9406,195.4375 1622.175,195.6953 Q1622.4094,195.9531 1622.4094,196.5625 L1622.4094,198.0156 Q1622.4094,198.625 1622.175,198.8906 Q1621.9406,199.1563 1621.5656,199.1563 Q1621.2219,199.1563 1621.0188,198.9531 Q1620.8156,198.7656 1620.7063,198.25 Q1620.6594,197.8906 1620.4719,197.7031 Q1620.1438,197.3281 1619.5344,197.1094 Q1618.925,196.8906 1618.3,196.8906 Q1617.5344,196.8906 1616.9016,197.2188 Q1616.2688,197.5469 1615.7766,198.2969 Q1615.2844,199.0469 1615.2844,200.0781 L1615.2844,201.1719 Q1615.2844,202.4063 1616.175,203.2266 Q1617.0656,204.0469 1618.6594,204.0469 Q1619.5969,204.0469 1620.2531,203.7969 Q1620.6438,203.6406 1621.0656,203.2031 Q1621.3313,202.9375 1621.4797,202.8594 Q1621.6281,202.7813 1621.8313,202.7813 Q1622.1594,202.7813 1622.4172,203.0391 Q1622.675,203.2969 1622.675,203.6406 Q1622.675,203.9844 1622.3313,204.3906 Q1621.8313,204.9688 1621.0344,205.2969 Q1619.9563,205.75 1618.6594,205.75 Q1617.1438,205.75 1615.9406,205.125 Q1614.9563,204.625 1614.2688,203.5547 Q1613.5813,202.4844 1613.5813,201.2031 L1613.5813,200.0469 Q1613.5813,198.7188 1614.1984,197.5703 Q1614.8156,196.4219 1615.9094,195.8047 Q1617.0031,195.1875 1618.2375,195.1875 Q1618.9719,195.1875 1619.6203,195.3516 Q1620.2688,195.5156 1620.8156,195.875 Z "/><text fill="#000000" font-family="sans-serif" font-size="12" lengthAdjust="spacingAndGlyphs" textLength="76" x="1637.95" y="204.9102">GraphicsView</text><line style="stroke: #A80036; stroke-width: 1.5;" x1="1577.5" x2="1742.5" y1="216" y2="216"/><rect fill="none" height="6" style="stroke: #C82930; stroke-width: 1.0;" width="6" x="1584.5" y="225.418"/><text fill="#000000" font-family="sans-serif" font-size="11" lengthAdjust="spacingAndGlyphs" textLength="112" x="1596.5" y="231.4189">gameView: GameView</text><line style="stroke: #A80036; stroke-width: 1.5;" x1="1577.5" x2="1742.5" y1="237.8359" y2="237.8359"/><ellipse cx="1587.5" cy="250.2539" fill="#84BE84" rx="3" ry="3" style="stroke: #038048; stroke-width: 1.0;"/><text fill="#000000" font-family="sans-serif" font-size="11" lengthAdjust="spacingAndGlyphs" textLength="78" x="1596.5" y="253.2549">GraphicsView()</text><ellipse cx="1587.5" cy="264.0898" fill="#84BE84" rx="3" ry="3" style="stroke: #038048; stroke-width: 1.0;"/><text fill="#000000" font-family="sans-serif" font-size="11" lengthAdjust="spacingAndGlyphs" textLength="138" x="1596.5" y="267.0908">visit(ResumeController): void</text><ellipse cx="1587.5" cy="277.9258" fill="#84BE84" rx="3" ry="3" style="stroke: #038048; stroke-width: 1.0;"/><text fill="#000000" font-family="sans-serif" font-size="11" lengthAdjust="spacingAndGlyphs" textLength="141" x="1596.5" y="280.9268">visit(ProposalController): void</text><ellipse cx="1587.5" cy="291.7617" fill="#84BE84" rx="3" ry="3" style="stroke: #038048; stroke-width: 1.0;"/><text fill="#000000" font-family="sans-serif" font-size="11" lengthAdjust="spacingAndGlyphs" textLength="122" x="1596.5" y="294.7627">visit(StartController): void</text><!--class mastermind.views.graphics.ProposedCombinationView--><rect fill="#FEFECE" filter="url(#f1eu6m9dr87btn)" height="103.3438" id="mastermind.views.graphics.ProposedCombinationView" style="stroke: #A80036; stroke-width: 1.5;" width="183" x="1172.5" y="191"/><ellipse cx="1187.5" cy="207" fill="#ADD1B2" rx="11" ry="11" style="stroke: #A80036; stroke-width: 1.0;"/><path d="M1190.2656,202.875 Q1190.4219,202.6563 1190.6094,202.5469 Q1190.7969,202.4375 1191.0156,202.4375 Q1191.3906,202.4375 1191.625,202.6953 Q1191.8594,202.9531 1191.8594,203.5625 L1191.8594,205.0156 Q1191.8594,205.625 1191.625,205.8906 Q1191.3906,206.1563 1191.0156,206.1563 Q1190.6719,206.1563 1190.4688,205.9531 Q1190.2656,205.7656 1190.1563,205.25 Q1190.1094,204.8906 1189.9219,204.7031 Q1189.5938,204.3281 1188.9844,204.1094 Q1188.375,203.8906 1187.75,203.8906 Q1186.9844,203.8906 1186.3516,204.2188 Q1185.7188,204.5469 1185.2266,205.2969 Q1184.7344,206.0469 1184.7344,207.0781 L1184.7344,208.1719 Q1184.7344,209.4063 1185.625,210.2266 Q1186.5156,211.0469 1188.1094,211.0469 Q1189.0469,211.0469 1189.7031,210.7969 Q1190.0938,210.6406 1190.5156,210.2031 Q1190.7813,209.9375 1190.9297,209.8594 Q1191.0781,209.7813 1191.2813,209.7813 Q1191.6094,209.7813 1191.8672,210.0391 Q1192.125,210.2969 1192.125,210.6406 Q1192.125,210.9844 1191.7813,211.3906 Q1191.2813,211.9688 1190.4844,212.2969 Q1189.4063,212.75 1188.1094,212.75 Q1186.5938,212.75 1185.3906,212.125 Q1184.4063,211.625 1183.7188,210.5547 Q1183.0313,209.4844 1183.0313,208.2031 L1183.0313,207.0469 Q1183.0313,205.7188 1183.6484,204.5703 Q1184.2656,203.4219 1185.3594,202.8047 Q1186.4531,202.1875 1187.6875,202.1875 Q1188.4219,202.1875 1189.0703,202.3516 Q1189.7188,202.5156 1190.2656,202.875 Z "/><text fill="#000000" font-family="sans-serif" font-size="12" lengthAdjust="spacingAndGlyphs" textLength="151" x="1201.5" y="211.9102">ProposedCombinationView</text><line style="stroke: #A80036; stroke-width: 1.5;" x1="1173.5" x2="1354.5" y1="223" y2="223"/><ellipse cx="1183.5" cy="235.418" fill="none" rx="3" ry="3" style="stroke: #038048; stroke-width: 1.0;"/><text fill="#000000" font-family="sans-serif" font-size="11" lengthAdjust="spacingAndGlyphs" text-decoration="underline" textLength="86" x="1192.5" y="238.4189">ERROR_CODE: int</text><line style="stroke: #A80036; stroke-width: 1.5;" x1="1173.5" x2="1354.5" y1="244.8359" y2="244.8359"/><polygon fill="#4177AF" points="1183.5,253.2539,1179.5,259.2539,1187.5,259.2539" style="stroke: #1963A0; stroke-width: 1.0;"/><text fill="#000000" font-family="sans-serif" font-size="11" lengthAdjust="spacingAndGlyphs" textLength="155" x="1192.5" y="260.2549">ProposedCombinationView(int[])</text><polygon fill="#4177AF" points="1183.5,267.0898,1179.5,273.0898,1187.5,273.0898" style="stroke: #1963A0; stroke-width: 1.0;"/><text fill="#000000" font-family="sans-serif" font-size="11" lengthAdjust="spacingAndGlyphs" textLength="138" x="1192.5" y="274.0908">ProposedCombinationView()</text><polygon fill="#4177AF" points="1183.5,280.9258,1179.5,286.9258,1187.5,286.9258" style="stroke: #1963A0; stroke-width: 1.0;"/><text fill="#000000" font-family="sans-serif" font-size="11" lengthAdjust="spacingAndGlyphs" textLength="81" x="1192.5" y="287.9268">read(String): int[]</text><!--class mastermind.views.graphics.ResultView--><rect fill="#FEFECE" filter="url(#f1eu6m9dr87btn)" height="61.8359" id="mastermind.views.graphics.ResultView" style="stroke: #A80036; stroke-width: 1.5;" width="107" x="1030.5" y="211.5"/><ellipse cx="1051.35" cy="227.5" fill="#ADD1B2" rx="11" ry="11" style="stroke: #A80036; stroke-width: 1.0;"/><path d="M1054.1156,223.375 Q1054.2719,223.1563 1054.4594,223.0469 Q1054.6469,222.9375 1054.8656,222.9375 Q1055.2406,222.9375 1055.475,223.1953 Q1055.7094,223.4531 1055.7094,224.0625 L1055.7094,225.5156 Q1055.7094,226.125 1055.475,226.3906 Q1055.2406,226.6563 1054.8656,226.6563 Q1054.5219,226.6563 1054.3188,226.4531 Q1054.1156,226.2656 1054.0063,225.75 Q1053.9594,225.3906 1053.7719,225.2031 Q1053.4438,224.8281 1052.8344,224.6094 Q1052.225,224.3906 1051.6,224.3906 Q1050.8344,224.3906 1050.2016,224.7188 Q1049.5688,225.0469 1049.0766,225.7969 Q1048.5844,226.5469 1048.5844,227.5781 L1048.5844,228.6719 Q1048.5844,229.9063 1049.475,230.7266 Q1050.3656,231.5469 1051.9594,231.5469 Q1052.8969,231.5469 1053.5531,231.2969 Q1053.9438,231.1406 1054.3656,230.7031 Q1054.6313,230.4375 1054.7797,230.3594 Q1054.9281,230.2813 1055.1313,230.2813 Q1055.4594,230.2813 1055.7172,230.5391 Q1055.975,230.7969 1055.975,231.1406 Q1055.975,231.4844 1055.6313,231.8906 Q1055.1313,232.4688 1054.3344,232.7969 Q1053.2563,233.25 1051.9594,233.25 Q1050.4438,233.25 1049.2406,232.625 Q1048.2563,232.125 1047.5688,231.0547 Q1046.8813,229.9844 1046.8813,228.7031 L1046.8813,227.5469 Q1046.8813,226.2188 1047.4984,225.0703 Q1048.1156,223.9219 1049.2094,223.3047 Q1050.3031,222.6875 1051.5375,222.6875 Q1052.2719,222.6875 1052.9203,222.8516 Q1053.5688,223.0156 1054.1156,223.375 Z "/><text fill="#000000" font-family="sans-serif" font-size="12" lengthAdjust="spacingAndGlyphs" textLength="62" x="1066.65" y="232.4102">ResultView</text><line style="stroke: #A80036; stroke-width: 1.5;" x1="1031.5" x2="1136.5" y1="243.5" y2="243.5"/><line style="stroke: #A80036; stroke-width: 1.5;" x1="1031.5" x2="1136.5" y1="251.5" y2="251.5"/><polygon fill="#4177AF" points="1041.5,259.918,1037.5,265.918,1045.5,265.918" style="stroke: #1963A0; stroke-width: 1.0;"/><text fill="#000000" font-family="sans-serif" font-size="11" lengthAdjust="spacingAndGlyphs" textLength="81" x="1050.5" y="266.9189">ResultView(int[])</text><!--class mastermind.views.graphics.ResumeDialog--><rect fill="#FEFECE" filter="url(#f1eu6m9dr87btn)" height="89.5078" id="mastermind.views.graphics.ResumeDialog" style="stroke: #A80036; stroke-width: 1.5;" width="131" x="864.5" y="197.5"/><ellipse cx="886.25" cy="213.5" fill="#ADD1B2" rx="11" ry="11" style="stroke: #A80036; stroke-width: 1.0;"/><path d="M889.0156,209.375 Q889.1719,209.1563 889.3594,209.0469 Q889.5469,208.9375 889.7656,208.9375 Q890.1406,208.9375 890.375,209.1953 Q890.6094,209.4531 890.6094,210.0625 L890.6094,211.5156 Q890.6094,212.125 890.375,212.3906 Q890.1406,212.6563 889.7656,212.6563 Q889.4219,212.6563 889.2188,212.4531 Q889.0156,212.2656 888.9063,211.75 Q888.8594,211.3906 888.6719,211.2031 Q888.3438,210.8281 887.7344,210.6094 Q887.125,210.3906 886.5,210.3906 Q885.7344,210.3906 885.1016,210.7188 Q884.4688,211.0469 883.9766,211.7969 Q883.4844,212.5469 883.4844,213.5781 L883.4844,214.6719 Q883.4844,215.9063 884.375,216.7266 Q885.2656,217.5469 886.8594,217.5469 Q887.7969,217.5469 888.4531,217.2969 Q888.8438,217.1406 889.2656,216.7031 Q889.5313,216.4375 889.6797,216.3594 Q889.8281,216.2813 890.0313,216.2813 Q890.3594,216.2813 890.6172,216.5391 Q890.875,216.7969 890.875,217.1406 Q890.875,217.4844 890.5313,217.8906 Q890.0313,218.4688 889.2344,218.7969 Q888.1563,219.25 886.8594,219.25 Q885.3438,219.25 884.1406,218.625 Q883.1563,218.125 882.4688,217.0547 Q881.7813,215.9844 881.7813,214.7031 L881.7813,213.5469 Q881.7813,212.2188 882.3984,211.0703 Q883.0156,209.9219 884.1094,209.3047 Q885.2031,208.6875 886.4375,208.6875 Q887.1719,208.6875 887.8203,208.8516 Q888.4688,209.0156 889.0156,209.375 Z "/><text fill="#000000" font-family="sans-serif" font-size="12" lengthAdjust="spacingAndGlyphs" textLength="84" x="901.75" y="218.4102">ResumeDialog</text><line style="stroke: #A80036; stroke-width: 1.5;" x1="865.5" x2="994.5" y1="229.5" y2="229.5"/><rect fill="none" height="6" style="stroke: #C82930; stroke-width: 1.0;" width="6" x="872.5" y="238.918"/><text fill="#000000" font-family="sans-serif" font-size="11" lengthAdjust="spacingAndGlyphs" textLength="80" x="884.5" y="244.9189">resume: boolean</text><line style="stroke: #A80036; stroke-width: 1.5;" x1="865.5" x2="994.5" y1="251.3359" y2="251.3359"/><polygon fill="#4177AF" points="875.5,259.7539,871.5,265.7539,879.5,265.7539" style="stroke: #1963A0; stroke-width: 1.0;"/><text fill="#000000" font-family="sans-serif" font-size="11" lengthAdjust="spacingAndGlyphs" textLength="76" x="884.5" y="266.7549">ResumeDialog()</text><polygon fill="#4177AF" points="875.5,273.5898,871.5,279.5898,879.5,279.5898" style="stroke: #1963A0; stroke-width: 1.0;"/><text fill="#000000" font-family="sans-serif" font-size="11" lengthAdjust="spacingAndGlyphs" textLength="105" x="884.5" y="280.5908">isResumed(): boolean</text><!--class mastermind.views.graphics.TurnView--><rect fill="#FEFECE" filter="url(#f1eu6m9dr87btn)" height="61.8359" id="mastermind.views.graphics.TurnView" style="stroke: #A80036; stroke-width: 1.5;" width="93" x="736.5" y="211.5"/><ellipse cx="756" cy="227.5" fill="#ADD1B2" rx="11" ry="11" style="stroke: #A80036; stroke-width: 1.0;"/><path d="M758.7656,223.375 Q758.9219,223.1563 759.1094,223.0469 Q759.2969,222.9375 759.5156,222.9375 Q759.8906,222.9375 760.125,223.1953 Q760.3594,223.4531 760.3594,224.0625 L760.3594,225.5156 Q760.3594,226.125 760.125,226.3906 Q759.8906,226.6563 759.5156,226.6563 Q759.1719,226.6563 758.9688,226.4531 Q758.7656,226.2656 758.6563,225.75 Q758.6094,225.3906 758.4219,225.2031 Q758.0938,224.8281 757.4844,224.6094 Q756.875,224.3906 756.25,224.3906 Q755.4844,224.3906 754.8516,224.7188 Q754.2188,225.0469 753.7266,225.7969 Q753.2344,226.5469 753.2344,227.5781 L753.2344,228.6719 Q753.2344,229.9063 754.125,230.7266 Q755.0156,231.5469 756.6094,231.5469 Q757.5469,231.5469 758.2031,231.2969 Q758.5938,231.1406 759.0156,230.7031 Q759.2813,230.4375 759.4297,230.3594 Q759.5781,230.2813 759.7813,230.2813 Q760.1094,230.2813 760.3672,230.5391 Q760.625,230.7969 760.625,231.1406 Q760.625,231.4844 760.2813,231.8906 Q759.7813,232.4688 758.9844,232.7969 Q757.9063,233.25 756.6094,233.25 Q755.0938,233.25 753.8906,232.625 Q752.9063,232.125 752.2188,231.0547 Q751.5313,229.9844 751.5313,228.7031 L751.5313,227.5469 Q751.5313,226.2188 752.1484,225.0703 Q752.7656,223.9219 753.8594,223.3047 Q754.9531,222.6875 756.1875,222.6875 Q756.9219,222.6875 757.5703,222.8516 Q758.2188,223.0156 758.7656,223.375 Z "/><text fill="#000000" font-family="sans-serif" font-size="12" lengthAdjust="spacingAndGlyphs" textLength="51" x="771" y="232.4102">TurnView</text><line style="stroke: #A80036; stroke-width: 1.5;" x1="737.5" x2="828.5" y1="243.5" y2="243.5"/><line style="stroke: #A80036; stroke-width: 1.5;" x1="737.5" x2="828.5" y1="251.5" y2="251.5"/><polygon fill="#4177AF" points="747.5,259.918,743.5,265.918,751.5,265.918" style="stroke: #1963A0; stroke-width: 1.0;"/><text fill="#000000" font-family="sans-serif" font-size="11" lengthAdjust="spacingAndGlyphs" textLength="67" x="756.5" y="266.9189">TurnView(int)</text><!--class java.awt.GridBagConstraints--><rect fill="#FEFECE" filter="url(#f1eu6m9dr87btn)" height="48" id="java.awt.GridBagConstraints" style="stroke: #A80036; stroke-width: 1.5;" width="141" x="1395.5" y="60"/><ellipse cx="1410.5" cy="76" fill="#ADD1B2" rx="11" ry="11" style="stroke: #A80036; stroke-width: 1.0;"/><path d="M1413.2656,71.875 Q1413.4219,71.6563 1413.6094,71.5469 Q1413.7969,71.4375 1414.0156,71.4375 Q1414.3906,71.4375 1414.625,71.6953 Q1414.8594,71.9531 1414.8594,72.5625 L1414.8594,74.0156 Q1414.8594,74.625 1414.625,74.8906 Q1414.3906,75.1563 1414.0156,75.1563 Q1413.6719,75.1563 1413.4688,74.9531 Q1413.2656,74.7656 1413.1563,74.25 Q1413.1094,73.8906 1412.9219,73.7031 Q1412.5938,73.3281 1411.9844,73.1094 Q1411.375,72.8906 1410.75,72.8906 Q1409.9844,72.8906 1409.3516,73.2188 Q1408.7188,73.5469 1408.2266,74.2969 Q1407.7344,75.0469 1407.7344,76.0781 L1407.7344,77.1719 Q1407.7344,78.4063 1408.625,79.2266 Q1409.5156,80.0469 1411.1094,80.0469 Q1412.0469,80.0469 1412.7031,79.7969 Q1413.0938,79.6406 1413.5156,79.2031 Q1413.7813,78.9375 1413.9297,78.8594 Q1414.0781,78.7813 1414.2813,78.7813 Q1414.6094,78.7813 1414.8672,79.0391 Q1415.125,79.2969 1415.125,79.6406 Q1415.125,79.9844 1414.7813,80.3906 Q1414.2813,80.9688 1413.4844,81.2969 Q1412.4063,81.75 1411.1094,81.75 Q1409.5938,81.75 1408.3906,81.125 Q1407.4063,80.625 1406.7188,79.5547 Q1406.0313,78.4844 1406.0313,77.2031 L1406.0313,76.0469 Q1406.0313,74.7188 1406.6484,73.5703 Q1407.2656,72.4219 1408.3594,71.8047 Q1409.4531,71.1875 1410.6875,71.1875 Q1411.4219,71.1875 1412.0703,71.3516 Q1412.7188,71.5156 1413.2656,71.875 Z "/><text fill="#000000" font-family="sans-serif" font-size="12" lengthAdjust="spacingAndGlyphs" textLength="109" x="1424.5" y="80.9102">GridBagConstraints</text><line style="stroke: #A80036; stroke-width: 1.5;" x1="1396.5" x2="1535.5" y1="92" y2="92"/><line style="stroke: #A80036; stroke-width: 1.5;" x1="1396.5" x2="1535.5" y1="100" y2="100"/><!--class javax.swing.JFrame--><rect fill="#FEFECE" filter="url(#f1eu6m9dr87btn)" height="48" id="javax.swing.JFrame" style="stroke: #A80036; stroke-width: 1.5;" width="74" x="606" y="423.5"/><ellipse cx="621" cy="439.5" fill="#ADD1B2" rx="11" ry="11" style="stroke: #A80036; stroke-width: 1.0;"/><path d="M623.7656,435.375 Q623.9219,435.1563 624.1094,435.0469 Q624.2969,434.9375 624.5156,434.9375 Q624.8906,434.9375 625.125,435.1953 Q625.3594,435.4531 625.3594,436.0625 L625.3594,437.5156 Q625.3594,438.125 625.125,438.3906 Q624.8906,438.6563 624.5156,438.6563 Q624.1719,438.6563 623.9688,438.4531 Q623.7656,438.2656 623.6563,437.75 Q623.6094,437.3906 623.4219,437.2031 Q623.0938,436.8281 622.4844,436.6094 Q621.875,436.3906 621.25,436.3906 Q620.4844,436.3906 619.8516,436.7188 Q619.2188,437.0469 618.7266,437.7969 Q618.2344,438.5469 618.2344,439.5781 L618.2344,440.6719 Q618.2344,441.9063 619.125,442.7266 Q620.0156,443.5469 621.6094,443.5469 Q622.5469,443.5469 623.2031,443.2969 Q623.5938,443.1406 624.0156,442.7031 Q624.2813,442.4375 624.4297,442.3594 Q624.5781,442.2813 624.7813,442.2813 Q625.1094,442.2813 625.3672,442.5391 Q625.625,442.7969 625.625,443.1406 Q625.625,443.4844 625.2813,443.8906 Q624.7813,444.4688 623.9844,444.7969 Q622.9063,445.25 621.6094,445.25 Q620.0938,445.25 618.8906,444.625 Q617.9063,444.125 617.2188,443.0547 Q616.5313,441.9844 616.5313,440.7031 L616.5313,439.5469 Q616.5313,438.2188 617.1484,437.0703 Q617.7656,435.9219 618.8594,435.3047 Q619.9531,434.6875 621.1875,434.6875 Q621.9219,434.6875 622.5703,434.8516 Q623.2188,435.0156 623.7656,435.375 Z "/><text fill="#000000" font-family="sans-serif" font-size="12" lengthAdjust="spacingAndGlyphs" textLength="42" x="635" y="444.4102">JFrame</text><line style="stroke: #A80036; stroke-width: 1.5;" x1="607" x2="679" y1="455.5" y2="455.5"/><line style="stroke: #A80036; stroke-width: 1.5;" x1="607" x2="679" y1="463.5" y2="463.5"/><!--class javax.swing.JPanel--><rect fill="#FEFECE" filter="url(#f1eu6m9dr87btn)" height="48" id="javax.swing.JPanel" style="stroke: #A80036; stroke-width: 1.5;" width="70" x="501" y="423.5"/><ellipse cx="516" cy="439.5" fill="#ADD1B2" rx="11" ry="11" style="stroke: #A80036; stroke-width: 1.0;"/><path d="M518.7656,435.375 Q518.9219,435.1563 519.1094,435.0469 Q519.2969,434.9375 519.5156,434.9375 Q519.8906,434.9375 520.125,435.1953 Q520.3594,435.4531 520.3594,436.0625 L520.3594,437.5156 Q520.3594,438.125 520.125,438.3906 Q519.8906,438.6563 519.5156,438.6563 Q519.1719,438.6563 518.9688,438.4531 Q518.7656,438.2656 518.6563,437.75 Q518.6094,437.3906 518.4219,437.2031 Q518.0938,436.8281 517.4844,436.6094 Q516.875,436.3906 516.25,436.3906 Q515.4844,436.3906 514.8516,436.7188 Q514.2188,437.0469 513.7266,437.7969 Q513.2344,438.5469 513.2344,439.5781 L513.2344,440.6719 Q513.2344,441.9063 514.125,442.7266 Q515.0156,443.5469 516.6094,443.5469 Q517.5469,443.5469 518.2031,443.2969 Q518.5938,443.1406 519.0156,442.7031 Q519.2813,442.4375 519.4297,442.3594 Q519.5781,442.2813 519.7813,442.2813 Q520.1094,442.2813 520.3672,442.5391 Q520.625,442.7969 520.625,443.1406 Q520.625,443.4844 520.2813,443.8906 Q519.7813,444.4688 518.9844,444.7969 Q517.9063,445.25 516.6094,445.25 Q515.0938,445.25 513.8906,444.625 Q512.9063,444.125 512.2188,443.0547 Q511.5313,441.9844 511.5313,440.7031 L511.5313,439.5469 Q511.5313,438.2188 512.1484,437.0703 Q512.7656,435.9219 513.8594,435.3047 Q514.9531,434.6875 516.1875,434.6875 Q516.9219,434.6875 517.5703,434.8516 Q518.2188,435.0156 518.7656,435.375 Z "/><text fill="#000000" font-family="sans-serif" font-size="12" lengthAdjust="spacingAndGlyphs" textLength="38" x="530" y="444.4102">JPanel</text><line style="stroke: #A80036; stroke-width: 1.5;" x1="502" x2="570" y1="455.5" y2="455.5"/><line style="stroke: #A80036; stroke-width: 1.5;" x1="502" x2="570" y1="463.5" y2="463.5"/><!--class javax.swing.JButton--><rect fill="#FEFECE" filter="url(#f1eu6m9dr87btn)" height="48" id="javax.swing.JButton" style="stroke: #A80036; stroke-width: 1.5;" width="73" x="38.5" y="423.5"/><ellipse cx="53.5" cy="439.5" fill="#ADD1B2" rx="11" ry="11" style="stroke: #A80036; stroke-width: 1.0;"/><path d="M56.2656,435.375 Q56.4219,435.1563 56.6094,435.0469 Q56.7969,434.9375 57.0156,434.9375 Q57.3906,434.9375 57.625,435.1953 Q57.8594,435.4531 57.8594,436.0625 L57.8594,437.5156 Q57.8594,438.125 57.625,438.3906 Q57.3906,438.6563 57.0156,438.6563 Q56.6719,438.6563 56.4688,438.4531 Q56.2656,438.2656 56.1563,437.75 Q56.1094,437.3906 55.9219,437.2031 Q55.5938,436.8281 54.9844,436.6094 Q54.375,436.3906 53.75,436.3906 Q52.9844,436.3906 52.3516,436.7188 Q51.7188,437.0469 51.2266,437.7969 Q50.7344,438.5469 50.7344,439.5781 L50.7344,440.6719 Q50.7344,441.9063 51.625,442.7266 Q52.5156,443.5469 54.1094,443.5469 Q55.0469,443.5469 55.7031,443.2969 Q56.0938,443.1406 56.5156,442.7031 Q56.7813,442.4375 56.9297,442.3594 Q57.0781,442.2813 57.2813,442.2813 Q57.6094,442.2813 57.8672,442.5391 Q58.125,442.7969 58.125,443.1406 Q58.125,443.4844 57.7813,443.8906 Q57.2813,444.4688 56.4844,444.7969 Q55.4063,445.25 54.1094,445.25 Q52.5938,445.25 51.3906,444.625 Q50.4063,444.125 49.7188,443.0547 Q49.0313,441.9844 49.0313,440.7031 L49.0313,439.5469 Q49.0313,438.2188 49.6484,437.0703 Q50.2656,435.9219 51.3594,435.3047 Q52.4531,434.6875 53.6875,434.6875 Q54.4219,434.6875 55.0703,434.8516 Q55.7188,435.0156 56.2656,435.375 Z "/><text fill="#000000" font-family="sans-serif" font-size="12" lengthAdjust="spacingAndGlyphs" textLength="41" x="67.5" y="444.4102">JButton</text><line style="stroke: #A80036; stroke-width: 1.5;" x1="39.5" x2="110.5" y1="455.5" y2="455.5"/><line style="stroke: #A80036; stroke-width: 1.5;" x1="39.5" x2="110.5" y1="463.5" y2="463.5"/><!--class javax.swing.JTextField--><rect fill="#FEFECE" filter="url(#f1eu6m9dr87btn)" height="48" id="javax.swing.JTextField" style="stroke: #A80036; stroke-width: 1.5;" width="87" x="274.5" y="423.5"/><ellipse cx="289.5" cy="439.5" fill="#ADD1B2" rx="11" ry="11" style="stroke: #A80036; stroke-width: 1.0;"/><path d="M292.2656,435.375 Q292.4219,435.1563 292.6094,435.0469 Q292.7969,434.9375 293.0156,434.9375 Q293.3906,434.9375 293.625,435.1953 Q293.8594,435.4531 293.8594,436.0625 L293.8594,437.5156 Q293.8594,438.125 293.625,438.3906 Q293.3906,438.6563 293.0156,438.6563 Q292.6719,438.6563 292.4688,438.4531 Q292.2656,438.2656 292.1563,437.75 Q292.1094,437.3906 291.9219,437.2031 Q291.5938,436.8281 290.9844,436.6094 Q290.375,436.3906 289.75,436.3906 Q288.9844,436.3906 288.3516,436.7188 Q287.7188,437.0469 287.2266,437.7969 Q286.7344,438.5469 286.7344,439.5781 L286.7344,440.6719 Q286.7344,441.9063 287.625,442.7266 Q288.5156,443.5469 290.1094,443.5469 Q291.0469,443.5469 291.7031,443.2969 Q292.0938,443.1406 292.5156,442.7031 Q292.7813,442.4375 292.9297,442.3594 Q293.0781,442.2813 293.2813,442.2813 Q293.6094,442.2813 293.8672,442.5391 Q294.125,442.7969 294.125,443.1406 Q294.125,443.4844 293.7813,443.8906 Q293.2813,444.4688 292.4844,444.7969 Q291.4063,445.25 290.1094,445.25 Q288.5938,445.25 287.3906,444.625 Q286.4063,444.125 285.7188,443.0547 Q285.0313,441.9844 285.0313,440.7031 L285.0313,439.5469 Q285.0313,438.2188 285.6484,437.0703 Q286.2656,435.9219 287.3594,435.3047 Q288.4531,434.6875 289.6875,434.6875 Q290.4219,434.6875 291.0703,434.8516 Q291.7188,435.0156 292.2656,435.375 Z "/><text fill="#000000" font-family="sans-serif" font-size="12" lengthAdjust="spacingAndGlyphs" textLength="55" x="303.5" y="444.4102">JTextField</text><line style="stroke: #A80036; stroke-width: 1.5;" x1="275.5" x2="360.5" y1="455.5" y2="455.5"/><line style="stroke: #A80036; stroke-width: 1.5;" x1="275.5" x2="360.5" y1="463.5" y2="463.5"/><!--class javax.swing.JLabel--><rect fill="#FEFECE" filter="url(#f1eu6m9dr87btn)" height="48" id="javax.swing.JLabel" style="stroke: #A80036; stroke-width: 1.5;" width="69" x="396.5" y="423.5"/><ellipse cx="411.5" cy="439.5" fill="#ADD1B2" rx="11" ry="11" style="stroke: #A80036; stroke-width: 1.0;"/><path d="M414.2656,435.375 Q414.4219,435.1563 414.6094,435.0469 Q414.7969,434.9375 415.0156,434.9375 Q415.3906,434.9375 415.625,435.1953 Q415.8594,435.4531 415.8594,436.0625 L415.8594,437.5156 Q415.8594,438.125 415.625,438.3906 Q415.3906,438.6563 415.0156,438.6563 Q414.6719,438.6563 414.4688,438.4531 Q414.2656,438.2656 414.1563,437.75 Q414.1094,437.3906 413.9219,437.2031 Q413.5938,436.8281 412.9844,436.6094 Q412.375,436.3906 411.75,436.3906 Q410.9844,436.3906 410.3516,436.7188 Q409.7188,437.0469 409.2266,437.7969 Q408.7344,438.5469 408.7344,439.5781 L408.7344,440.6719 Q408.7344,441.9063 409.625,442.7266 Q410.5156,443.5469 412.1094,443.5469 Q413.0469,443.5469 413.7031,443.2969 Q414.0938,443.1406 414.5156,442.7031 Q414.7813,442.4375 414.9297,442.3594 Q415.0781,442.2813 415.2813,442.2813 Q415.6094,442.2813 415.8672,442.5391 Q416.125,442.7969 416.125,443.1406 Q416.125,443.4844 415.7813,443.8906 Q415.2813,444.4688 414.4844,444.7969 Q413.4063,445.25 412.1094,445.25 Q410.5938,445.25 409.3906,444.625 Q408.4063,444.125 407.7188,443.0547 Q407.0313,441.9844 407.0313,440.7031 L407.0313,439.5469 Q407.0313,438.2188 407.6484,437.0703 Q408.2656,435.9219 409.3594,435.3047 Q410.4531,434.6875 411.6875,434.6875 Q412.4219,434.6875 413.0703,434.8516 Q413.7188,435.0156 414.2656,435.375 Z "/><text fill="#000000" font-family="sans-serif" font-size="12" lengthAdjust="spacingAndGlyphs" textLength="37" x="425.5" y="444.4102">JLabel</text><line style="stroke: #A80036; stroke-width: 1.5;" x1="397.5" x2="464.5" y1="455.5" y2="455.5"/><line style="stroke: #A80036; stroke-width: 1.5;" x1="397.5" x2="464.5" y1="463.5" y2="463.5"/><!--class javax.swing.JRootPane--><rect fill="#FEFECE" filter="url(#f1eu6m9dr87btn)" height="48" id="javax.swing.JRootPane" style="stroke: #A80036; stroke-width: 1.5;" width="93" x="146.5" y="423.5"/><ellipse cx="161.5" cy="439.5" fill="#ADD1B2" rx="11" ry="11" style="stroke: #A80036; stroke-width: 1.0;"/><path d="M164.2656,435.375 Q164.4219,435.1563 164.6094,435.0469 Q164.7969,434.9375 165.0156,434.9375 Q165.3906,434.9375 165.625,435.1953 Q165.8594,435.4531 165.8594,436.0625 L165.8594,437.5156 Q165.8594,438.125 165.625,438.3906 Q165.3906,438.6563 165.0156,438.6563 Q164.6719,438.6563 164.4688,438.4531 Q164.2656,438.2656 164.1563,437.75 Q164.1094,437.3906 163.9219,437.2031 Q163.5938,436.8281 162.9844,436.6094 Q162.375,436.3906 161.75,436.3906 Q160.9844,436.3906 160.3516,436.7188 Q159.7188,437.0469 159.2266,437.7969 Q158.7344,438.5469 158.7344,439.5781 L158.7344,440.6719 Q158.7344,441.9063 159.625,442.7266 Q160.5156,443.5469 162.1094,443.5469 Q163.0469,443.5469 163.7031,443.2969 Q164.0938,443.1406 164.5156,442.7031 Q164.7813,442.4375 164.9297,442.3594 Q165.0781,442.2813 165.2813,442.2813 Q165.6094,442.2813 165.8672,442.5391 Q166.125,442.7969 166.125,443.1406 Q166.125,443.4844 165.7813,443.8906 Q165.2813,444.4688 164.4844,444.7969 Q163.4063,445.25 162.1094,445.25 Q160.5938,445.25 159.3906,444.625 Q158.4063,444.125 157.7188,443.0547 Q157.0313,441.9844 157.0313,440.7031 L157.0313,439.5469 Q157.0313,438.2188 157.6484,437.0703 Q158.2656,435.9219 159.3594,435.3047 Q160.4531,434.6875 161.6875,434.6875 Q162.4219,434.6875 163.0703,434.8516 Q163.7188,435.0156 164.2656,435.375 Z "/><text fill="#000000" font-family="sans-serif" font-size="12" lengthAdjust="spacingAndGlyphs" textLength="61" x="175.5" y="444.4102">JRootPane</text><line style="stroke: #A80036; stroke-width: 1.5;" x1="147.5" x2="238.5" y1="455.5" y2="455.5"/><line style="stroke: #A80036; stroke-width: 1.5;" x1="147.5" x2="238.5" y1="463.5" y2="463.5"/><!--class mastermind.controllers.StartController--><rect fill="#FEFECE" filter="url(#f1eu6m9dr87btn)" height="48" id="mastermind.controllers.StartController" style="stroke: #A80036; stroke-width: 1.5;" width="111" x="1526.5" y="884"/><ellipse cx="1541.5" cy="900" fill="#ADD1B2" rx="11" ry="11" style="stroke: #A80036; stroke-width: 1.0;"/><path d="M1544.2656,895.875 Q1544.4219,895.6563 1544.6094,895.5469 Q1544.7969,895.4375 1545.0156,895.4375 Q1545.3906,895.4375 1545.625,895.6953 Q1545.8594,895.9531 1545.8594,896.5625 L1545.8594,898.0156 Q1545.8594,898.625 1545.625,898.8906 Q1545.3906,899.1563 1545.0156,899.1563 Q1544.6719,899.1563 1544.4688,898.9531 Q1544.2656,898.7656 1544.1563,898.25 Q1544.1094,897.8906 1543.9219,897.7031 Q1543.5938,897.3281 1542.9844,897.1094 Q1542.375,896.8906 1541.75,896.8906 Q1540.9844,896.8906 1540.3516,897.2188 Q1539.7188,897.5469 1539.2266,898.2969 Q1538.7344,899.0469 1538.7344,900.0781 L1538.7344,901.1719 Q1538.7344,902.4063 1539.625,903.2266 Q1540.5156,904.0469 1542.1094,904.0469 Q1543.0469,904.0469 1543.7031,903.7969 Q1544.0938,903.6406 1544.5156,903.2031 Q1544.7813,902.9375 1544.9297,902.8594 Q1545.0781,902.7813 1545.2813,902.7813 Q1545.6094,902.7813 1545.8672,903.0391 Q1546.125,903.2969 1546.125,903.6406 Q1546.125,903.9844 1545.7813,904.3906 Q1545.2813,904.9688 1544.4844,905.2969 Q1543.4063,905.75 1542.1094,905.75 Q1540.5938,905.75 1539.3906,905.125 Q1538.4063,904.625 1537.7188,903.5547 Q1537.0313,902.4844 1537.0313,901.2031 L1537.0313,900.0469 Q1537.0313,898.7188 1537.6484,897.5703 Q1538.2656,896.4219 1539.3594,895.8047 Q1540.4531,895.1875 1541.6875,895.1875 Q1542.4219,895.1875 1543.0703,895.3516 Q1543.7188,895.5156 1544.2656,895.875 Z "/><text fill="#000000" font-family="sans-serif" font-size="12" lengthAdjust="spacingAndGlyphs" textLength="79" x="1555.5" y="904.9102">StartController</text><line style="stroke: #A80036; stroke-width: 1.5;" x1="1527.5" x2="1636.5" y1="916" y2="916"/><line style="stroke: #A80036; stroke-width: 1.5;" x1="1527.5" x2="1636.5" y1="924" y2="924"/><!--class mastermind.controllers.ProposalController--><rect fill="#FEFECE" filter="url(#f1eu6m9dr87btn)" height="48" id="mastermind.controllers.ProposalController" style="stroke: #A80036; stroke-width: 1.5;" width="136" x="1355" y="884"/><ellipse cx="1370" cy="900" fill="#ADD1B2" rx="11" ry="11" style="stroke: #A80036; stroke-width: 1.0;"/><path d="M1372.7656,895.875 Q1372.9219,895.6563 1373.1094,895.5469 Q1373.2969,895.4375 1373.5156,895.4375 Q1373.8906,895.4375 1374.125,895.6953 Q1374.3594,895.9531 1374.3594,896.5625 L1374.3594,898.0156 Q1374.3594,898.625 1374.125,898.8906 Q1373.8906,899.1563 1373.5156,899.1563 Q1373.1719,899.1563 1372.9688,898.9531 Q1372.7656,898.7656 1372.6563,898.25 Q1372.6094,897.8906 1372.4219,897.7031 Q1372.0938,897.3281 1371.4844,897.1094 Q1370.875,896.8906 1370.25,896.8906 Q1369.4844,896.8906 1368.8516,897.2188 Q1368.2188,897.5469 1367.7266,898.2969 Q1367.2344,899.0469 1367.2344,900.0781 L1367.2344,901.1719 Q1367.2344,902.4063 1368.125,903.2266 Q1369.0156,904.0469 1370.6094,904.0469 Q1371.5469,904.0469 1372.2031,903.7969 Q1372.5938,903.6406 1373.0156,903.2031 Q1373.2813,902.9375 1373.4297,902.8594 Q1373.5781,902.7813 1373.7813,902.7813 Q1374.1094,902.7813 1374.3672,903.0391 Q1374.625,903.2969 1374.625,903.6406 Q1374.625,903.9844 1374.2813,904.3906 Q1373.7813,904.9688 1372.9844,905.2969 Q1371.9063,905.75 1370.6094,905.75 Q1369.0938,905.75 1367.8906,905.125 Q1366.9063,904.625 1366.2188,903.5547 Q1365.5313,902.4844 1365.5313,901.2031 L1365.5313,900.0469 Q1365.5313,898.7188 1366.1484,897.5703 Q1366.7656,896.4219 1367.8594,895.8047 Q1368.9531,895.1875 1370.1875,895.1875 Q1370.9219,895.1875 1371.5703,895.3516 Q1372.2188,895.5156 1372.7656,895.875 Z "/><text fill="#000000" font-family="sans-serif" font-size="12" lengthAdjust="spacingAndGlyphs" textLength="104" x="1384" y="904.9102">ProposalController</text><line style="stroke: #A80036; stroke-width: 1.5;" x1="1356" x2="1490" y1="916" y2="916"/><line style="stroke: #A80036; stroke-width: 1.5;" x1="1356" x2="1490" y1="924" y2="924"/><!--class mastermind.controllers.ResumeController--><rect fill="#FEFECE" filter="url(#f1eu6m9dr87btn)" height="48" id="mastermind.controllers.ResumeController" style="stroke: #A80036; stroke-width: 1.5;" width="134" x="1673" y="884"/><ellipse cx="1688" cy="900" fill="#ADD1B2" rx="11" ry="11" style="stroke: #A80036; stroke-width: 1.0;"/><path d="M1690.7656,895.875 Q1690.9219,895.6563 1691.1094,895.5469 Q1691.2969,895.4375 1691.5156,895.4375 Q1691.8906,895.4375 1692.125,895.6953 Q1692.3594,895.9531 1692.3594,896.5625 L1692.3594,898.0156 Q1692.3594,898.625 1692.125,898.8906 Q1691.8906,899.1563 1691.5156,899.1563 Q1691.1719,899.1563 1690.9688,898.9531 Q1690.7656,898.7656 1690.6563,898.25 Q1690.6094,897.8906 1690.4219,897.7031 Q1690.0938,897.3281 1689.4844,897.1094 Q1688.875,896.8906 1688.25,896.8906 Q1687.4844,896.8906 1686.8516,897.2188 Q1686.2188,897.5469 1685.7266,898.2969 Q1685.2344,899.0469 1685.2344,900.0781 L1685.2344,901.1719 Q1685.2344,902.4063 1686.125,903.2266 Q1687.0156,904.0469 1688.6094,904.0469 Q1689.5469,904.0469 1690.2031,903.7969 Q1690.5938,903.6406 1691.0156,903.2031 Q1691.2813,902.9375 1691.4297,902.8594 Q1691.5781,902.7813 1691.7813,902.7813 Q1692.1094,902.7813 1692.3672,903.0391 Q1692.625,903.2969 1692.625,903.6406 Q1692.625,903.9844 1692.2813,904.3906 Q1691.7813,904.9688 1690.9844,905.2969 Q1689.9063,905.75 1688.6094,905.75 Q1687.0938,905.75 1685.8906,905.125 Q1684.9063,904.625 1684.2188,903.5547 Q1683.5313,902.4844 1683.5313,901.2031 L1683.5313,900.0469 Q1683.5313,898.7188 1684.1484,897.5703 Q1684.7656,896.4219 1685.8594,895.8047 Q1686.9531,895.1875 1688.1875,895.1875 Q1688.9219,895.1875 1689.5703,895.3516 Q1690.2188,895.5156 1690.7656,895.875 Z "/><text fill="#000000" font-family="sans-serif" font-size="12" lengthAdjust="spacingAndGlyphs" textLength="102" x="1702" y="904.9102">ResumeController</text><line style="stroke: #A80036; stroke-width: 1.5;" x1="1674" x2="1806" y1="916" y2="916"/><line style="stroke: #A80036; stroke-width: 1.5;" x1="1674" x2="1806" y1="924" y2="924"/><!--class mastermind.views.View--><rect fill="#FEFECE" filter="url(#f1eu6m9dr87btn)" height="48" id="mastermind.views.View" style="stroke: #A80036; stroke-width: 1.5;" width="58" x="1631" y="60"/><ellipse cx="1646" cy="76" fill="#ADD1B2" rx="11" ry="11" style="stroke: #A80036; stroke-width: 1.0;"/><path d="M1648.7656,71.875 Q1648.9219,71.6563 1649.1094,71.5469 Q1649.2969,71.4375 1649.5156,71.4375 Q1649.8906,71.4375 1650.125,71.6953 Q1650.3594,71.9531 1650.3594,72.5625 L1650.3594,74.0156 Q1650.3594,74.625 1650.125,74.8906 Q1649.8906,75.1563 1649.5156,75.1563 Q1649.1719,75.1563 1648.9688,74.9531 Q1648.7656,74.7656 1648.6563,74.25 Q1648.6094,73.8906 1648.4219,73.7031 Q1648.0938,73.3281 1647.4844,73.1094 Q1646.875,72.8906 1646.25,72.8906 Q1645.4844,72.8906 1644.8516,73.2188 Q1644.2188,73.5469 1643.7266,74.2969 Q1643.2344,75.0469 1643.2344,76.0781 L1643.2344,77.1719 Q1643.2344,78.4063 1644.125,79.2266 Q1645.0156,80.0469 1646.6094,80.0469 Q1647.5469,80.0469 1648.2031,79.7969 Q1648.5938,79.6406 1649.0156,79.2031 Q1649.2813,78.9375 1649.4297,78.8594 Q1649.5781,78.7813 1649.7813,78.7813 Q1650.1094,78.7813 1650.3672,79.0391 Q1650.625,79.2969 1650.625,79.6406 Q1650.625,79.9844 1650.2813,80.3906 Q1649.7813,80.9688 1648.9844,81.2969 Q1647.9063,81.75 1646.6094,81.75 Q1645.0938,81.75 1643.8906,81.125 Q1642.9063,80.625 1642.2188,79.5547 Q1641.5313,78.4844 1641.5313,77.2031 L1641.5313,76.0469 Q1641.5313,74.7188 1642.1484,73.5703 Q1642.7656,72.4219 1643.8594,71.8047 Q1644.9531,71.1875 1646.1875,71.1875 Q1646.9219,71.1875 1647.5703,71.3516 Q1648.2188,71.5156 1648.7656,71.875 Z "/><text fill="#000000" font-family="sans-serif" font-size="12" lengthAdjust="spacingAndGlyphs" textLength="26" x="1660" y="80.9102">View</text><line style="stroke: #A80036; stroke-width: 1.5;" x1="1632" x2="1688" y1="92" y2="92"/><line style="stroke: #A80036; stroke-width: 1.5;" x1="1632" x2="1688" y1="100" y2="100"/><!--class java.awt.event.KeyListener--><rect fill="#FEFECE" filter="url(#f1eu6m9dr87btn)" height="48" id="java.awt.event.KeyListener" style="stroke: #A80036; stroke-width: 1.5;" width="97" x="862.5" y="884"/><ellipse cx="877.5" cy="900" fill="#ADD1B2" rx="11" ry="11" style="stroke: #A80036; stroke-width: 1.0;"/><path d="M880.2656,895.875 Q880.4219,895.6563 880.6094,895.5469 Q880.7969,895.4375 881.0156,895.4375 Q881.3906,895.4375 881.625,895.6953 Q881.8594,895.9531 881.8594,896.5625 L881.8594,898.0156 Q881.8594,898.625 881.625,898.8906 Q881.3906,899.1563 881.0156,899.1563 Q880.6719,899.1563 880.4688,898.9531 Q880.2656,898.7656 880.1563,898.25 Q880.1094,897.8906 879.9219,897.7031 Q879.5938,897.3281 878.9844,897.1094 Q878.375,896.8906 877.75,896.8906 Q876.9844,896.8906 876.3516,897.2188 Q875.7188,897.5469 875.2266,898.2969 Q874.7344,899.0469 874.7344,900.0781 L874.7344,901.1719 Q874.7344,902.4063 875.625,903.2266 Q876.5156,904.0469 878.1094,904.0469 Q879.0469,904.0469 879.7031,903.7969 Q880.0938,903.6406 880.5156,903.2031 Q880.7813,902.9375 880.9297,902.8594 Q881.0781,902.7813 881.2813,902.7813 Q881.6094,902.7813 881.8672,903.0391 Q882.125,903.2969 882.125,903.6406 Q882.125,903.9844 881.7813,904.3906 Q881.2813,904.9688 880.4844,905.2969 Q879.4063,905.75 878.1094,905.75 Q876.5938,905.75 875.3906,905.125 Q874.4063,904.625 873.7188,903.5547 Q873.0313,902.4844 873.0313,901.2031 L873.0313,900.0469 Q873.0313,898.7188 873.6484,897.5703 Q874.2656,896.4219 875.3594,895.8047 Q876.4531,895.1875 877.6875,895.1875 Q878.4219,895.1875 879.0703,895.3516 Q879.7188,895.5156 880.2656,895.875 Z "/><text fill="#000000" font-family="sans-serif" font-size="12" lengthAdjust="spacingAndGlyphs" textLength="65" x="891.5" y="904.9102">KeyListener</text><line style="stroke: #A80036; stroke-width: 1.5;" x1="863.5" x2="958.5" y1="916" y2="916"/><line style="stroke: #A80036; stroke-width: 1.5;" x1="863.5" x2="958.5" y1="924" y2="924"/><!--class java.awt.event.ActionListener--><rect fill="#FEFECE" filter="url(#f1eu6m9dr87btn)" height="48" id="java.awt.event.ActionListener" style="stroke: #A80036; stroke-width: 1.5;" width="110" x="717" y="884"/><ellipse cx="732" cy="900" fill="#ADD1B2" rx="11" ry="11" style="stroke: #A80036; stroke-width: 1.0;"/><path d="M734.7656,895.875 Q734.9219,895.6563 735.1094,895.5469 Q735.2969,895.4375 735.5156,895.4375 Q735.8906,895.4375 736.125,895.6953 Q736.3594,895.9531 736.3594,896.5625 L736.3594,898.0156 Q736.3594,898.625 736.125,898.8906 Q735.8906,899.1563 735.5156,899.1563 Q735.1719,899.1563 734.9688,898.9531 Q734.7656,898.7656 734.6563,898.25 Q734.6094,897.8906 734.4219,897.7031 Q734.0938,897.3281 733.4844,897.1094 Q732.875,896.8906 732.25,896.8906 Q731.4844,896.8906 730.8516,897.2188 Q730.2188,897.5469 729.7266,898.2969 Q729.2344,899.0469 729.2344,900.0781 L729.2344,901.1719 Q729.2344,902.4063 730.125,903.2266 Q731.0156,904.0469 732.6094,904.0469 Q733.5469,904.0469 734.2031,903.7969 Q734.5938,903.6406 735.0156,903.2031 Q735.2813,902.9375 735.4297,902.8594 Q735.5781,902.7813 735.7813,902.7813 Q736.1094,902.7813 736.3672,903.0391 Q736.625,903.2969 736.625,903.6406 Q736.625,903.9844 736.2813,904.3906 Q735.7813,904.9688 734.9844,905.2969 Q733.9063,905.75 732.6094,905.75 Q731.0938,905.75 729.8906,905.125 Q728.9063,904.625 728.2188,903.5547 Q727.5313,902.4844 727.5313,901.2031 L727.5313,900.0469 Q727.5313,898.7188 728.1484,897.5703 Q728.7656,896.4219 729.8594,895.8047 Q730.9531,895.1875 732.1875,895.1875 Q732.9219,895.1875 733.5703,895.3516 Q734.2188,895.5156 734.7656,895.875 Z "/><text fill="#000000" font-family="sans-serif" font-size="12" lengthAdjust="spacingAndGlyphs" textLength="78" x="746" y="904.9102">ActionListener</text><line style="stroke: #A80036; stroke-width: 1.5;" x1="718" x2="826" y1="916" y2="916"/><line style="stroke: #A80036; stroke-width: 1.5;" x1="718" x2="826" y1="924" y2="924"/><!--class java.awt.event.KeyEvent--><rect fill="#FEFECE" filter="url(#f1eu6m9dr87btn)" height="48" id="java.awt.event.KeyEvent" style="stroke: #A80036; stroke-width: 1.5;" width="82" x="600" y="884"/><ellipse cx="615" cy="900" fill="#ADD1B2" rx="11" ry="11" style="stroke: #A80036; stroke-width: 1.0;"/><path d="M617.7656,895.875 Q617.9219,895.6563 618.1094,895.5469 Q618.2969,895.4375 618.5156,895.4375 Q618.8906,895.4375 619.125,895.6953 Q619.3594,895.9531 619.3594,896.5625 L619.3594,898.0156 Q619.3594,898.625 619.125,898.8906 Q618.8906,899.1563 618.5156,899.1563 Q618.1719,899.1563 617.9688,898.9531 Q617.7656,898.7656 617.6563,898.25 Q617.6094,897.8906 617.4219,897.7031 Q617.0938,897.3281 616.4844,897.1094 Q615.875,896.8906 615.25,896.8906 Q614.4844,896.8906 613.8516,897.2188 Q613.2188,897.5469 612.7266,898.2969 Q612.2344,899.0469 612.2344,900.0781 L612.2344,901.1719 Q612.2344,902.4063 613.125,903.2266 Q614.0156,904.0469 615.6094,904.0469 Q616.5469,904.0469 617.2031,903.7969 Q617.5938,903.6406 618.0156,903.2031 Q618.2813,902.9375 618.4297,902.8594 Q618.5781,902.7813 618.7813,902.7813 Q619.1094,902.7813 619.3672,903.0391 Q619.625,903.2969 619.625,903.6406 Q619.625,903.9844 619.2813,904.3906 Q618.7813,904.9688 617.9844,905.2969 Q616.9063,905.75 615.6094,905.75 Q614.0938,905.75 612.8906,905.125 Q611.9063,904.625 611.2188,903.5547 Q610.5313,902.4844 610.5313,901.2031 L610.5313,900.0469 Q610.5313,898.7188 611.1484,897.5703 Q611.7656,896.4219 612.8594,895.8047 Q613.9531,895.1875 615.1875,895.1875 Q615.9219,895.1875 616.5703,895.3516 Q617.2188,895.5156 617.7656,895.875 Z "/><text fill="#000000" font-family="sans-serif" font-size="12" lengthAdjust="spacingAndGlyphs" textLength="50" x="629" y="904.9102">KeyEvent</text><line style="stroke: #A80036; stroke-width: 1.5;" x1="601" x2="681" y1="916" y2="916"/><line style="stroke: #A80036; stroke-width: 1.5;" x1="601" x2="681" y1="924" y2="924"/><!--class java.awt.event.ActionEvent--><rect fill="#FEFECE" filter="url(#f1eu6m9dr87btn)" height="48" id="java.awt.event.ActionEvent" style="stroke: #A80036; stroke-width: 1.5;" width="95" x="994.5" y="884"/><ellipse cx="1009.5" cy="900" fill="#ADD1B2" rx="11" ry="11" style="stroke: #A80036; stroke-width: 1.0;"/><path d="M1012.2656,895.875 Q1012.4219,895.6563 1012.6094,895.5469 Q1012.7969,895.4375 1013.0156,895.4375 Q1013.3906,895.4375 1013.625,895.6953 Q1013.8594,895.9531 1013.8594,896.5625 L1013.8594,898.0156 Q1013.8594,898.625 1013.625,898.8906 Q1013.3906,899.1563 1013.0156,899.1563 Q1012.6719,899.1563 1012.4688,898.9531 Q1012.2656,898.7656 1012.1563,898.25 Q1012.1094,897.8906 1011.9219,897.7031 Q1011.5938,897.3281 1010.9844,897.1094 Q1010.375,896.8906 1009.75,896.8906 Q1008.9844,896.8906 1008.3516,897.2188 Q1007.7188,897.5469 1007.2266,898.2969 Q1006.7344,899.0469 1006.7344,900.0781 L1006.7344,901.1719 Q1006.7344,902.4063 1007.625,903.2266 Q1008.5156,904.0469 1010.1094,904.0469 Q1011.0469,904.0469 1011.7031,903.7969 Q1012.0938,903.6406 1012.5156,903.2031 Q1012.7813,902.9375 1012.9297,902.8594 Q1013.0781,902.7813 1013.2813,902.7813 Q1013.6094,902.7813 1013.8672,903.0391 Q1014.125,903.2969 1014.125,903.6406 Q1014.125,903.9844 1013.7813,904.3906 Q1013.2813,904.9688 1012.4844,905.2969 Q1011.4063,905.75 1010.1094,905.75 Q1008.5938,905.75 1007.3906,905.125 Q1006.4063,904.625 1005.7188,903.5547 Q1005.0313,902.4844 1005.0313,901.2031 L1005.0313,900.0469 Q1005.0313,898.7188 1005.6484,897.5703 Q1006.2656,896.4219 1007.3594,895.8047 Q1008.4531,895.1875 1009.6875,895.1875 Q1010.4219,895.1875 1011.0703,895.3516 Q1011.7188,895.5156 1012.2656,895.875 Z "/><text fill="#000000" font-family="sans-serif" font-size="12" lengthAdjust="spacingAndGlyphs" textLength="63" x="1023.5" y="904.9102">ActionEvent</text><line style="stroke: #A80036; stroke-width: 1.5;" x1="995.5" x2="1088.5" y1="916" y2="916"/><line style="stroke: #A80036; stroke-width: 1.5;" x1="995.5" x2="1088.5" y1="924" y2="924"/><!--link java.awt.GridBagConstraints to mastermind.views.graphics.Constraints--><path d="M1466,128.336 C1466,154.723 1466,187.774 1466,211.331 " fill="none" id="java.awt.GridBagConstraints-mastermind.views.graphics.Constraints" style="stroke: #A80036; stroke-width: 1.0;"/><polygon fill="none" points="1459,128.092,1466,108.092,1473,128.092,1459,128.092" style="stroke: #A80036; stroke-width: 1.0;"/><!--link javax.swing.JFrame to mastermind.views.graphics.GameView--><path d="M700.561,447.5 C841.998,447.5 983.435,447.5 1124.87,447.5 " fill="none" id="javax.swing.JFrame-mastermind.views.graphics.GameView" style="stroke: #A80036; stroke-width: 1.0;"/><polygon fill="none" points="700.148,454.5,680.148,447.5,700.148,440.5,700.148,454.5" style="stroke: #A80036; stroke-width: 1.0;"/><!--link mastermind.views.graphics.GameView to mastermind.views.graphics.ProposedCombinationsView--><path d="M1277,547.373 C1277,582.429 1277,620.409 1277,649.713 " fill="none" id="mastermind.views.graphics.GameView-mastermind.views.graphics.ProposedCombinationsView" style="stroke: #A80036; stroke-width: 1.0;"/><polygon fill="#A80036" points="1277,662.937,1281,653.937,1277,657.937,1273,653.937,1277,662.937" style="stroke: #A80036; stroke-width: 1.0;"/><line style="stroke: #A80036; stroke-width: 1.0;" x1="1277" x2="1277" y1="657.937" y2="649.937"/><polygon fill="#A80036" points="1277,534.349,1273,540.349,1277,546.349,1281,540.349,1277,534.349" style="stroke: #A80036; stroke-width: 1.0;"/><!--link mastermind.views.graphics.GameView to mastermind.views.graphics.SecretCombinationView--><path d="M1196.22,544.329 C1169.39,576.163 1140.26,610.713 1116.29,639.158 " fill="none" id="mastermind.views.graphics.GameView-mastermind.views.graphics.SecretCombinationView" style="stroke: #A80036; stroke-width: 1.0;"/><polygon fill="#A80036" points="1107.7,649.345,1116.5583,645.0403,1110.9219,645.5215,1110.4407,639.8852,1107.7,649.345" style="stroke: #A80036; stroke-width: 1.0;"/><line style="stroke: #A80036; stroke-width: 1.0;" x1="1110.9219" x2="1116.08" y1="645.5215" y2="639.4055"/><polygon fill="#A80036" points="1204.63,534.349,1197.7035,536.3547,1196.8908,543.5199,1203.8174,541.5142,1204.63,534.349" style="stroke: #A80036; stroke-width: 1.0;"/><!--link mastermind.views.graphics.GameView to mastermind.views.graphics.ProposalCombinationView--><path d="M1112.91,514.781 C1063.83,537.284 1010.91,564.326 965,594 C962.825,595.406 960.648,596.848 958.471,598.32 " fill="none" id="mastermind.views.graphics.GameView-mastermind.views.graphics.ProposalCombinationView" style="stroke: #A80036; stroke-width: 1.0;"/><polygon fill="#A80036" points="947.606,605.925,957.2731,604.0418,951.7025,603.0581,952.6861,597.4875,947.606,605.925" style="stroke: #A80036; stroke-width: 1.0;"/><line style="stroke: #A80036; stroke-width: 1.0;" x1="951.7025" x2="958.257" y1="603.0581" y2="598.47"/><polygon fill="#A80036" points="1124.96,509.308,1117.8422,508.1519,1114.0374,514.2776,1121.1552,515.4337,1124.96,509.308" style="stroke: #A80036; stroke-width: 1.0;"/><!--link mastermind.views.graphics.GameView to mastermind.controllers.StartController--><path d="M1380.85,534.086 C1399.91,552.634 1418.62,573.019 1434,594 C1503.51,688.824 1553.2,821.468 1572.78,878.7839 " fill="none" id="mastermind.views.graphics.GameView-mastermind.controllers.StartController" style="stroke: #A80036; stroke-width: 1.0; stroke-dasharray: 7.0,7.0;"/><polygon fill="#A80036" points="1574.47,883.7644,1575.3706,873.9568,1572.8656,879.0288,1567.7936,876.5238,1574.47,883.7644" style="stroke: #A80036; stroke-width: 1.0;"/><!--link mastermind.views.graphics.GameView to mastermind.controllers.ProposalController--><path d="M1355.75,534.025 C1369.23,552.651 1381.58,573.083 1390,594 C1429.73,692.701 1428.11,822.338 1425.06,878.7472 " fill="none" id="mastermind.views.graphics.GameView-mastermind.controllers.ProposalController" style="stroke: #A80036; stroke-width: 1.0; stroke-dasharray: 7.0,7.0;"/><polygon fill="#A80036" points="1424.76,883.974,1429.2657,875.2162,1425.0445,878.9821,1421.2787,874.761,1424.76,883.974" style="stroke: #A80036; stroke-width: 1.0;"/><!--link mastermind.views.View to mastermind.views.graphics.GraphicsView--><path d="M1660,128.318 C1660,145.479 1660,165.46 1660,183.816 " fill="none" id="mastermind.views.View-mastermind.views.graphics.GraphicsView" style="stroke: #A80036; stroke-width: 1.0;"/><polygon fill="none" points="1653,128.092,1660,108.092,1667,128.092,1653,128.092" style="stroke: #A80036; stroke-width: 1.0;"/><!--link mastermind.views.graphics.GraphicsView to mastermind.views.graphics.GameView--><path d="M1564.9,297.783 C1562.92,298.869 1560.95,299.942 1559,301 C1520.96,321.633 1479.7,343.304 1440.8,363.434 " fill="none" id="mastermind.views.graphics.GraphicsView-mastermind.views.graphics.GameView" style="stroke: #A80036; stroke-width: 1.0;"/><polygon fill="#A80036" points="1429.08,369.488,1438.9118,368.9079,1433.5215,367.1917,1435.2377,361.8015,1429.08,369.488" style="stroke: #A80036; stroke-width: 1.0;"/><line style="stroke: #A80036; stroke-width: 1.0;" x1="1433.5215" x2="1440.63" y1="367.1917" y2="363.5215"/><polygon fill="#A80036" points="1576.38,291.459,1569.194,290.8574,1565.8749,297.2593,1573.0609,297.8608,1576.38,291.459" style="stroke: #A80036; stroke-width: 1.0;"/><!--link mastermind.views.graphics.GraphicsView to mastermind.controllers.ResumeController--><path d="M1668.07,301.144 C1670.68,320.191 1673.53,341.495 1676,361 C1701.09,559.039 1727.9,797.942 1736.88,878.7398 " fill="none" id="mastermind.views.graphics.GraphicsView-mastermind.controllers.ResumeController" style="stroke: #A80036; stroke-width: 1.0; stroke-dasharray: 7.0,7.0;"/><polygon fill="#A80036" points="1737.44,883.831,1740.4229,874.4447,1736.8885,878.8615,1732.4717,875.3271,1737.44,883.831" style="stroke: #A80036; stroke-width: 1.0;"/><!--link mastermind.views.graphics.GraphicsView to mastermind.controllers.StartController--><path d="M1658.51,301.284 C1654.91,407.382 1643,639.985 1605,832 C1601.89,847.707 1596.79,864.8042 1592.18,878.7028 " fill="none" id="mastermind.views.graphics.GraphicsView-mastermind.controllers.StartController" style="stroke: #A80036; stroke-width: 1.0; stroke-dasharray: 7.0,7.0;"/><polygon fill="#A80036" points="1590.5,883.6701,1597.1601,876.4146,1592.0938,878.9309,1589.5774,873.8645,1590.5,883.6701" style="stroke: #A80036; stroke-width: 1.0;"/><!--link mastermind.views.graphics.GraphicsView to mastermind.controllers.ProposalController--><path d="M1639.38,301.221 C1590.43,438.263 1468.64,779.216 1432.97,879.091 " fill="none" id="mastermind.views.graphics.GraphicsView-mastermind.controllers.ProposalController" style="stroke: #A80036; stroke-width: 1.0; stroke-dasharray: 7.0,7.0;"/><polygon fill="#A80036" points="1431.24,883.941,1438.0316,876.8083,1432.9201,879.2317,1430.4967,874.1202,1431.24,883.941" style="stroke: #A80036; stroke-width: 1.0;"/><!--link java.awt.event.KeyListener to mastermind.views.graphics.ProposalCombinationView--><path d="M896.745,864.6483 C891.154,848.036 884.464,828.161 877.713,808.103 " fill="none" id="java.awt.event.KeyListener-mastermind.views.graphics.ProposalCombinationView" style="stroke: #A80036; stroke-width: 1.0;"/><polygon fill="none" points="903.417,862.526,903.162,883.7146,890.148,866.9925,903.417,862.526" style="stroke: #A80036; stroke-width: 1.0;"/><!--link java.awt.event.ActionListener to mastermind.views.graphics.ProposalCombinationView--><path d="M786.462,864.6483 C792.134,848.036 798.92,828.161 805.77,808.103 " fill="none" id="java.awt.event.ActionListener-mastermind.views.graphics.ProposalCombinationView" style="stroke: #A80036; stroke-width: 1.0;"/><polygon fill="none" points="793.039,867.0496,779.951,883.7146,779.79,862.526,793.039,867.0496" style="stroke: #A80036; stroke-width: 1.0;"/><!--link javax.swing.JPanel to mastermind.views.graphics.ProposalCombinationView--><path d="M556.094,489.681 C564.629,504.677 575.51,521.098 588,534 C630.778,578.189 687.366,616.599 736.271,645.309 " fill="none" id="javax.swing.JPanel-mastermind.views.graphics.ProposalCombinationView" style="stroke: #A80036; stroke-width: 1.0;"/><polygon fill="none" points="549.806,492.766,546.592,471.822,562.166,486.191,549.806,492.766" style="stroke: #A80036; stroke-width: 1.0;"/><!--link mastermind.views.graphics.ProposalCombinationView to javax.swing.JButton--><path d="M722.971,699.179 C571.63,692.528 308.472,661.616 129,534 C111.415,521.496 98.2678,501.29 89.3512,483.661 " fill="none" id="mastermind.views.graphics.ProposalCombinationView-javax.swing.JButton" style="stroke: #A80036; stroke-width: 1.0;"/><polygon fill="#A80036" points="83.7273,471.711,83.9405,481.5576,85.8564,476.235,91.1789,478.151,83.7273,471.711" style="stroke: #A80036; stroke-width: 1.0;"/><line style="stroke: #A80036; stroke-width: 1.0;" x1="85.8564" x2="89.2629" y1="476.235" y2="483.4735"/><polygon fill="#A80036" points="736.363,699.717,730.5283,695.4795,724.3727,699.2356,730.2074,703.4731,736.363,699.717" style="stroke: #A80036; stroke-width: 1.0;"/><!--link mastermind.views.graphics.ProposalCombinationView to javax.swing.JTextField--><path d="M723.421,678.232 C623.77,655.366 481.589,611.613 379,534 C361.277,520.592 346.604,500.572 336.093,483.275 " fill="none" id="mastermind.views.graphics.ProposalCombinationView-javax.swing.JTextField" style="stroke: #A80036; stroke-width: 1.0;"/><polygon fill="#A80036" points="329.495,471.849,330.5313,481.6432,331.9952,476.179,337.4594,477.6429,329.495,471.849" style="stroke: #A80036; stroke-width: 1.0;"/><line style="stroke: #A80036; stroke-width: 1.0;" x1="331.9952" x2="335.996" y1="476.179" y2="483.107"/><polygon fill="#A80036" points="736.273,681.12,731.2958,675.902,724.5649,678.4893,729.5421,683.7074,736.273,681.12" style="stroke: #A80036; stroke-width: 1.0;"/><!--link mastermind.views.graphics.ProposalCombinationView to javax.swing.JLabel--><path d="M723.93,665.307 C648.524,638.66 552.269,595.834 483,534 C467.46,520.128 455.07,500.495 446.288,483.541 " fill="none" id="mastermind.views.graphics.ProposalCombinationView-javax.swing.JLabel" style="stroke: #A80036; stroke-width: 1.0;"/><polygon fill="#A80036" points="440.538,471.789,440.9011,481.6312,442.7357,476.2801,448.0868,478.1148,440.538,471.789" style="stroke: #A80036; stroke-width: 1.0;"/><line style="stroke: #A80036; stroke-width: 1.0;" x1="442.7357" x2="446.252" y1="476.2801" y2="483.466"/><polygon fill="#A80036" points="736.322,669.607,731.9648,663.8612,724.9851,665.6733,729.3423,671.4191,736.322,669.607" style="stroke: #A80036; stroke-width: 1.0;"/><!--link mastermind.views.graphics.ProposalCombinationView to javax.swing.JRootPane--><path d="M736.445,690.575 C612.179,675.112 404.124,635.164 257,534 C235.732,519.376 218.67,495.376 207.529,476.52 " fill="none" id="mastermind.views.graphics.ProposalCombinationView-javax.swing.JRootPane" style="stroke: #A80036; stroke-width: 1.0; stroke-dasharray: 7.0,7.0;"/><polygon fill="#A80036" points="204.825,471.846,205.8711,481.6391,207.3295,476.1735,212.7951,477.6319,204.825,471.846" style="stroke: #A80036; stroke-width: 1.0;"/><!--link mastermind.views.graphics.ProposalCombinationView to java.awt.event.KeyEvent--><path d="M736.28,801.936 C723.548,814.581 710.864,827.477 699,840 C686.927,852.744 674.094,867.4377 663.577,879.8115 " fill="none" id="mastermind.views.graphics.ProposalCombinationView-java.awt.event.KeyEvent" style="stroke: #A80036; stroke-width: 1.0; stroke-dasharray: 7.0,7.0;"/><polygon fill="#A80036" points="660.104,883.9127,668.9729,879.6299,663.3354,880.0972,662.8681,874.4597,660.104,883.9127" style="stroke: #A80036; stroke-width: 1.0;"/><!--link mastermind.views.graphics.ProposalCombinationView to java.awt.event.ActionEvent--><path d="M938.388,808.034 C947.155,816.389 956.092,824.489 965,832 C969.9,836.132 972.074,835.899 977,840 C991.561,852.122 1006.38,867.1454 1018.18,879.8918 " fill="none" id="mastermind.views.graphics.ProposalCombinationView-java.awt.event.ActionEvent" style="stroke: #A80036; stroke-width: 1.0; stroke-dasharray: 7.0,7.0;"/><polygon fill="#A80036" points="1021.74,883.7687,1018.6008,874.4335,1018.3589,880.0852,1012.7072,879.8433,1021.74,883.7687" style="stroke: #A80036; stroke-width: 1.0;"/><!--link javax.swing.JPanel to mastermind.views.graphics.ProposedCombinationsView--><path d="M551.534,489.932 C559.83,506.344 571.749,523.719 588,534 C805.51,671.609 929.898,487.027 1164,594 C1197.64,609.372 1227.74,638.81 1248.4,662.771 " fill="none" id="javax.swing.JPanel-mastermind.views.graphics.ProposedCombinationsView" style="stroke: #A80036; stroke-width: 1.0;"/><polygon fill="none" points="545.11,492.713,543.419,471.591,557.913,487.048,545.11,492.713" style="stroke: #A80036; stroke-width: 1.0;"/><!--link mastermind.views.graphics.ProposedCombinationsView to mastermind.controllers.ProposalController--><path d="M1303.44,739.124 C1332.26,779.593 1377.7,843.398 1403.47,879.5745 " fill="none" id="mastermind.views.graphics.ProposedCombinationsView-mastermind.controllers.ProposalController" style="stroke: #A80036; stroke-width: 1.0; stroke-dasharray: 7.0,7.0;"/><polygon fill="#A80036" points="1406.51,883.8459,1404.5457,874.1949,1403.6088,879.7736,1398.0301,878.8368,1406.51,883.8459" style="stroke: #A80036; stroke-width: 1.0;"/><!--link javax.swing.JLabel to mastermind.views.graphics.ProposedCombinationView--><path d="M446.462,404.952 C454.744,388.52 466.674,371.161 483,361 C610.288,281.778 1011.22,343.475 1155,301 C1161.57,299.06 1168.19,296.707 1174.76,294.074 " fill="none" id="javax.swing.JLabel-mastermind.views.graphics.ProposedCombinationView" style="stroke: #A80036; stroke-width: 1.0;"/><polygon fill="none" points="452.836,407.846,438.369,423.329,440.023,402.204,452.836,407.846" style="stroke: #A80036; stroke-width: 1.0;"/><!--link javax.swing.JLabel to mastermind.views.graphics.ResultView--><path d="M446.579,405.138 C454.882,388.738 466.795,371.354 483,361 C682.766,233.364 794.352,392.6 1013,301 C1028.07,294.687 1042.51,284.146 1054.38,273.801 " fill="none" id="javax.swing.JLabel-mastermind.views.graphics.ResultView" style="stroke: #A80036; stroke-width: 1.0;"/><polygon fill="none" points="452.96,408.016,438.449,423.457,440.164,402.337,452.96,408.016" style="stroke: #A80036; stroke-width: 1.0;"/><!--link javax.swing.JPanel to mastermind.views.graphics.SecretCombinationView--><path d="M552.108,490.095 C560.435,506.264 572.223,523.411 588,534 C728.877,628.55 814.995,514.725 965,594 C989.94,607.181 1012.13,628.988 1029.22,649.407 " fill="none" id="javax.swing.JPanel-mastermind.views.graphics.SecretCombinationView" style="stroke: #A80036; stroke-width: 1.0;"/><polygon fill="none" points="545.647,492.796,543.761,471.691,558.397,487.014,545.647,492.796" style="stroke: #A80036; stroke-width: 1.0;"/><!--link mastermind.views.graphics.SecretCombinationView to javax.swing.JLabel--><path d="M1020.84,639.089 C1005.176,621.764 986.127,604.71 965,594 C772.452,496.391 664.265,651.24 483,534 C464.952,522.327 452.204,501.969 443.848,484.045 " fill="none" id="mastermind.views.graphics.SecretCombinationView-javax.swing.JLabel" style="stroke: #A80036; stroke-width: 1.0;"/><polygon fill="#A80036" points="438.64,471.874,438.5033,481.7219,440.6071,476.4708,445.8582,478.5746,438.64,471.874" style="stroke: #A80036; stroke-width: 1.0;"/><line style="stroke: #A80036; stroke-width: 1.0;" x1="440.6071" x2="443.754" y1="476.4708" y2="483.826"/><polygon fill="#A80036" points="1029.66,649.276,1028.7559,642.1218,1021.8043,640.2047,1022.7084,647.3589,1029.66,649.276" style="stroke: #A80036; stroke-width: 1.0;"/><!--link javax.swing.JLabel to mastermind.views.graphics.TurnView--><path d="M448.963,405.32 C457.426,389.745 468.816,372.919 483,361 C558.691,297.396 672.871,265.609 736.311,252.023 " fill="none" id="javax.swing.JLabel-mastermind.views.graphics.TurnView" style="stroke: #A80036; stroke-width: 1.0;"/><polygon fill="none" points="455.226,408.446,440.101,423.286,442.671,402.253,455.226,408.446" style="stroke: #A80036; stroke-width: 1.0;"/><!--
@startuml

class  mastermind.views.graphics.Constraints{
~ Constraints(int, int, int, int)
}
java.awt.GridBagConstraints <|-down- mastermind.views.graphics.Constraints

class  mastermind.views.graphics.GameView{
- {static} GAME_OVER: String
- secretCombinationView: SecretCombinationView
- proposedCombinationsView: ProposedCombinationsView
- proposalCombinationView: ProposalCombinationView
~ GameView()
- clear(): void
~ interact(StartController): void
~ interact(ProposalController): void
- drawGameOver(ProposalController): void
}
javax.swing.JFrame <|-down- mastermind.views.graphics.GameView
mastermind.views.graphics.GameView *-down-> mastermind.views.graphics.ProposedCombinationsView
mastermind.views.graphics.GameView *-down-> mastermind.views.graphics.SecretCombinationView
mastermind.views.graphics.GameView *-down-> mastermind.views.graphics.ProposalCombinationView
mastermind.views.graphics.GameView ..> mastermind.controllers.StartController
mastermind.views.graphics.GameView ..> mastermind.controllers.ProposalController

class  mastermind.views.graphics.GraphicsView{
- gameView: GameView
+ GraphicsView()
+ visit(ResumeController): void
+ visit(ProposalController): void
+ visit(StartController): void
}
mastermind.views.View <|-down- mastermind.views.graphics.GraphicsView
mastermind.views.graphics.GraphicsView *-down-> mastermind.views.graphics.GameView
mastermind.views.graphics.GraphicsView ..> mastermind.controllers.ResumeController
mastermind.views.graphics.GraphicsView ..> mastermind.controllers.StartController
mastermind.views.graphics.GraphicsView ..> mastermind.controllers.ProposalController

class  mastermind.views.graphics.ProposalCombinationView{
- {static} ACCEPT: String
- label: JLabel
- textField: JTextField
- button: JButton
- characters: String
~ ProposalCombinationView(JRootPane)
+ keyPressed(KeyEvent): void
+ keyReleased(KeyEvent): void
+ keyTyped(KeyEvent): void
+ actionPerformed(ActionEvent): void
~ resetCharacters(): void
~ getCharacters(): String
}
java.awt.event.KeyListener <|-down- mastermind.views.graphics.ProposalCombinationView
java.awt.event.ActionListener <|-down- mastermind.views.graphics.ProposalCombinationView
javax.swing.JPanel <|-down- mastermind.views.graphics.ProposalCombinationView
mastermind.views.graphics.ProposalCombinationView *-down-> javax.swing.JButton
mastermind.views.graphics.ProposalCombinationView *-down-> javax.swing.JTextField
mastermind.views.graphics.ProposalCombinationView *-down-> javax.swing.JLabel
mastermind.views.graphics.ProposalCombinationView ..> javax.swing.JRootPane
mastermind.views.graphics.ProposalCombinationView ..> java.awt.event.KeyEvent
mastermind.views.graphics.ProposalCombinationView ..> java.awt.event.ActionEvent

class  mastermind.views.graphics.ProposedCombinationsView{
~ ProposedCombinationsView()
~ add(ProposalController): void
}
javax.swing.JPanel <|-down- mastermind.views.graphics.ProposedCombinationsView
mastermind.views.graphics.ProposedCombinationsView ..> mastermind.controllers.ProposalController

class  mastermind.views.graphics.ProposedCombinationView{
+ {static} ERROR_CODE: int
~ ProposedCombinationView(int[])
~ ProposedCombinationView()
~ read(String): int[]
}
javax.swing.JLabel <|-down- mastermind.views.graphics.ProposedCombinationView

class  mastermind.views.graphics.ResultView{
~ ResultView(int[])
}
javax.swing.JLabel <|-down- mastermind.views.graphics.ResultView

class  mastermind.views.graphics.ResumeDialog{
- resume: boolean
~ ResumeDialog()
~ isResumed(): boolean
}

class  mastermind.views.graphics.SecretCombinationView{
- {static} TITLE: String
- title: JLabel
- secretCombination: JLabel
~ SecretCombinationView(int)
}
javax.swing.JPanel <|-down- mastermind.views.graphics.SecretCombinationView
mastermind.views.graphics.SecretCombinationView *-down-> javax.swing.JLabel

class  mastermind.views.graphics.TurnView{
~ TurnView(int)
}
javax.swing.JLabel <|-down- mastermind.views.graphics.TurnView

@enduml

PlantUML version 1.2019.05(Sat Apr 20 18:45:36 CEST 2019)
(GPL source distribution)
Java Runtime: OpenJDK Runtime Environment
JVM: OpenJDK 64-Bit Server VM
Java Version: 1.8.0_222-b10
Operating System: Windows 10
OS Version: 10.0
Default Encoding: windows-1252
Language: es
Country: ES
--></g></svg>