<?xml version="1.0" encoding="UTF-8" standalone="no"?><svg xmlns="http://www.w3.org/2000/svg" xmlns:xlink="http://www.w3.org/1999/xlink" contentScriptType="application/ecmascript" contentStyleType="text/css" height="751px" preserveAspectRatio="none" style="width:1026px;height:751px;" version="1.1" viewBox="0 0 1026 751" width="1026px" zoomAndPan="magnify"><defs><filter height="300%" id="f1pzy6bbvpsi5i" width="300%" x="-1" y="-1"><feGaussianBlur result="blurOut" stdDeviation="2.0"/><feColorMatrix in="blurOut" result="blurOut2" type="matrix" values="0 0 0 0 0 0 0 0 0 0 0 0 0 0 0 0 0 0 .4 0"/><feOffset dx="4.0" dy="4.0" in="blurOut2" result="blurOut3"/><feBlend in="SourceGraphic" in2="blurOut3" mode="normal"/></filter></defs><g><!--cluster mastermind.controllers--><polygon fill="#FFFFFF" filter="url(#f1pzy6bbvpsi5i)" points="22,24,191,24,198,47.6094,660,47.6094,660,739,22,739,22,24" style="stroke: #000000; stroke-width: 1.5;"/><line style="stroke: #000000; stroke-width: 1.5;" x1="22" x2="198" y1="47.6094" y2="47.6094"/><text fill="#000000" font-family="sans-serif" font-size="14" font-weight="bold" lengthAdjust="spacingAndGlyphs" textLength="163" x="26" y="40.5332">mastermind.controllers</text><!--cluster mastermind.models--><polygon fill="#FFFFFF" filter="url(#f1pzy6bbvpsi5i)" points="684,399,827,399,834,422.6094,1004,422.6094,1004,499,684,499,684,399" style="stroke: #000000; stroke-width: 1.5;"/><line style="stroke: #000000; stroke-width: 1.5;" x1="684" x2="834" y1="422.6094" y2="422.6094"/><text fill="#000000" font-family="sans-serif" font-size="14" font-weight="bold" lengthAdjust="spacingAndGlyphs" textLength="137" x="688" y="415.5332">mastermind.models</text><!--cluster java.util--><polygon fill="#FFFFFF" filter="url(#f1pzy6bbvpsi5i)" points="820,235.5,881,235.5,888,259.1094,908,259.1094,908,335.5,820,335.5,820,235.5" style="stroke: #000000; stroke-width: 1.5;"/><line style="stroke: #000000; stroke-width: 1.5;" x1="820" x2="888" y1="259.1094" y2="259.1094"/><text fill="#000000" font-family="sans-serif" font-size="14" font-weight="bold" lengthAdjust="spacingAndGlyphs" textLength="55" x="824" y="252.0332">java.util</text><!--class mastermind.controllers.Controller--><rect fill="#FEFECE" filter="url(#f1pzy6bbvpsi5i)" height="117.1797" id="mastermind.controllers.Controller" style="stroke: #A80036; stroke-width: 1.5;" width="180" x="408" y="237"/><ellipse cx="466.75" cy="253" fill="#ADD1B2" rx="11" ry="11" style="stroke: #A80036; stroke-width: 1.0;"/><path d="M469.5156,248.875 Q469.6719,248.6563 469.8594,248.5469 Q470.0469,248.4375 470.2656,248.4375 Q470.6406,248.4375 470.875,248.6953 Q471.1094,248.9531 471.1094,249.5625 L471.1094,251.0156 Q471.1094,251.625 470.875,251.8906 Q470.6406,252.1563 470.2656,252.1563 Q469.9219,252.1563 469.7188,251.9531 Q469.5156,251.7656 469.4063,251.25 Q469.3594,250.8906 469.1719,250.7031 Q468.8438,250.3281 468.2344,250.1094 Q467.625,249.8906 467,249.8906 Q466.2344,249.8906 465.6016,250.2188 Q464.9688,250.5469 464.4766,251.2969 Q463.9844,252.0469 463.9844,253.0781 L463.9844,254.1719 Q463.9844,255.4063 464.875,256.2266 Q465.7656,257.0469 467.3594,257.0469 Q468.2969,257.0469 468.9531,256.7969 Q469.3438,256.6406 469.7656,256.2031 Q470.0313,255.9375 470.1797,255.8594 Q470.3281,255.7813 470.5313,255.7813 Q470.8594,255.7813 471.1172,256.0391 Q471.375,256.2969 471.375,256.6406 Q471.375,256.9844 471.0313,257.3906 Q470.5313,257.9688 469.7344,258.2969 Q468.6563,258.75 467.3594,258.75 Q465.8438,258.75 464.6406,258.125 Q463.6563,257.625 462.9688,256.5547 Q462.2813,255.4844 462.2813,254.2031 L462.2813,253.0469 Q462.2813,251.7188 462.8984,250.5703 Q463.5156,249.4219 464.6094,248.8047 Q465.7031,248.1875 466.9375,248.1875 Q467.6719,248.1875 468.3203,248.3516 Q468.9688,248.5156 469.5156,248.875 Z "/><text fill="#000000" font-family="sans-serif" font-size="12" lengthAdjust="spacingAndGlyphs" textLength="54" x="487.25" y="257.9102">Controller</text><line style="stroke: #A80036; stroke-width: 1.5;" x1="409" x2="587" y1="269" y2="269"/><polygon fill="none" points="419,276.418,423,280.418,419,284.418,415,280.418" style="stroke: #B38D22; stroke-width: 1.0;"/><text fill="#000000" font-family="sans-serif" font-size="11" lengthAdjust="spacingAndGlyphs" textLength="60" x="428" y="284.4189">game: Game</text><polygon fill="none" points="419,290.2539,423,294.2539,419,298.2539,415,294.2539" style="stroke: #B38D22; stroke-width: 1.0;"/><text fill="#000000" font-family="sans-serif" font-size="11" lengthAdjust="spacingAndGlyphs" textLength="55" x="428" y="298.2549">state: State</text><line style="stroke: #A80036; stroke-width: 1.5;" x1="409" x2="587" y1="304.6719" y2="304.6719"/><polygon fill="#4177AF" points="419,313.0898,415,319.0898,423,319.0898" style="stroke: #1963A0; stroke-width: 1.0;"/><text fill="#000000" font-family="sans-serif" font-size="11" lengthAdjust="spacingAndGlyphs" textLength="113" x="428" y="320.0908">Controller(State, Game)</text><ellipse cx="419" cy="330.9258" fill="#84BE84" rx="3" ry="3" style="stroke: #038048; stroke-width: 1.0;"/><text fill="#000000" font-family="sans-serif" font-size="11" font-style="italic" lengthAdjust="spacingAndGlyphs" textLength="154" x="428" y="333.9268">accept(ControllersVisitor): void</text><ellipse cx="419" cy="344.7617" fill="#84BE84" rx="3" ry="3" style="stroke: #038048; stroke-width: 1.0;"/><text fill="#000000" font-family="sans-serif" font-size="11" lengthAdjust="spacingAndGlyphs" textLength="67" x="428" y="347.7627">getWidth(): int</text><!--class mastermind.controllers.ControllersVisitor--><rect fill="#FEFECE" filter="url(#f1pzy6bbvpsi5i)" height="89.5078" id="mastermind.controllers.ControllersVisitor" style="stroke: #A80036; stroke-width: 1.5;" width="173" x="360.5" y="414"/><ellipse cx="396.2" cy="430" fill="#ADD1B2" rx="11" ry="11" style="stroke: #A80036; stroke-width: 1.0;"/><path d="M398.9656,425.875 Q399.1219,425.6563 399.3094,425.5469 Q399.4969,425.4375 399.7156,425.4375 Q400.0906,425.4375 400.325,425.6953 Q400.5594,425.9531 400.5594,426.5625 L400.5594,428.0156 Q400.5594,428.625 400.325,428.8906 Q400.0906,429.1563 399.7156,429.1563 Q399.3719,429.1563 399.1688,428.9531 Q398.9656,428.7656 398.8563,428.25 Q398.8094,427.8906 398.6219,427.7031 Q398.2938,427.3281 397.6844,427.1094 Q397.075,426.8906 396.45,426.8906 Q395.6844,426.8906 395.0516,427.2188 Q394.4188,427.5469 393.9266,428.2969 Q393.4344,429.0469 393.4344,430.0781 L393.4344,431.1719 Q393.4344,432.4063 394.325,433.2266 Q395.2156,434.0469 396.8094,434.0469 Q397.7469,434.0469 398.4031,433.7969 Q398.7938,433.6406 399.2156,433.2031 Q399.4813,432.9375 399.6297,432.8594 Q399.7781,432.7813 399.9813,432.7813 Q400.3094,432.7813 400.5672,433.0391 Q400.825,433.2969 400.825,433.6406 Q400.825,433.9844 400.4813,434.3906 Q399.9813,434.9688 399.1844,435.2969 Q398.1063,435.75 396.8094,435.75 Q395.2938,435.75 394.0906,435.125 Q393.1063,434.625 392.4188,433.5547 Q391.7313,432.4844 391.7313,431.2031 L391.7313,430.0469 Q391.7313,428.7188 392.3484,427.5703 Q392.9656,426.4219 394.0594,425.8047 Q395.1531,425.1875 396.3875,425.1875 Q397.1219,425.1875 397.7703,425.3516 Q398.4188,425.5156 398.9656,425.875 Z "/><text fill="#000000" font-family="sans-serif" font-size="12" lengthAdjust="spacingAndGlyphs" textLength="95" x="414.8" y="434.9102">ControllersVisitor</text><line style="stroke: #A80036; stroke-width: 1.5;" x1="361.5" x2="532.5" y1="446" y2="446"/><line style="stroke: #A80036; stroke-width: 1.5;" x1="361.5" x2="532.5" y1="454" y2="454"/><ellipse cx="371.5" cy="466.418" fill="#84BE84" rx="3" ry="3" style="stroke: #038048; stroke-width: 1.0;"/><text fill="#000000" font-family="sans-serif" font-size="11" font-style="italic" lengthAdjust="spacingAndGlyphs" textLength="126" x="380.5" y="469.4189">visit(StartController): void</text><ellipse cx="371.5" cy="480.2539" fill="#84BE84" rx="3" ry="3" style="stroke: #038048; stroke-width: 1.0;"/><text fill="#000000" font-family="sans-serif" font-size="11" font-style="italic" lengthAdjust="spacingAndGlyphs" textLength="147" x="380.5" y="483.2549">visit(ProposalController): void</text><ellipse cx="371.5" cy="494.0898" fill="#84BE84" rx="3" ry="3" style="stroke: #038048; stroke-width: 1.0;"/><text fill="#000000" font-family="sans-serif" font-size="11" font-style="italic" lengthAdjust="spacingAndGlyphs" textLength="144" x="380.5" y="497.0908">visit(ResumeController): void</text><!--class mastermind.controllers.ResumeController--><rect fill="#FEFECE" filter="url(#f1pzy6bbvpsi5i)" height="89.5078" id="mastermind.controllers.ResumeController" style="stroke: #A80036; stroke-width: 1.5;" width="178" x="466" y="598.5"/><ellipse cx="500.8" cy="614.5" fill="#ADD1B2" rx="11" ry="11" style="stroke: #A80036; stroke-width: 1.0;"/><path d="M503.5656,610.375 Q503.7219,610.1563 503.9094,610.0469 Q504.0969,609.9375 504.3156,609.9375 Q504.6906,609.9375 504.925,610.1953 Q505.1594,610.4531 505.1594,611.0625 L505.1594,612.5156 Q505.1594,613.125 504.925,613.3906 Q504.6906,613.6563 504.3156,613.6563 Q503.9719,613.6563 503.7688,613.4531 Q503.5656,613.2656 503.4563,612.75 Q503.4094,612.3906 503.2219,612.2031 Q502.8938,611.8281 502.2844,611.6094 Q501.675,611.3906 501.05,611.3906 Q500.2844,611.3906 499.6516,611.7188 Q499.0188,612.0469 498.5266,612.7969 Q498.0344,613.5469 498.0344,614.5781 L498.0344,615.6719 Q498.0344,616.9063 498.925,617.7266 Q499.8156,618.5469 501.4094,618.5469 Q502.3469,618.5469 503.0031,618.2969 Q503.3938,618.1406 503.8156,617.7031 Q504.0813,617.4375 504.2297,617.3594 Q504.3781,617.2813 504.5813,617.2813 Q504.9094,617.2813 505.1672,617.5391 Q505.425,617.7969 505.425,618.1406 Q505.425,618.4844 505.0813,618.8906 Q504.5813,619.4688 503.7844,619.7969 Q502.7063,620.25 501.4094,620.25 Q499.8938,620.25 498.6906,619.625 Q497.7063,619.125 497.0188,618.0547 Q496.3313,616.9844 496.3313,615.7031 L496.3313,614.5469 Q496.3313,613.2188 496.9484,612.0703 Q497.5656,610.9219 498.6594,610.3047 Q499.7531,609.6875 500.9875,609.6875 Q501.7219,609.6875 502.3703,609.8516 Q503.0188,610.0156 503.5656,610.375 Z "/><text fill="#000000" font-family="sans-serif" font-size="12" lengthAdjust="spacingAndGlyphs" textLength="102" x="519.2" y="619.4102">ResumeController</text><line style="stroke: #A80036; stroke-width: 1.5;" x1="467" x2="643" y1="630.5" y2="630.5"/><line style="stroke: #A80036; stroke-width: 1.5;" x1="467" x2="643" y1="638.5" y2="638.5"/><ellipse cx="477" cy="650.918" fill="#84BE84" rx="3" ry="3" style="stroke: #038048; stroke-width: 1.0;"/><text fill="#000000" font-family="sans-serif" font-size="11" lengthAdjust="spacingAndGlyphs" textLength="152" x="486" y="653.9189">ResumeController(State, Game)</text><ellipse cx="477" cy="664.7539" fill="#84BE84" rx="3" ry="3" style="stroke: #038048; stroke-width: 1.0;"/><text fill="#000000" font-family="sans-serif" font-size="11" lengthAdjust="spacingAndGlyphs" textLength="150" x="486" y="667.7549">accept(ControllersVisitor): void</text><ellipse cx="477" cy="678.5898" fill="#84BE84" rx="3" ry="3" style="stroke: #038048; stroke-width: 1.0;"/><text fill="#000000" font-family="sans-serif" font-size="11" lengthAdjust="spacingAndGlyphs" textLength="108" x="486" y="681.5908">resume(boolean): void</text><!--class mastermind.controllers.StartController--><rect fill="#FEFECE" filter="url(#f1pzy6bbvpsi5i)" height="89.5078" id="mastermind.controllers.StartController" style="stroke: #A80036; stroke-width: 1.5;" width="176" x="38" y="598.5"/><ellipse cx="82.25" cy="614.5" fill="#ADD1B2" rx="11" ry="11" style="stroke: #A80036; stroke-width: 1.0;"/><path d="M85.0156,610.375 Q85.1719,610.1563 85.3594,610.0469 Q85.5469,609.9375 85.7656,609.9375 Q86.1406,609.9375 86.375,610.1953 Q86.6094,610.4531 86.6094,611.0625 L86.6094,612.5156 Q86.6094,613.125 86.375,613.3906 Q86.1406,613.6563 85.7656,613.6563 Q85.4219,613.6563 85.2188,613.4531 Q85.0156,613.2656 84.9063,612.75 Q84.8594,612.3906 84.6719,612.2031 Q84.3438,611.8281 83.7344,611.6094 Q83.125,611.3906 82.5,611.3906 Q81.7344,611.3906 81.1016,611.7188 Q80.4688,612.0469 79.9766,612.7969 Q79.4844,613.5469 79.4844,614.5781 L79.4844,615.6719 Q79.4844,616.9063 80.375,617.7266 Q81.2656,618.5469 82.8594,618.5469 Q83.7969,618.5469 84.4531,618.2969 Q84.8438,618.1406 85.2656,617.7031 Q85.5313,617.4375 85.6797,617.3594 Q85.8281,617.2813 86.0313,617.2813 Q86.3594,617.2813 86.6172,617.5391 Q86.875,617.7969 86.875,618.1406 Q86.875,618.4844 86.5313,618.8906 Q86.0313,619.4688 85.2344,619.7969 Q84.1563,620.25 82.8594,620.25 Q81.3438,620.25 80.1406,619.625 Q79.1563,619.125 78.4688,618.0547 Q77.7813,616.9844 77.7813,615.7031 L77.7813,614.5469 Q77.7813,613.2188 78.3984,612.0703 Q79.0156,610.9219 80.1094,610.3047 Q81.2031,609.6875 82.4375,609.6875 Q83.1719,609.6875 83.8203,609.8516 Q84.4688,610.0156 85.0156,610.375 Z "/><text fill="#000000" font-family="sans-serif" font-size="12" lengthAdjust="spacingAndGlyphs" textLength="79" x="102.75" y="619.4102">StartController</text><line style="stroke: #A80036; stroke-width: 1.5;" x1="39" x2="213" y1="630.5" y2="630.5"/><line style="stroke: #A80036; stroke-width: 1.5;" x1="39" x2="213" y1="638.5" y2="638.5"/><ellipse cx="49" cy="650.918" fill="#84BE84" rx="3" ry="3" style="stroke: #038048; stroke-width: 1.0;"/><text fill="#000000" font-family="sans-serif" font-size="11" lengthAdjust="spacingAndGlyphs" textLength="136" x="58" y="653.9189">StartController(Game, State)</text><ellipse cx="49" cy="664.7539" fill="#84BE84" rx="3" ry="3" style="stroke: #038048; stroke-width: 1.0;"/><text fill="#000000" font-family="sans-serif" font-size="11" lengthAdjust="spacingAndGlyphs" textLength="150" x="58" y="667.7549">accept(ControllersVisitor): void</text><ellipse cx="49" cy="678.5898" fill="#84BE84" rx="3" ry="3" style="stroke: #038048; stroke-width: 1.0;"/><text fill="#000000" font-family="sans-serif" font-size="11" lengthAdjust="spacingAndGlyphs" textLength="56" x="58" y="681.5908">start(): void</text><!--class mastermind.controllers.ProposalController--><rect fill="#FEFECE" filter="url(#f1pzy6bbvpsi5i)" height="158.6875" id="mastermind.controllers.ProposalController" style="stroke: #A80036; stroke-width: 1.5;" width="181" x="249.5" y="564"/><ellipse cx="284.75" cy="580" fill="#ADD1B2" rx="11" ry="11" style="stroke: #A80036; stroke-width: 1.0;"/><path d="M287.5156,575.875 Q287.6719,575.6563 287.8594,575.5469 Q288.0469,575.4375 288.2656,575.4375 Q288.6406,575.4375 288.875,575.6953 Q289.1094,575.9531 289.1094,576.5625 L289.1094,578.0156 Q289.1094,578.625 288.875,578.8906 Q288.6406,579.1563 288.2656,579.1563 Q287.9219,579.1563 287.7188,578.9531 Q287.5156,578.7656 287.4063,578.25 Q287.3594,577.8906 287.1719,577.7031 Q286.8438,577.3281 286.2344,577.1094 Q285.625,576.8906 285,576.8906 Q284.2344,576.8906 283.6016,577.2188 Q282.9688,577.5469 282.4766,578.2969 Q281.9844,579.0469 281.9844,580.0781 L281.9844,581.1719 Q281.9844,582.4063 282.875,583.2266 Q283.7656,584.0469 285.3594,584.0469 Q286.2969,584.0469 286.9531,583.7969 Q287.3438,583.6406 287.7656,583.2031 Q288.0313,582.9375 288.1797,582.8594 Q288.3281,582.7813 288.5313,582.7813 Q288.8594,582.7813 289.1172,583.0391 Q289.375,583.2969 289.375,583.6406 Q289.375,583.9844 289.0313,584.3906 Q288.5313,584.9688 287.7344,585.2969 Q286.6563,585.75 285.3594,585.75 Q283.8438,585.75 282.6406,585.125 Q281.6563,584.625 280.9688,583.5547 Q280.2813,582.4844 280.2813,581.2031 L280.2813,580.0469 Q280.2813,578.7188 280.8984,577.5703 Q281.5156,576.4219 282.6094,575.8047 Q283.7031,575.1875 284.9375,575.1875 Q285.6719,575.1875 286.3203,575.3516 Q286.9688,575.5156 287.5156,575.875 Z "/><text fill="#000000" font-family="sans-serif" font-size="12" lengthAdjust="spacingAndGlyphs" textLength="104" x="303.25" y="584.9102">ProposalController</text><line style="stroke: #A80036; stroke-width: 1.5;" x1="250.5" x2="429.5" y1="596" y2="596"/><ellipse cx="260.5" cy="608.418" fill="none" rx="3" ry="3" style="stroke: #038048; stroke-width: 1.0;"/><text fill="#000000" font-family="sans-serif" font-size="11" lengthAdjust="spacingAndGlyphs" text-decoration="underline" textLength="73" x="269.5" y="611.4189">NO_ERROR: int</text><line style="stroke: #A80036; stroke-width: 1.5;" x1="250.5" x2="429.5" y1="617.8359" y2="617.8359"/><ellipse cx="260.5" cy="630.2539" fill="#84BE84" rx="3" ry="3" style="stroke: #038048; stroke-width: 1.0;"/><text fill="#000000" font-family="sans-serif" font-size="11" lengthAdjust="spacingAndGlyphs" textLength="155" x="269.5" y="633.2549">ProposalController(State, Game)</text><ellipse cx="260.5" cy="644.0898" fill="#84BE84" rx="3" ry="3" style="stroke: #038048; stroke-width: 1.0;"/><text fill="#000000" font-family="sans-serif" font-size="11" lengthAdjust="spacingAndGlyphs" textLength="150" x="269.5" y="647.0908">accept(ControllersVisitor): void</text><ellipse cx="260.5" cy="657.9258" fill="#84BE84" rx="3" ry="3" style="stroke: #038048; stroke-width: 1.0;"/><text fill="#000000" font-family="sans-serif" font-size="11" lengthAdjust="spacingAndGlyphs" textLength="101" x="269.5" y="660.9268">getAllCodes(): int[][][]</text><ellipse cx="260.5" cy="671.7617" fill="#84BE84" rx="3" ry="3" style="stroke: #038048; stroke-width: 1.0;"/><text fill="#000000" font-family="sans-serif" font-size="11" lengthAdjust="spacingAndGlyphs" textLength="94" x="269.5" y="674.7627">isLooser(): boolean</text><ellipse cx="260.5" cy="685.5977" fill="#84BE84" rx="3" ry="3" style="stroke: #038048; stroke-width: 1.0;"/><text fill="#000000" font-family="sans-serif" font-size="11" lengthAdjust="spacingAndGlyphs" textLength="94" x="269.5" y="688.5986">isWinner(): boolean</text><ellipse cx="260.5" cy="699.4336" fill="#84BE84" rx="3" ry="3" style="stroke: #038048; stroke-width: 1.0;"/><text fill="#000000" font-family="sans-serif" font-size="11" lengthAdjust="spacingAndGlyphs" textLength="62" x="269.5" y="702.4346">getTurn(): int</text><ellipse cx="260.5" cy="713.2695" fill="#84BE84" rx="3" ry="3" style="stroke: #038048; stroke-width: 1.0;"/><text fill="#000000" font-family="sans-serif" font-size="11" lengthAdjust="spacingAndGlyphs" textLength="140" x="269.5" y="716.2705">proposeCombination(int[]): int</text><!--class mastermind.controllers.Logic--><rect fill="#FEFECE" filter="url(#f1pzy6bbvpsi5i)" height="117.1797" id="mastermind.controllers.Logic" style="stroke: #A80036; stroke-width: 1.5;" width="220" x="424" y="60"/><ellipse cx="514.75" cy="76" fill="#ADD1B2" rx="11" ry="11" style="stroke: #A80036; stroke-width: 1.0;"/><path d="M517.5156,71.875 Q517.6719,71.6563 517.8594,71.5469 Q518.0469,71.4375 518.2656,71.4375 Q518.6406,71.4375 518.875,71.6953 Q519.1094,71.9531 519.1094,72.5625 L519.1094,74.0156 Q519.1094,74.625 518.875,74.8906 Q518.6406,75.1563 518.2656,75.1563 Q517.9219,75.1563 517.7188,74.9531 Q517.5156,74.7656 517.4063,74.25 Q517.3594,73.8906 517.1719,73.7031 Q516.8438,73.3281 516.2344,73.1094 Q515.625,72.8906 515,72.8906 Q514.2344,72.8906 513.6016,73.2188 Q512.9688,73.5469 512.4766,74.2969 Q511.9844,75.0469 511.9844,76.0781 L511.9844,77.1719 Q511.9844,78.4063 512.875,79.2266 Q513.7656,80.0469 515.3594,80.0469 Q516.2969,80.0469 516.9531,79.7969 Q517.3438,79.6406 517.7656,79.2031 Q518.0313,78.9375 518.1797,78.8594 Q518.3281,78.7813 518.5313,78.7813 Q518.8594,78.7813 519.1172,79.0391 Q519.375,79.2969 519.375,79.6406 Q519.375,79.9844 519.0313,80.3906 Q518.5313,80.9688 517.7344,81.2969 Q516.6563,81.75 515.3594,81.75 Q513.8438,81.75 512.6406,81.125 Q511.6563,80.625 510.9688,79.5547 Q510.2813,78.4844 510.2813,77.2031 L510.2813,76.0469 Q510.2813,74.7188 510.8984,73.5703 Q511.5156,72.4219 512.6094,71.8047 Q513.7031,71.1875 514.9375,71.1875 Q515.6719,71.1875 516.3203,71.3516 Q516.9688,71.5156 517.5156,71.875 Z "/><text fill="#000000" font-family="sans-serif" font-size="12" lengthAdjust="spacingAndGlyphs" textLength="30" x="535.25" y="80.9102">Logic</text><line style="stroke: #A80036; stroke-width: 1.5;" x1="425" x2="643" y1="92" y2="92"/><rect fill="none" height="6" style="stroke: #C82930; stroke-width: 1.0;" width="6" x="432" y="101.418"/><text fill="#000000" font-family="sans-serif" font-size="11" lengthAdjust="spacingAndGlyphs" textLength="55" x="444" y="107.4189">state: State</text><rect fill="none" height="6" style="stroke: #C82930; stroke-width: 1.0;" width="6" x="432" y="115.2539"/><text fill="#000000" font-family="sans-serif" font-size="11" lengthAdjust="spacingAndGlyphs" textLength="60" x="444" y="121.2549">game: Game</text><rect fill="none" height="6" style="stroke: #C82930; stroke-width: 1.0;" width="6" x="432" y="129.0898"/><text fill="#000000" font-family="sans-serif" font-size="11" lengthAdjust="spacingAndGlyphs" textLength="194" x="444" y="135.0908">controllers: Map&lt;StateValue, Controller&gt;</text><line style="stroke: #A80036; stroke-width: 1.5;" x1="425" x2="643" y1="141.5078" y2="141.5078"/><ellipse cx="435" cy="153.9258" fill="#84BE84" rx="3" ry="3" style="stroke: #038048; stroke-width: 1.0;"/><text fill="#000000" font-family="sans-serif" font-size="11" lengthAdjust="spacingAndGlyphs" textLength="34" x="444" y="156.9268">Logic()</text><ellipse cx="435" cy="167.7617" fill="#84BE84" rx="3" ry="3" style="stroke: #038048; stroke-width: 1.0;"/><text fill="#000000" font-family="sans-serif" font-size="11" lengthAdjust="spacingAndGlyphs" textLength="121" x="444" y="170.7627">getController(): Controller</text><!--class mastermind.models.State--><rect fill="#FEFECE" filter="url(#f1pzy6bbvpsi5i)" height="48" id="mastermind.models.State" style="stroke: #A80036; stroke-width: 1.5;" width="60" x="700" y="435"/><ellipse cx="715" cy="451" fill="#ADD1B2" rx="11" ry="11" style="stroke: #A80036; stroke-width: 1.0;"/><path d="M717.7656,446.875 Q717.9219,446.6563 718.1094,446.5469 Q718.2969,446.4375 718.5156,446.4375 Q718.8906,446.4375 719.125,446.6953 Q719.3594,446.9531 719.3594,447.5625 L719.3594,449.0156 Q719.3594,449.625 719.125,449.8906 Q718.8906,450.1563 718.5156,450.1563 Q718.1719,450.1563 717.9688,449.9531 Q717.7656,449.7656 717.6563,449.25 Q717.6094,448.8906 717.4219,448.7031 Q717.0938,448.3281 716.4844,448.1094 Q715.875,447.8906 715.25,447.8906 Q714.4844,447.8906 713.8516,448.2188 Q713.2188,448.5469 712.7266,449.2969 Q712.2344,450.0469 712.2344,451.0781 L712.2344,452.1719 Q712.2344,453.4063 713.125,454.2266 Q714.0156,455.0469 715.6094,455.0469 Q716.5469,455.0469 717.2031,454.7969 Q717.5938,454.6406 718.0156,454.2031 Q718.2813,453.9375 718.4297,453.8594 Q718.5781,453.7813 718.7813,453.7813 Q719.1094,453.7813 719.3672,454.0391 Q719.625,454.2969 719.625,454.6406 Q719.625,454.9844 719.2813,455.3906 Q718.7813,455.9688 717.9844,456.2969 Q716.9063,456.75 715.6094,456.75 Q714.0938,456.75 712.8906,456.125 Q711.9063,455.625 711.2188,454.5547 Q710.5313,453.4844 710.5313,452.2031 L710.5313,451.0469 Q710.5313,449.7188 711.1484,448.5703 Q711.7656,447.4219 712.8594,446.8047 Q713.9531,446.1875 715.1875,446.1875 Q715.9219,446.1875 716.5703,446.3516 Q717.2188,446.5156 717.7656,446.875 Z "/><text fill="#000000" font-family="sans-serif" font-size="12" lengthAdjust="spacingAndGlyphs" textLength="28" x="729" y="455.9102">State</text><line style="stroke: #A80036; stroke-width: 1.5;" x1="701" x2="759" y1="467" y2="467"/><line style="stroke: #A80036; stroke-width: 1.5;" x1="701" x2="759" y1="475" y2="475"/><!--class mastermind.models.Game--><rect fill="#FEFECE" filter="url(#f1pzy6bbvpsi5i)" height="48" id="mastermind.models.Game" style="stroke: #A80036; stroke-width: 1.5;" width="66" x="795" y="435"/><ellipse cx="810" cy="451" fill="#ADD1B2" rx="11" ry="11" style="stroke: #A80036; stroke-width: 1.0;"/><path d="M812.7656,446.875 Q812.9219,446.6563 813.1094,446.5469 Q813.2969,446.4375 813.5156,446.4375 Q813.8906,446.4375 814.125,446.6953 Q814.3594,446.9531 814.3594,447.5625 L814.3594,449.0156 Q814.3594,449.625 814.125,449.8906 Q813.8906,450.1563 813.5156,450.1563 Q813.1719,450.1563 812.9688,449.9531 Q812.7656,449.7656 812.6563,449.25 Q812.6094,448.8906 812.4219,448.7031 Q812.0938,448.3281 811.4844,448.1094 Q810.875,447.8906 810.25,447.8906 Q809.4844,447.8906 808.8516,448.2188 Q808.2188,448.5469 807.7266,449.2969 Q807.2344,450.0469 807.2344,451.0781 L807.2344,452.1719 Q807.2344,453.4063 808.125,454.2266 Q809.0156,455.0469 810.6094,455.0469 Q811.5469,455.0469 812.2031,454.7969 Q812.5938,454.6406 813.0156,454.2031 Q813.2813,453.9375 813.4297,453.8594 Q813.5781,453.7813 813.7813,453.7813 Q814.1094,453.7813 814.3672,454.0391 Q814.625,454.2969 814.625,454.6406 Q814.625,454.9844 814.2813,455.3906 Q813.7813,455.9688 812.9844,456.2969 Q811.9063,456.75 810.6094,456.75 Q809.0938,456.75 807.8906,456.125 Q806.9063,455.625 806.2188,454.5547 Q805.5313,453.4844 805.5313,452.2031 L805.5313,451.0469 Q805.5313,449.7188 806.1484,448.5703 Q806.7656,447.4219 807.8594,446.8047 Q808.9531,446.1875 810.1875,446.1875 Q810.9219,446.1875 811.5703,446.3516 Q812.2188,446.5156 812.7656,446.875 Z "/><text fill="#000000" font-family="sans-serif" font-size="12" lengthAdjust="spacingAndGlyphs" textLength="34" x="824" y="455.9102">Game</text><line style="stroke: #A80036; stroke-width: 1.5;" x1="796" x2="860" y1="467" y2="467"/><line style="stroke: #A80036; stroke-width: 1.5;" x1="796" x2="860" y1="475" y2="475"/><!--class mastermind.models.StateValue--><rect fill="#FEFECE" filter="url(#f1pzy6bbvpsi5i)" height="48" id="mastermind.models.StateValue" style="stroke: #A80036; stroke-width: 1.5;" width="91" x="896.5" y="435"/><ellipse cx="911.5" cy="451" fill="#ADD1B2" rx="11" ry="11" style="stroke: #A80036; stroke-width: 1.0;"/><path d="M914.2656,446.875 Q914.4219,446.6563 914.6094,446.5469 Q914.7969,446.4375 915.0156,446.4375 Q915.3906,446.4375 915.625,446.6953 Q915.8594,446.9531 915.8594,447.5625 L915.8594,449.0156 Q915.8594,449.625 915.625,449.8906 Q915.3906,450.1563 915.0156,450.1563 Q914.6719,450.1563 914.4688,449.9531 Q914.2656,449.7656 914.1563,449.25 Q914.1094,448.8906 913.9219,448.7031 Q913.5938,448.3281 912.9844,448.1094 Q912.375,447.8906 911.75,447.8906 Q910.9844,447.8906 910.3516,448.2188 Q909.7188,448.5469 909.2266,449.2969 Q908.7344,450.0469 908.7344,451.0781 L908.7344,452.1719 Q908.7344,453.4063 909.625,454.2266 Q910.5156,455.0469 912.1094,455.0469 Q913.0469,455.0469 913.7031,454.7969 Q914.0938,454.6406 914.5156,454.2031 Q914.7813,453.9375 914.9297,453.8594 Q915.0781,453.7813 915.2813,453.7813 Q915.6094,453.7813 915.8672,454.0391 Q916.125,454.2969 916.125,454.6406 Q916.125,454.9844 915.7813,455.3906 Q915.2813,455.9688 914.4844,456.2969 Q913.4063,456.75 912.1094,456.75 Q910.5938,456.75 909.3906,456.125 Q908.4063,455.625 907.7188,454.5547 Q907.0313,453.4844 907.0313,452.2031 L907.0313,451.0469 Q907.0313,449.7188 907.6484,448.5703 Q908.2656,447.4219 909.3594,446.8047 Q910.4531,446.1875 911.6875,446.1875 Q912.4219,446.1875 913.0703,446.3516 Q913.7188,446.5156 914.2656,446.875 Z "/><text fill="#000000" font-family="sans-serif" font-size="12" lengthAdjust="spacingAndGlyphs" textLength="59" x="925.5" y="455.9102">StateValue</text><line style="stroke: #A80036; stroke-width: 1.5;" x1="897.5" x2="986.5" y1="467" y2="467"/><line style="stroke: #A80036; stroke-width: 1.5;" x1="897.5" x2="986.5" y1="475" y2="475"/><!--class java.util.Map--><rect fill="#FEFECE" filter="url(#f1pzy6bbvpsi5i)" height="48" id="java.util.Map" style="stroke: #A80036; stroke-width: 1.5;" width="55" x="836.5" y="271.5"/><ellipse cx="851.5" cy="287.5" fill="#ADD1B2" rx="11" ry="11" style="stroke: #A80036; stroke-width: 1.0;"/><path d="M854.2656,283.375 Q854.4219,283.1563 854.6094,283.0469 Q854.7969,282.9375 855.0156,282.9375 Q855.3906,282.9375 855.625,283.1953 Q855.8594,283.4531 855.8594,284.0625 L855.8594,285.5156 Q855.8594,286.125 855.625,286.3906 Q855.3906,286.6563 855.0156,286.6563 Q854.6719,286.6563 854.4688,286.4531 Q854.2656,286.2656 854.1563,285.75 Q854.1094,285.3906 853.9219,285.2031 Q853.5938,284.8281 852.9844,284.6094 Q852.375,284.3906 851.75,284.3906 Q850.9844,284.3906 850.3516,284.7188 Q849.7188,285.0469 849.2266,285.7969 Q848.7344,286.5469 848.7344,287.5781 L848.7344,288.6719 Q848.7344,289.9063 849.625,290.7266 Q850.5156,291.5469 852.1094,291.5469 Q853.0469,291.5469 853.7031,291.2969 Q854.0938,291.1406 854.5156,290.7031 Q854.7813,290.4375 854.9297,290.3594 Q855.0781,290.2813 855.2813,290.2813 Q855.6094,290.2813 855.8672,290.5391 Q856.125,290.7969 856.125,291.1406 Q856.125,291.4844 855.7813,291.8906 Q855.2813,292.4688 854.4844,292.7969 Q853.4063,293.25 852.1094,293.25 Q850.5938,293.25 849.3906,292.625 Q848.4063,292.125 847.7188,291.0547 Q847.0313,289.9844 847.0313,288.7031 L847.0313,287.5469 Q847.0313,286.2188 847.6484,285.0703 Q848.2656,283.9219 849.3594,283.3047 Q850.4531,282.6875 851.6875,282.6875 Q852.4219,282.6875 853.0703,282.8516 Q853.7188,283.0156 854.2656,283.375 Z "/><text fill="#000000" font-family="sans-serif" font-size="12" lengthAdjust="spacingAndGlyphs" textLength="23" x="865.5" y="292.4102">Map</text><line style="stroke: #A80036; stroke-width: 1.5;" x1="837.5" x2="890.5" y1="303.5" y2="303.5"/><line style="stroke: #A80036; stroke-width: 1.5;" x1="837.5" x2="890.5" y1="311.5" y2="311.5"/><!--link mastermind.controllers.Controller to mastermind.models.State--><path d="M599.628,350.841 C620.19,363.19 641.241,376.863 660,391 C673.645,401.282 687.48,413.951 699.208,425.495 " fill="none" id="mastermind.controllers.Controller-mastermind.models.State" style="stroke: #A80036; stroke-width: 1.0;"/><polygon fill="#A80036" points="708.513,434.85,705.0018,425.6483,704.9868,431.3051,699.33,431.2902,708.513,434.85" style="stroke: #A80036; stroke-width: 1.0;"/><line style="stroke: #A80036; stroke-width: 1.0;" x1="704.9868" x2="699.345" y1="431.3051" y2="425.633"/><polygon fill="#A80036" points="588.273,344.122,591.4,350.6199,598.6007,350.2326,595.4737,343.7348,588.273,344.122" style="stroke: #A80036; stroke-width: 1.0;"/><!--link mastermind.controllers.Controller to mastermind.models.Game--><path d="M600.906,327.958 C674.415,350.982 762.886,380.036 778,391 C790.019,399.719 800.417,412.169 808.57,423.976 " fill="none" id="mastermind.controllers.Controller-mastermind.models.Game" style="stroke: #A80036; stroke-width: 1.0;"/><polygon fill="#A80036" points="815.678,434.956,814.1451,425.2272,812.9609,430.7587,807.4294,429.5745,815.678,434.956" style="stroke: #A80036; stroke-width: 1.0;"/><line style="stroke: #A80036; stroke-width: 1.0;" x1="812.9609" x2="808.6135" y1="430.7587" y2="424.0435"/><polygon fill="#A80036" points="588.316,324.028,592.8512,329.6344,599.7707,327.6044,595.2355,321.998,588.316,324.028" style="stroke: #A80036; stroke-width: 1.0;"/><!--link mastermind.controllers.Controller to mastermind.controllers.ControllersVisitor--><path d="M479.732,354.349 C474.063,372.302 467.873,391.901 462.418,409.176 " fill="none" id="mastermind.controllers.Controller-mastermind.controllers.ControllersVisitor" style="stroke: #A80036; stroke-width: 1.0; stroke-dasharray: 7.0,7.0;"/><polygon fill="#A80036" points="460.9,413.984,467.4249,406.6067,462.4059,409.2162,459.7964,404.1972,460.9,413.984" style="stroke: #A80036; stroke-width: 1.0;"/><!--link mastermind.controllers.ControllersVisitor to mastermind.controllers.ResumeController--><path d="M473.144,504.178 C489.203,531.314 509.787,566.099 526.297,593.997 " fill="none" id="mastermind.controllers.ControllersVisitor-mastermind.controllers.ResumeController" style="stroke: #A80036; stroke-width: 1.0; stroke-dasharray: 7.0,7.0;"/><polygon fill="#A80036" points="528.91,598.413,527.7689,588.6305,526.3636,594.11,520.8841,592.7047,528.91,598.413" style="stroke: #A80036; stroke-width: 1.0;"/><!--link mastermind.controllers.ControllersVisitor to mastermind.controllers.StartController--><path d="M360.311,497.435 C320.331,515.828 272.801,539.321 232,564 C216.508,573.371 200.474,584.441 185.71,595.268 " fill="none" id="mastermind.controllers.ControllersVisitor-mastermind.controllers.StartController" style="stroke: #A80036; stroke-width: 1.0; stroke-dasharray: 7.0,7.0;"/><polygon fill="#A80036" points="181.582,598.313,191.1992,596.1893,185.6057,595.3449,186.4501,589.7514,181.582,598.313" style="stroke: #A80036; stroke-width: 1.0;"/><!--link mastermind.controllers.ControllersVisitor to mastermind.controllers.ProposalController--><path d="M421.098,504.178 C411.323,520.851 399.855,540.41 388.671,559.486 " fill="none" id="mastermind.controllers.ControllersVisitor-mastermind.controllers.ProposalController" style="stroke: #A80036; stroke-width: 1.0; stroke-dasharray: 7.0,7.0;"/><polygon fill="#A80036" points="386.139,563.804,394.1416,558.0631,388.6679,559.4907,387.2403,554.0169,386.139,563.804" style="stroke: #A80036; stroke-width: 1.0;"/><!--link mastermind.controllers.Logic to mastermind.models.StateValue--><path d="M655.79,172.118 C683.919,187.537 712.465,206.105 736,227.5 C785.938,272.897 771.661,306.904 820,354 C842.17,375.599 855.092,371.342 879,391 C891.275,401.093 903.529,413.465 913.921,424.819 " fill="none" id="mastermind.controllers.Logic-mastermind.models.StateValue" style="stroke: #A80036; stroke-width: 1.0;"/><polygon fill="#A80036" points="922.89,434.865,919.8808,425.4871,919.5604,431.1349,913.9126,430.8144,922.89,434.865" style="stroke: #A80036; stroke-width: 1.0;"/><line style="stroke: #A80036; stroke-width: 1.0;" x1="919.5604" x2="914.2325" y1="431.1349" y2="425.168"/><polygon fill="#A80036" points="644.202,165.925,647.6085,172.2807,654.7856,171.5807,651.379,165.225,644.202,165.925" style="stroke: #A80036; stroke-width: 1.0;"/><!--link mastermind.controllers.Logic to mastermind.models.State--><path d="M581.261,188.295 C589.716,201.186 598.284,214.65 606,227.5 C646.627,295.156 689.2,377.1 712.38,422.808 " fill="none" id="mastermind.controllers.Logic-mastermind.models.State" style="stroke: #A80036; stroke-width: 1.0;"/><polygon fill="#A80036" points="718.387,434.697,717.8992,424.8602,716.1325,430.2341,710.7586,428.4674,718.387,434.697" style="stroke: #A80036; stroke-width: 1.0;"/><line style="stroke: #A80036; stroke-width: 1.0;" x1="716.1325" x2="712.525" y1="430.2341" y2="423.0935"/><polygon fill="#A80036" points="573.884,177.144,573.8583,184.3551,580.5048,187.1523,580.5305,179.9412,573.884,177.144" style="stroke: #A80036; stroke-width: 1.0;"/><!--link mastermind.controllers.Logic to java.util.Map--><path d="M656.831,152.79 C706.968,170.045 763.685,194.541 809,227.5 C821.486,236.582 832.798,249.145 841.871,260.94 " fill="none" id="mastermind.controllers.Logic-java.util.Map" style="stroke: #A80036; stroke-width: 1.0;"/><polygon fill="#A80036" points="849.544,271.435,847.4619,261.8087,846.5933,267.3985,841.0035,266.5299,849.544,271.435" style="stroke: #A80036; stroke-width: 1.0;"/><line style="stroke: #A80036; stroke-width: 1.0;" x1="846.5933" x2="841.871" y1="267.3985" y2="260.941"/><polygon fill="#A80036" points="644.238,148.559,648.6511,154.262,655.6128,152.3818,651.1997,146.6788,644.238,148.559" style="stroke: #A80036; stroke-width: 1.0;"/><!--link mastermind.controllers.Logic to mastermind.models.Game--><path d="M621.908,185.747 C637.272,198.883 652.606,213.089 666,227.5 C681.876,244.581 764.002,364.131 804.86,424.001 " fill="none" id="mastermind.controllers.Logic-mastermind.models.Game" style="stroke: #A80036; stroke-width: 1.0;"/><polygon fill="#A80036" points="812.217,434.79,810.4509,425.1008,809.3999,430.6591,803.8415,429.6081,812.217,434.79" style="stroke: #A80036; stroke-width: 1.0;"/><line style="stroke: #A80036; stroke-width: 1.0;" x1="809.3999" x2="804.893" y1="430.6591" y2="424.0495"/><polygon fill="#A80036" points="611.828,177.277,613.8489,184.1991,621.0159,184.996,618.9949,178.0739,611.828,177.277" style="stroke: #A80036; stroke-width: 1.0;"/><!--link mastermind.controllers.Logic to mastermind.controllers.Controller--><path d="M522.112,177.287 C518.518,194.759 514.555,214.025 510.898,231.802 " fill="none" id="mastermind.controllers.Logic-mastermind.controllers.Controller" style="stroke: #A80036; stroke-width: 1.0;"/><polygon fill="#A80036" points="509.875,236.774,515.6055,228.7639,510.8819,231.8764,507.7694,227.1528,509.875,236.774" style="stroke: #A80036; stroke-width: 1.0;"/><!--link mastermind.controllers.Controller to mastermind.controllers.ProposalController--><path d="M390.841,341.839 C371.737,354.864 354.338,371.088 343,391 C313.345,443.081 314.626,511.608 322.195,563.977 " fill="none" id="mastermind.controllers.Controller-mastermind.controllers.ProposalController" style="stroke: #A80036; stroke-width: 1.0;"/><polygon fill="none" points="387.275,335.813,407.958,331.205,394.664,347.705,387.275,335.813" style="stroke: #A80036; stroke-width: 1.0;"/><!--link mastermind.controllers.Controller to mastermind.controllers.ResumeController--><path d="M544.575,372.242 C547.112,378.441 549.31,384.734 551,391 C570.053,461.62 565.886,547.495 560.727,598.43 " fill="none" id="mastermind.controllers.Controller-mastermind.controllers.ResumeController" style="stroke: #A80036; stroke-width: 1.0;"/><polygon fill="none" points="538.2,375.133,536.113,354.046,550.894,369.229,538.2,375.133" style="stroke: #A80036; stroke-width: 1.0;"/><!--link mastermind.controllers.Controller to mastermind.controllers.StartController--><path d="M389.246,340.26 C361.773,354.148 333.446,371.153 310,391 C238.977,451.123 180.331,543.987 149.491,598.455 " fill="none" id="mastermind.controllers.Controller-mastermind.controllers.StartController" style="stroke: #A80036; stroke-width: 1.0;"/><polygon fill="none" points="386.535,333.795,407.585,331.366,392.644,346.392,386.535,333.795" style="stroke: #A80036; stroke-width: 1.0;"/><!--
@startuml

class  mastermind.controllers.Controller{
# game: Game
# state: State
~ Controller(State, Game)
+ {abstract} accept(ControllersVisitor): void
+ getWidth(): int
}
mastermind.controllers.Controller *-down-> mastermind.models.State
mastermind.controllers.Controller *-down-> mastermind.models.Game
mastermind.controllers.Controller ..> mastermind.controllers.ControllersVisitor

class  mastermind.controllers.ControllersVisitor{
+ {abstract} visit(StartController): void
+ {abstract} visit(ProposalController): void
+ {abstract} visit(ResumeController): void
}
mastermind.controllers.ControllersVisitor ..> mastermind.controllers.ResumeController
mastermind.controllers.ControllersVisitor ..> mastermind.controllers.StartController
mastermind.controllers.ControllersVisitor ..> mastermind.controllers.ProposalController

class  mastermind.controllers.Logic{
- state: State
- game: Game
- controllers: Map<StateValue, Controller>
+ Logic()
+ getController(): Controller
}
mastermind.controllers.Logic *-down-> mastermind.models.StateValue
mastermind.controllers.Logic *-down-> mastermind.models.State
mastermind.controllers.Logic *-down-> java.util.Map
mastermind.controllers.Logic *-down-> mastermind.models.Game
mastermind.controllers.Logic - -> mastermind.controllers.Controller

class  mastermind.controllers.ProposalController{
+ {static} NO_ERROR: int
+ ProposalController(State, Game)
+ accept(ControllersVisitor): void
+ getAllCodes(): int[][][]
+ isLooser(): boolean
+ isWinner(): boolean
+ getTurn(): int
+ proposeCombination(int[]): int
}
mastermind.controllers.Controller <|-down- mastermind.controllers.ProposalController

class  mastermind.controllers.ResumeController{
+ ResumeController(State, Game)
+ accept(ControllersVisitor): void
+ resume(boolean): void
}
mastermind.controllers.Controller <|-down- mastermind.controllers.ResumeController

class  mastermind.controllers.StartController{
+ StartController(Game, State)
+ accept(ControllersVisitor): void
+ start(): void
}
mastermind.controllers.Controller <|-down- mastermind.controllers.StartController

@enduml

PlantUML version 1.2019.05(Sat Apr 20 18:45:36 CEST 2019)
(GPL source distribution)
Java Runtime: OpenJDK Runtime Environment
JVM: OpenJDK 64-Bit Server VM
Java Version: 1.8.0_222-b10
Operating System: Windows 10
OS Version: 10.0
Default Encoding: windows-1252
Language: es
Country: ES
--></g></svg>