<?xml version="1.0" encoding="UTF-8" standalone="no"?><svg xmlns="http://www.w3.org/2000/svg" xmlns:xlink="http://www.w3.org/1999/xlink" contentScriptType="application/ecmascript" contentStyleType="text/css" height="930px" preserveAspectRatio="none" style="width:682px;height:930px;" version="1.1" viewBox="0 0 682 930" width="682px" zoomAndPan="magnify"><defs><filter height="300%" id="f1mb3ratp6t0un" width="300%" x="-1" y="-1"><feGaussianBlur result="blurOut" stdDeviation="2.0"/><feColorMatrix in="blurOut" result="blurOut2" type="matrix" values="0 0 0 0 0 0 0 0 0 0 0 0 0 0 0 0 0 0 .4 0"/><feOffset dx="4.0" dy="4.0" in="blurOut2" result="blurOut3"/><feBlend in="SourceGraphic" in2="blurOut3" mode="normal"/></filter></defs><g><!--cluster mastermind.models--><polygon fill="#FFFFFF" filter="url(#f1mb3ratp6t0un)" points="22,24,165,24,172,47.6094,552,47.6094,552,918,22,918,22,24" style="stroke: #000000; stroke-width: 1.5;"/><line style="stroke: #000000; stroke-width: 1.5;" x1="22" x2="172" y1="47.6094" y2="47.6094"/><text fill="#000000" font-family="sans-serif" font-size="14" font-weight="bold" lengthAdjust="spacingAndGlyphs" textLength="137" x="26" y="40.5332">mastermind.models</text><!--cluster java.util--><polygon fill="#FFFFFF" filter="url(#f1mb3ratp6t0un)" points="576,381,637,381,644,404.6094,660,404.6094,660,481,576,481,576,381" style="stroke: #000000; stroke-width: 1.5;"/><line style="stroke: #000000; stroke-width: 1.5;" x1="576" x2="644" y1="404.6094" y2="404.6094"/><text fill="#000000" font-family="sans-serif" font-size="14" font-weight="bold" lengthAdjust="spacingAndGlyphs" textLength="55" x="580" y="397.5332">java.util</text><!--class mastermind.models.Color--><rect fill="#FEFECE" filter="url(#f1mb3ratp6t0un)" height="186.3594" id="mastermind.models.Color" style="stroke: #A80036; stroke-width: 1.5;" width="132" x="367" y="348"/><ellipse cx="413.75" cy="364" fill="#ADD1B2" rx="11" ry="11" style="stroke: #A80036; stroke-width: 1.0;"/><path d="M416.5156,359.875 Q416.6719,359.6563 416.8594,359.5469 Q417.0469,359.4375 417.2656,359.4375 Q417.6406,359.4375 417.875,359.6953 Q418.1094,359.9531 418.1094,360.5625 L418.1094,362.0156 Q418.1094,362.625 417.875,362.8906 Q417.6406,363.1563 417.2656,363.1563 Q416.9219,363.1563 416.7188,362.9531 Q416.5156,362.7656 416.4063,362.25 Q416.3594,361.8906 416.1719,361.7031 Q415.8438,361.3281 415.2344,361.1094 Q414.625,360.8906 414,360.8906 Q413.2344,360.8906 412.6016,361.2188 Q411.9688,361.5469 411.4766,362.2969 Q410.9844,363.0469 410.9844,364.0781 L410.9844,365.1719 Q410.9844,366.4063 411.875,367.2266 Q412.7656,368.0469 414.3594,368.0469 Q415.2969,368.0469 415.9531,367.7969 Q416.3438,367.6406 416.7656,367.2031 Q417.0313,366.9375 417.1797,366.8594 Q417.3281,366.7813 417.5313,366.7813 Q417.8594,366.7813 418.1172,367.0391 Q418.375,367.2969 418.375,367.6406 Q418.375,367.9844 418.0313,368.3906 Q417.5313,368.9688 416.7344,369.2969 Q415.6563,369.75 414.3594,369.75 Q412.8438,369.75 411.6406,369.125 Q410.6563,368.625 409.9688,367.5547 Q409.2813,366.4844 409.2813,365.2031 L409.2813,364.0469 Q409.2813,362.7188 409.8984,361.5703 Q410.5156,360.4219 411.6094,359.8047 Q412.7031,359.1875 413.9375,359.1875 Q414.6719,359.1875 415.3203,359.3516 Q415.9688,359.5156 416.5156,359.875 Z "/><text fill="#000000" font-family="sans-serif" font-size="12" lengthAdjust="spacingAndGlyphs" textLength="30" x="434.25" y="368.9102">Color</text><line style="stroke: #A80036; stroke-width: 1.5;" x1="368" x2="498" y1="380" y2="380"/><ellipse cx="378" cy="392.418" fill="none" rx="3" ry="3" style="stroke: #038048; stroke-width: 1.0;"/><text fill="#000000" font-family="sans-serif" font-size="11" lengthAdjust="spacingAndGlyphs" text-decoration="underline" textLength="51" x="387" y="395.4189">RED: Color</text><ellipse cx="378" cy="406.2539" fill="none" rx="3" ry="3" style="stroke: #038048; stroke-width: 1.0;"/><text fill="#000000" font-family="sans-serif" font-size="11" lengthAdjust="spacingAndGlyphs" text-decoration="underline" textLength="57" x="387" y="409.2549">BLUE: Color</text><ellipse cx="378" cy="420.0898" fill="none" rx="3" ry="3" style="stroke: #038048; stroke-width: 1.0;"/><text fill="#000000" font-family="sans-serif" font-size="11" lengthAdjust="spacingAndGlyphs" text-decoration="underline" textLength="75" x="387" y="423.0908">YELLOW: Color</text><ellipse cx="378" cy="433.9258" fill="none" rx="3" ry="3" style="stroke: #038048; stroke-width: 1.0;"/><text fill="#000000" font-family="sans-serif" font-size="11" lengthAdjust="spacingAndGlyphs" text-decoration="underline" textLength="65" x="387" y="436.9268">GREEN: Color</text><ellipse cx="378" cy="447.7617" fill="none" rx="3" ry="3" style="stroke: #038048; stroke-width: 1.0;"/><text fill="#000000" font-family="sans-serif" font-size="11" lengthAdjust="spacingAndGlyphs" text-decoration="underline" textLength="75" x="387" y="450.7627">ORANGE: Color</text><ellipse cx="378" cy="461.5977" fill="none" rx="3" ry="3" style="stroke: #038048; stroke-width: 1.0;"/><text fill="#000000" font-family="sans-serif" font-size="11" lengthAdjust="spacingAndGlyphs" text-decoration="underline" textLength="69" x="387" y="464.5986">PURPLE: Color</text><line style="stroke: #A80036; stroke-width: 1.5;" x1="368" x2="498" y1="471.0156" y2="471.0156"/><rect fill="#F24D5C" height="6" style="stroke: #C82930; stroke-width: 1.0;" width="6" x="375" y="480.4336"/><text fill="#000000" font-family="sans-serif" font-size="11" lengthAdjust="spacingAndGlyphs" textLength="33" x="387" y="486.4346">Color()</text><ellipse cx="378" cy="497.2695" fill="#84BE84" rx="3" ry="3" style="stroke: #038048; stroke-width: 1.0;"/><text fill="#000000" font-family="sans-serif" font-size="11" lengthAdjust="spacingAndGlyphs" text-decoration="underline" textLength="105" x="387" y="500.2705">valueOf(String): Color</text><polygon fill="#4177AF" points="378,507.1055,374,513.1055,382,513.1055" style="stroke: #1963A0; stroke-width: 1.0;"/><text fill="#000000" font-family="sans-serif" font-size="11" lengthAdjust="spacingAndGlyphs" text-decoration="underline" textLength="54" x="387" y="514.1064">length(): int</text><polygon fill="#4177AF" points="378,520.9414,374,526.9414,382,526.9414" style="stroke: #1963A0; stroke-width: 1.0;"/><text fill="#000000" font-family="sans-serif" font-size="11" lengthAdjust="spacingAndGlyphs" text-decoration="underline" textLength="106" x="387" y="527.9424">getInstance(int): Color</text><!--class mastermind.models.Combination--><rect fill="#FEFECE" filter="url(#f1mb3ratp6t0un)" height="103.3438" id="mastermind.models.Combination" style="stroke: #A80036; stroke-width: 1.5;" width="116" x="391" y="122.5"/><ellipse cx="411.85" cy="138.5" fill="#ADD1B2" rx="11" ry="11" style="stroke: #A80036; stroke-width: 1.0;"/><path d="M414.6156,134.375 Q414.7719,134.1563 414.9594,134.0469 Q415.1469,133.9375 415.3656,133.9375 Q415.7406,133.9375 415.975,134.1953 Q416.2094,134.4531 416.2094,135.0625 L416.2094,136.5156 Q416.2094,137.125 415.975,137.3906 Q415.7406,137.6563 415.3656,137.6563 Q415.0219,137.6563 414.8188,137.4531 Q414.6156,137.2656 414.5063,136.75 Q414.4594,136.3906 414.2719,136.2031 Q413.9438,135.8281 413.3344,135.6094 Q412.725,135.3906 412.1,135.3906 Q411.3344,135.3906 410.7016,135.7188 Q410.0688,136.0469 409.5766,136.7969 Q409.0844,137.5469 409.0844,138.5781 L409.0844,139.6719 Q409.0844,140.9063 409.975,141.7266 Q410.8656,142.5469 412.4594,142.5469 Q413.3969,142.5469 414.0531,142.2969 Q414.4438,142.1406 414.8656,141.7031 Q415.1313,141.4375 415.2797,141.3594 Q415.4281,141.2813 415.6313,141.2813 Q415.9594,141.2813 416.2172,141.5391 Q416.475,141.7969 416.475,142.1406 Q416.475,142.4844 416.1313,142.8906 Q415.6313,143.4688 414.8344,143.7969 Q413.7563,144.25 412.4594,144.25 Q410.9438,144.25 409.7406,143.625 Q408.7563,143.125 408.0688,142.0547 Q407.3813,140.9844 407.3813,139.7031 L407.3813,138.5469 Q407.3813,137.2188 407.9984,136.0703 Q408.6156,134.9219 409.7094,134.3047 Q410.8031,133.6875 412.0375,133.6875 Q412.7719,133.6875 413.4203,133.8516 Q414.0688,134.0156 414.6156,134.375 Z "/><text fill="#000000" font-family="sans-serif" font-size="12" lengthAdjust="spacingAndGlyphs" textLength="71" x="427.15" y="143.4102">Combination</text><line style="stroke: #A80036; stroke-width: 1.5;" x1="392" x2="506" y1="154.5" y2="154.5"/><rect fill="none" height="6" style="stroke: #C82930; stroke-width: 1.0;" width="6" x="399" y="163.918"/><text fill="#000000" font-family="sans-serif" font-size="11" lengthAdjust="spacingAndGlyphs" text-decoration="underline" textLength="49" x="411" y="169.9189">WIDTH: int</text><polygon fill="none" points="402,175.7539,406,179.7539,402,183.7539,398,179.7539" style="stroke: #B38D22; stroke-width: 1.0;"/><text fill="#000000" font-family="sans-serif" font-size="11" lengthAdjust="spacingAndGlyphs" textLength="90" x="411" y="183.7549">colors: List&lt;Color&gt;</text><line style="stroke: #A80036; stroke-width: 1.5;" x1="392" x2="506" y1="190.1719" y2="190.1719"/><polygon fill="#FFFF44" points="402,197.5898,406,201.5898,402,205.5898,398,201.5898" style="stroke: #B38D22; stroke-width: 1.0;"/><text fill="#000000" font-family="sans-serif" font-size="11" lengthAdjust="spacingAndGlyphs" textLength="66" x="411" y="205.5908">Combination()</text><ellipse cx="402" cy="216.4258" fill="#84BE84" rx="3" ry="3" style="stroke: #038048; stroke-width: 1.0;"/><text fill="#000000" font-family="sans-serif" font-size="11" lengthAdjust="spacingAndGlyphs" text-decoration="underline" textLength="67" x="411" y="219.4268">getWidth(): int</text><!--class mastermind.models.Error--><rect fill="#FEFECE" filter="url(#f1mb3ratp6t0un)" height="117.1797" id="mastermind.models.Error" style="stroke: #A80036; stroke-width: 1.5;" width="172" x="216" y="785"/><ellipse cx="284.25" cy="801" fill="#ADD1B2" rx="11" ry="11" style="stroke: #A80036; stroke-width: 1.0;"/><path d="M287.0156,796.875 Q287.1719,796.6563 287.3594,796.5469 Q287.5469,796.4375 287.7656,796.4375 Q288.1406,796.4375 288.375,796.6953 Q288.6094,796.9531 288.6094,797.5625 L288.6094,799.0156 Q288.6094,799.625 288.375,799.8906 Q288.1406,800.1563 287.7656,800.1563 Q287.4219,800.1563 287.2188,799.9531 Q287.0156,799.7656 286.9063,799.25 Q286.8594,798.8906 286.6719,798.7031 Q286.3438,798.3281 285.7344,798.1094 Q285.125,797.8906 284.5,797.8906 Q283.7344,797.8906 283.1016,798.2188 Q282.4688,798.5469 281.9766,799.2969 Q281.4844,800.0469 281.4844,801.0781 L281.4844,802.1719 Q281.4844,803.4063 282.375,804.2266 Q283.2656,805.0469 284.8594,805.0469 Q285.7969,805.0469 286.4531,804.7969 Q286.8438,804.6406 287.2656,804.2031 Q287.5313,803.9375 287.6797,803.8594 Q287.8281,803.7813 288.0313,803.7813 Q288.3594,803.7813 288.6172,804.0391 Q288.875,804.2969 288.875,804.6406 Q288.875,804.9844 288.5313,805.3906 Q288.0313,805.9688 287.2344,806.2969 Q286.1563,806.75 284.8594,806.75 Q283.3438,806.75 282.1406,806.125 Q281.1563,805.625 280.4688,804.5547 Q279.7813,803.4844 279.7813,802.2031 L279.7813,801.0469 Q279.7813,799.7188 280.3984,798.5703 Q281.0156,797.4219 282.1094,796.8047 Q283.2031,796.1875 284.4375,796.1875 Q285.1719,796.1875 285.8203,796.3516 Q286.4688,796.5156 287.0156,796.875 Z "/><text fill="#000000" font-family="sans-serif" font-size="12" lengthAdjust="spacingAndGlyphs" textLength="27" x="304.75" y="805.9102">Error</text><line style="stroke: #A80036; stroke-width: 1.5;" x1="217" x2="387" y1="817" y2="817"/><ellipse cx="227" cy="829.418" fill="none" rx="3" ry="3" style="stroke: #038048; stroke-width: 1.0;"/><text fill="#000000" font-family="sans-serif" font-size="11" lengthAdjust="spacingAndGlyphs" text-decoration="underline" textLength="92" x="236" y="832.4189">DUPLICATED: Error</text><ellipse cx="227" cy="843.2539" fill="none" rx="3" ry="3" style="stroke: #038048; stroke-width: 1.0;"/><text fill="#000000" font-family="sans-serif" font-size="11" lengthAdjust="spacingAndGlyphs" text-decoration="underline" textLength="146" x="236" y="846.2549">WRONG_CHARACTERS: Error</text><ellipse cx="227" cy="857.0898" fill="none" rx="3" ry="3" style="stroke: #038048; stroke-width: 1.0;"/><text fill="#000000" font-family="sans-serif" font-size="11" lengthAdjust="spacingAndGlyphs" text-decoration="underline" textLength="116" x="236" y="860.0908">WRONG_LENGTH: Error</text><line style="stroke: #A80036; stroke-width: 1.5;" x1="217" x2="387" y1="866.5078" y2="866.5078"/><rect fill="#F24D5C" height="6" style="stroke: #C82930; stroke-width: 1.0;" width="6" x="224" y="875.9258"/><text fill="#000000" font-family="sans-serif" font-size="11" lengthAdjust="spacingAndGlyphs" textLength="32" x="236" y="881.9268">Error()</text><ellipse cx="227" cy="892.7617" fill="#84BE84" rx="3" ry="3" style="stroke: #038048; stroke-width: 1.0;"/><text fill="#000000" font-family="sans-serif" font-size="11" lengthAdjust="spacingAndGlyphs" text-decoration="underline" textLength="104" x="236" y="895.7627">valueOf(String): Error</text><!--class mastermind.models.Game--><rect fill="#FEFECE" filter="url(#f1mb3ratp6t0un)" height="227.8672" id="mastermind.models.Game" style="stroke: #A80036; stroke-width: 1.5;" width="275" x="67.5" y="60"/><ellipse cx="183.75" cy="76" fill="#ADD1B2" rx="11" ry="11" style="stroke: #A80036; stroke-width: 1.0;"/><path d="M186.5156,71.875 Q186.6719,71.6563 186.8594,71.5469 Q187.0469,71.4375 187.2656,71.4375 Q187.6406,71.4375 187.875,71.6953 Q188.1094,71.9531 188.1094,72.5625 L188.1094,74.0156 Q188.1094,74.625 187.875,74.8906 Q187.6406,75.1563 187.2656,75.1563 Q186.9219,75.1563 186.7188,74.9531 Q186.5156,74.7656 186.4063,74.25 Q186.3594,73.8906 186.1719,73.7031 Q185.8438,73.3281 185.2344,73.1094 Q184.625,72.8906 184,72.8906 Q183.2344,72.8906 182.6016,73.2188 Q181.9688,73.5469 181.4766,74.2969 Q180.9844,75.0469 180.9844,76.0781 L180.9844,77.1719 Q180.9844,78.4063 181.875,79.2266 Q182.7656,80.0469 184.3594,80.0469 Q185.2969,80.0469 185.9531,79.7969 Q186.3438,79.6406 186.7656,79.2031 Q187.0313,78.9375 187.1797,78.8594 Q187.3281,78.7813 187.5313,78.7813 Q187.8594,78.7813 188.1172,79.0391 Q188.375,79.2969 188.375,79.6406 Q188.375,79.9844 188.0313,80.3906 Q187.5313,80.9688 186.7344,81.2969 Q185.6563,81.75 184.3594,81.75 Q182.8438,81.75 181.6406,81.125 Q180.6563,80.625 179.9688,79.5547 Q179.2813,78.4844 179.2813,77.2031 L179.2813,76.0469 Q179.2813,74.7188 179.8984,73.5703 Q180.5156,72.4219 181.6094,71.8047 Q182.7031,71.1875 183.9375,71.1875 Q184.6719,71.1875 185.3203,71.3516 Q185.9688,71.5156 186.5156,71.875 Z "/><text fill="#000000" font-family="sans-serif" font-size="12" lengthAdjust="spacingAndGlyphs" textLength="34" x="204.25" y="80.9102">Game</text><line style="stroke: #A80036; stroke-width: 1.5;" x1="68.5" x2="341.5" y1="92" y2="92"/><rect fill="none" height="6" style="stroke: #C82930; stroke-width: 1.0;" width="6" x="75.5" y="101.418"/><text fill="#000000" font-family="sans-serif" font-size="11" lengthAdjust="spacingAndGlyphs" text-decoration="underline" textLength="75" x="87.5" y="107.4189">MAX_LONG: int</text><rect fill="none" height="6" style="stroke: #C82930; stroke-width: 1.0;" width="6" x="75.5" y="115.2539"/><text fill="#000000" font-family="sans-serif" font-size="11" lengthAdjust="spacingAndGlyphs" textLength="185" x="87.5" y="121.2549">secretCombination: SecretCombination</text><rect fill="none" height="6" style="stroke: #C82930; stroke-width: 1.0;" width="6" x="75.5" y="129.0898"/><text fill="#000000" font-family="sans-serif" font-size="11" lengthAdjust="spacingAndGlyphs" textLength="249" x="87.5" y="135.0908">proposedCombinations: List&lt;ProposedCombination&gt;</text><rect fill="none" height="6" style="stroke: #C82930; stroke-width: 1.0;" width="6" x="75.5" y="142.9258"/><text fill="#000000" font-family="sans-serif" font-size="11" lengthAdjust="spacingAndGlyphs" textLength="98" x="87.5" y="148.9268">results: List&lt;Result&gt;</text><rect fill="none" height="6" style="stroke: #C82930; stroke-width: 1.0;" width="6" x="75.5" y="156.7617"/><text fill="#000000" font-family="sans-serif" font-size="11" lengthAdjust="spacingAndGlyphs" textLength="36" x="87.5" y="162.7627">turn: int</text><line style="stroke: #A80036; stroke-width: 1.5;" x1="68.5" x2="341.5" y1="169.1797" y2="169.1797"/><ellipse cx="78.5" cy="181.5977" fill="#84BE84" rx="3" ry="3" style="stroke: #038048; stroke-width: 1.0;"/><text fill="#000000" font-family="sans-serif" font-size="11" lengthAdjust="spacingAndGlyphs" textLength="36" x="87.5" y="184.5986">Game()</text><ellipse cx="78.5" cy="195.4336" fill="#84BE84" rx="3" ry="3" style="stroke: #038048; stroke-width: 1.0;"/><text fill="#000000" font-family="sans-serif" font-size="11" lengthAdjust="spacingAndGlyphs" textLength="58" x="87.5" y="198.4346">clear(): void</text><ellipse cx="78.5" cy="209.2695" fill="#84BE84" rx="3" ry="3" style="stroke: #038048; stroke-width: 1.0;"/><text fill="#000000" font-family="sans-serif" font-size="11" lengthAdjust="spacingAndGlyphs" textLength="236" x="87.5" y="212.2705">proposeCombination(ProposedCombination): void</text><ellipse cx="78.5" cy="223.1055" fill="#84BE84" rx="3" ry="3" style="stroke: #038048; stroke-width: 1.0;"/><text fill="#000000" font-family="sans-serif" font-size="11" lengthAdjust="spacingAndGlyphs" textLength="62" x="87.5" y="226.1064">getTurn(): int</text><ellipse cx="78.5" cy="236.9414" fill="#84BE84" rx="3" ry="3" style="stroke: #038048; stroke-width: 1.0;"/><text fill="#000000" font-family="sans-serif" font-size="11" lengthAdjust="spacingAndGlyphs" textLength="94" x="87.5" y="239.9424">isLooser(): boolean</text><ellipse cx="78.5" cy="250.7773" fill="#84BE84" rx="3" ry="3" style="stroke: #038048; stroke-width: 1.0;"/><text fill="#000000" font-family="sans-serif" font-size="11" lengthAdjust="spacingAndGlyphs" textLength="67" x="87.5" y="253.7783">getWidth(): int</text><ellipse cx="78.5" cy="264.6133" fill="#84BE84" rx="3" ry="3" style="stroke: #038048; stroke-width: 1.0;"/><text fill="#000000" font-family="sans-serif" font-size="11" lengthAdjust="spacingAndGlyphs" textLength="94" x="87.5" y="267.6143">isWinner(): boolean</text><ellipse cx="78.5" cy="278.4492" fill="#84BE84" rx="3" ry="3" style="stroke: #038048; stroke-width: 1.0;"/><text fill="#000000" font-family="sans-serif" font-size="11" lengthAdjust="spacingAndGlyphs" textLength="89" x="87.5" y="281.4502">getCodes(): int[][][]</text><!--class mastermind.models.SecretCombination--><rect fill="#FEFECE" filter="url(#f1mb3ratp6t0un)" height="75.6719" id="mastermind.models.SecretCombination" style="stroke: #A80036; stroke-width: 1.5;" width="219" x="112.5" y="403"/><ellipse cx="164.75" cy="419" fill="#ADD1B2" rx="11" ry="11" style="stroke: #A80036; stroke-width: 1.0;"/><path d="M167.5156,414.875 Q167.6719,414.6563 167.8594,414.5469 Q168.0469,414.4375 168.2656,414.4375 Q168.6406,414.4375 168.875,414.6953 Q169.1094,414.9531 169.1094,415.5625 L169.1094,417.0156 Q169.1094,417.625 168.875,417.8906 Q168.6406,418.1563 168.2656,418.1563 Q167.9219,418.1563 167.7188,417.9531 Q167.5156,417.7656 167.4063,417.25 Q167.3594,416.8906 167.1719,416.7031 Q166.8438,416.3281 166.2344,416.1094 Q165.625,415.8906 165,415.8906 Q164.2344,415.8906 163.6016,416.2188 Q162.9688,416.5469 162.4766,417.2969 Q161.9844,418.0469 161.9844,419.0781 L161.9844,420.1719 Q161.9844,421.4063 162.875,422.2266 Q163.7656,423.0469 165.3594,423.0469 Q166.2969,423.0469 166.9531,422.7969 Q167.3438,422.6406 167.7656,422.2031 Q168.0313,421.9375 168.1797,421.8594 Q168.3281,421.7813 168.5313,421.7813 Q168.8594,421.7813 169.1172,422.0391 Q169.375,422.2969 169.375,422.6406 Q169.375,422.9844 169.0313,423.3906 Q168.5313,423.9688 167.7344,424.2969 Q166.6563,424.75 165.3594,424.75 Q163.8438,424.75 162.6406,424.125 Q161.6563,423.625 160.9688,422.5547 Q160.2813,421.4844 160.2813,420.2031 L160.2813,419.0469 Q160.2813,417.7188 160.8984,416.5703 Q161.5156,415.4219 162.6094,414.8047 Q163.7031,414.1875 164.9375,414.1875 Q165.6719,414.1875 166.3203,414.3516 Q166.9688,414.5156 167.5156,414.875 Z "/><text fill="#000000" font-family="sans-serif" font-size="12" lengthAdjust="spacingAndGlyphs" textLength="106" x="185.25" y="423.9102">SecretCombination</text><line style="stroke: #A80036; stroke-width: 1.5;" x1="113.5" x2="330.5" y1="435" y2="435"/><line style="stroke: #A80036; stroke-width: 1.5;" x1="113.5" x2="330.5" y1="443" y2="443"/><polygon fill="#4177AF" points="123.5,451.418,119.5,457.418,127.5,457.418" style="stroke: #1963A0; stroke-width: 1.0;"/><text fill="#000000" font-family="sans-serif" font-size="11" lengthAdjust="spacingAndGlyphs" textLength="98" x="132.5" y="458.4189">SecretCombination()</text><polygon fill="#4177AF" points="123.5,465.2539,119.5,471.2539,127.5,471.2539" style="stroke: #1963A0; stroke-width: 1.0;"/><text fill="#000000" font-family="sans-serif" font-size="11" lengthAdjust="spacingAndGlyphs" textLength="193" x="132.5" y="472.2549">getResult(ProposedCombination): Result</text><!--class mastermind.models.Result--><rect fill="#FEFECE" filter="url(#f1mb3ratp6t0un)" height="117.1797" id="mastermind.models.Result" style="stroke: #A80036; stroke-width: 1.5;" width="120" x="38" y="601"/><ellipse cx="76.4" cy="617" fill="#ADD1B2" rx="11" ry="11" style="stroke: #A80036; stroke-width: 1.0;"/><path d="M79.1656,612.875 Q79.3219,612.6563 79.5094,612.5469 Q79.6969,612.4375 79.9156,612.4375 Q80.2906,612.4375 80.525,612.6953 Q80.7594,612.9531 80.7594,613.5625 L80.7594,615.0156 Q80.7594,615.625 80.525,615.8906 Q80.2906,616.1563 79.9156,616.1563 Q79.5719,616.1563 79.3688,615.9531 Q79.1656,615.7656 79.0563,615.25 Q79.0094,614.8906 78.8219,614.7031 Q78.4938,614.3281 77.8844,614.1094 Q77.275,613.8906 76.65,613.8906 Q75.8844,613.8906 75.2516,614.2188 Q74.6188,614.5469 74.1266,615.2969 Q73.6344,616.0469 73.6344,617.0781 L73.6344,618.1719 Q73.6344,619.4063 74.525,620.2266 Q75.4156,621.0469 77.0094,621.0469 Q77.9469,621.0469 78.6031,620.7969 Q78.9938,620.6406 79.4156,620.2031 Q79.6813,619.9375 79.8297,619.8594 Q79.9781,619.7813 80.1813,619.7813 Q80.5094,619.7813 80.7672,620.0391 Q81.025,620.2969 81.025,620.6406 Q81.025,620.9844 80.6813,621.3906 Q80.1813,621.9688 79.3844,622.2969 Q78.3063,622.75 77.0094,622.75 Q75.4938,622.75 74.2906,622.125 Q73.3063,621.625 72.6188,620.5547 Q71.9313,619.4844 71.9313,618.2031 L71.9313,617.0469 Q71.9313,615.7188 72.5484,614.5703 Q73.1656,613.4219 74.2594,612.8047 Q75.3531,612.1875 76.5875,612.1875 Q77.3219,612.1875 77.9703,612.3516 Q78.6188,612.5156 79.1656,612.875 Z "/><text fill="#000000" font-family="sans-serif" font-size="12" lengthAdjust="spacingAndGlyphs" textLength="36" x="95.6" y="621.9102">Result</text><line style="stroke: #A80036; stroke-width: 1.5;" x1="39" x2="157" y1="633" y2="633"/><rect fill="none" height="6" style="stroke: #C82930; stroke-width: 1.0;" width="6" x="46" y="642.418"/><text fill="#000000" font-family="sans-serif" font-size="11" lengthAdjust="spacingAndGlyphs" textLength="48" x="58" y="648.4189">blacks: int</text><rect fill="none" height="6" style="stroke: #C82930; stroke-width: 1.0;" width="6" x="46" y="656.2539"/><text fill="#000000" font-family="sans-serif" font-size="11" lengthAdjust="spacingAndGlyphs" textLength="50" x="58" y="662.2549">whites: int</text><line style="stroke: #A80036; stroke-width: 1.5;" x1="39" x2="157" y1="668.6719" y2="668.6719"/><polygon fill="#4177AF" points="49,677.0898,45,683.0898,53,683.0898" style="stroke: #1963A0; stroke-width: 1.0;"/><text fill="#000000" font-family="sans-serif" font-size="11" lengthAdjust="spacingAndGlyphs" textLength="66" x="58" y="684.0908">Result(int, int)</text><polygon fill="#4177AF" points="49,690.9258,45,696.9258,53,696.9258" style="stroke: #1963A0; stroke-width: 1.0;"/><text fill="#000000" font-family="sans-serif" font-size="11" lengthAdjust="spacingAndGlyphs" textLength="94" x="58" y="697.9268">isWinner(): boolean</text><polygon fill="#4177AF" points="49,704.7617,45,710.7617,53,710.7617" style="stroke: #1963A0; stroke-width: 1.0;"/><text fill="#000000" font-family="sans-serif" font-size="11" lengthAdjust="spacingAndGlyphs" textLength="77" x="58" y="711.7627">getCodes(): int[]</text><!--class mastermind.models.ProposedCombination--><rect fill="#FEFECE" filter="url(#f1mb3ratp6t0un)" height="131.0156" id="mastermind.models.ProposedCombination" style="stroke: #A80036; stroke-width: 1.5;" width="217" x="193.5" y="594"/><ellipse cx="235.5" cy="610" fill="#ADD1B2" rx="11" ry="11" style="stroke: #A80036; stroke-width: 1.0;"/><path d="M238.2656,605.875 Q238.4219,605.6563 238.6094,605.5469 Q238.7969,605.4375 239.0156,605.4375 Q239.3906,605.4375 239.625,605.6953 Q239.8594,605.9531 239.8594,606.5625 L239.8594,608.0156 Q239.8594,608.625 239.625,608.8906 Q239.3906,609.1563 239.0156,609.1563 Q238.6719,609.1563 238.4688,608.9531 Q238.2656,608.7656 238.1563,608.25 Q238.1094,607.8906 237.9219,607.7031 Q237.5938,607.3281 236.9844,607.1094 Q236.375,606.8906 235.75,606.8906 Q234.9844,606.8906 234.3516,607.2188 Q233.7188,607.5469 233.2266,608.2969 Q232.7344,609.0469 232.7344,610.0781 L232.7344,611.1719 Q232.7344,612.4063 233.625,613.2266 Q234.5156,614.0469 236.1094,614.0469 Q237.0469,614.0469 237.7031,613.7969 Q238.0938,613.6406 238.5156,613.2031 Q238.7813,612.9375 238.9297,612.8594 Q239.0781,612.7813 239.2813,612.7813 Q239.6094,612.7813 239.8672,613.0391 Q240.125,613.2969 240.125,613.6406 Q240.125,613.9844 239.7813,614.3906 Q239.2813,614.9688 238.4844,615.2969 Q237.4063,615.75 236.1094,615.75 Q234.5938,615.75 233.3906,615.125 Q232.4063,614.625 231.7188,613.5547 Q231.0313,612.4844 231.0313,611.2031 L231.0313,610.0469 Q231.0313,608.7188 231.6484,607.5703 Q232.2656,606.4219 233.3594,605.8047 Q234.4531,605.1875 235.6875,605.1875 Q236.4219,605.1875 237.0703,605.3516 Q237.7188,605.5156 238.2656,605.875 Z "/><text fill="#000000" font-family="sans-serif" font-size="12" lengthAdjust="spacingAndGlyphs" textLength="125" x="255.5" y="614.9102">ProposedCombination</text><line style="stroke: #A80036; stroke-width: 1.5;" x1="194.5" x2="409.5" y1="626" y2="626"/><line style="stroke: #A80036; stroke-width: 1.5;" x1="194.5" x2="409.5" y1="634" y2="634"/><ellipse cx="204.5" cy="646.418" fill="#84BE84" rx="3" ry="3" style="stroke: #038048; stroke-width: 1.0;"/><text fill="#000000" font-family="sans-serif" font-size="11" lengthAdjust="spacingAndGlyphs" textLength="112" x="213.5" y="649.4189">ProposedCombination()</text><polygon fill="#4177AF" points="204.5,656.2539,200.5,662.2539,208.5,662.2539" style="stroke: #1963A0; stroke-width: 1.0;"/><text fill="#000000" font-family="sans-serif" font-size="11" lengthAdjust="spacingAndGlyphs" textLength="118" x="213.5" y="663.2549">contains(Color): boolean</text><polygon fill="#4177AF" points="204.5,670.0898,200.5,676.0898,208.5,676.0898" style="stroke: #1963A0; stroke-width: 1.0;"/><text fill="#000000" font-family="sans-serif" font-size="11" lengthAdjust="spacingAndGlyphs" textLength="135" x="213.5" y="677.0908">contains(Color, int): boolean</text><ellipse cx="204.5" cy="687.9258" fill="#84BE84" rx="3" ry="3" style="stroke: #038048; stroke-width: 1.0;"/><text fill="#000000" font-family="sans-serif" font-size="11" lengthAdjust="spacingAndGlyphs" text-decoration="underline" textLength="191" x="213.5" y="690.9268">getInstance(int[]): ProposedCombination</text><ellipse cx="204.5" cy="701.7617" fill="#84BE84" rx="3" ry="3" style="stroke: #038048; stroke-width: 1.0;"/><text fill="#000000" font-family="sans-serif" font-size="11" lengthAdjust="spacingAndGlyphs" text-decoration="underline" textLength="87" x="213.5" y="704.7627">isValid(int[]): Error</text><polygon fill="#4177AF" points="204.5,711.5977,200.5,717.5977,208.5,717.5977" style="stroke: #1963A0; stroke-width: 1.0;"/><text fill="#000000" font-family="sans-serif" font-size="11" lengthAdjust="spacingAndGlyphs" textLength="77" x="213.5" y="718.5986">getCodes(): int[]</text><!--class java.util.List--><rect fill="#FEFECE" filter="url(#f1mb3ratp6t0un)" height="48" id="java.util.List" style="stroke: #A80036; stroke-width: 1.5;" width="52" x="592" y="417"/><ellipse cx="607" cy="433" fill="#ADD1B2" rx="11" ry="11" style="stroke: #A80036; stroke-width: 1.0;"/><path d="M609.7656,428.875 Q609.9219,428.6563 610.1094,428.5469 Q610.2969,428.4375 610.5156,428.4375 Q610.8906,428.4375 611.125,428.6953 Q611.3594,428.9531 611.3594,429.5625 L611.3594,431.0156 Q611.3594,431.625 611.125,431.8906 Q610.8906,432.1563 610.5156,432.1563 Q610.1719,432.1563 609.9688,431.9531 Q609.7656,431.7656 609.6563,431.25 Q609.6094,430.8906 609.4219,430.7031 Q609.0938,430.3281 608.4844,430.1094 Q607.875,429.8906 607.25,429.8906 Q606.4844,429.8906 605.8516,430.2188 Q605.2188,430.5469 604.7266,431.2969 Q604.2344,432.0469 604.2344,433.0781 L604.2344,434.1719 Q604.2344,435.4063 605.125,436.2266 Q606.0156,437.0469 607.6094,437.0469 Q608.5469,437.0469 609.2031,436.7969 Q609.5938,436.6406 610.0156,436.2031 Q610.2813,435.9375 610.4297,435.8594 Q610.5781,435.7813 610.7813,435.7813 Q611.1094,435.7813 611.3672,436.0391 Q611.625,436.2969 611.625,436.6406 Q611.625,436.9844 611.2813,437.3906 Q610.7813,437.9688 609.9844,438.2969 Q608.9063,438.75 607.6094,438.75 Q606.0938,438.75 604.8906,438.125 Q603.9063,437.625 603.2188,436.5547 Q602.5313,435.4844 602.5313,434.2031 L602.5313,433.0469 Q602.5313,431.7188 603.1484,430.5703 Q603.7656,429.4219 604.8594,428.8047 Q605.9531,428.1875 607.1875,428.1875 Q607.9219,428.1875 608.5703,428.3516 Q609.2188,428.5156 609.7656,428.875 Z "/><text fill="#000000" font-family="sans-serif" font-size="12" lengthAdjust="spacingAndGlyphs" textLength="20" x="621" y="437.9102">List</text><line style="stroke: #A80036; stroke-width: 1.5;" x1="593" x2="643" y1="449" y2="449"/><line style="stroke: #A80036; stroke-width: 1.5;" x1="593" x2="643" y1="457" y2="457"/><!--link mastermind.models.Combination to java.util.List--><path d="M488.488,236.919 C521.981,289.438 568.798,362.849 596.005,405.511 " fill="none" id="mastermind.models.Combination-java.util.List" style="stroke: #A80036; stroke-width: 1.0;"/><polygon fill="#A80036" points="603.131,416.685,601.6646,406.9459,600.4426,412.4692,594.9193,411.2473,603.131,416.685" style="stroke: #A80036; stroke-width: 1.0;"/><line style="stroke: #A80036; stroke-width: 1.0;" x1="600.4426" x2="596.1415" y1="412.4692" y2="405.7245"/><polygon fill="#A80036" points="481.385,225.781,481.2388,232.9906,487.8377,235.8985,487.9838,228.6888,481.385,225.781" style="stroke: #A80036; stroke-width: 1.0;"/><!--link mastermind.models.Combination to mastermind.models.Color--><path d="M445.147,238.813 C443.414,267.522 441.321,302.178 439.365,334.578 " fill="none" id="mastermind.models.Combination-mastermind.models.Color" style="stroke: #A80036; stroke-width: 1.0;"/><polygon fill="#A80036" points="438.566,347.82,443.1016,339.0777,438.8676,342.8291,435.1162,338.5951,438.566,347.82" style="stroke: #A80036; stroke-width: 1.0;"/><line style="stroke: #A80036; stroke-width: 1.0;" x1="438.8676" x2="439.349" y1="342.8291" y2="334.8435"/><polygon fill="#A80036" points="445.934,225.781,441.5793,231.5287,445.21,237.7591,449.5647,232.0114,445.934,225.781" style="stroke: #A80036; stroke-width: 1.0;"/><!--link mastermind.models.Game to java.util.List--><path d="M354.006,278.117 C360.347,281.582 366.694,284.893 373,288 C448.267,325.082 484.498,298.164 552,348 C572.299,362.986 588.835,386.074 600.278,405.371 " fill="none" id="mastermind.models.Game-java.util.List" style="stroke: #A80036; stroke-width: 1.0;"/><polygon fill="#A80036" points="606.733,416.789,605.7859,406.9858,604.2723,412.4364,598.8217,410.9229,606.733,416.789" style="stroke: #A80036; stroke-width: 1.0;"/><line style="stroke: #A80036; stroke-width: 1.0;" x1="604.2723" x2="600.3355" y1="412.4364" y2="405.472"/><polygon fill="#A80036" points="342.606,271.727,345.8834,278.1503,353.0731,277.5955,349.7957,271.1722,342.606,271.727" style="stroke: #A80036; stroke-width: 1.0;"/><!--link mastermind.models.Game to mastermind.models.SecretCombination--><path d="M213.097,301.215 C215.103,332.486 217.139,364.225 218.757,389.443 " fill="none" id="mastermind.models.Game-mastermind.models.SecretCombination" style="stroke: #A80036; stroke-width: 1.0;"/><polygon fill="#A80036" points="219.61,402.738,223.0262,393.5006,219.2902,397.7482,215.0426,394.0123,219.61,402.738" style="stroke: #A80036; stroke-width: 1.0;"/><line style="stroke: #A80036; stroke-width: 1.0;" x1="219.2902" x2="218.7775" y1="397.7482" y2="389.765"/><polygon fill="#A80036" points="212.259,288.153,208.6509,294.3965,213.0265,300.1284,216.6346,293.8849,212.259,288.153" style="stroke: #A80036; stroke-width: 1.0;"/><!--link mastermind.models.Game to mastermind.models.Result--><path d="M87.1794,299.411 C77.4164,314.899 69.0049,331.22 63,348 C34.7432,426.963 53.3796,523.793 72.5765,588.112 " fill="none" id="mastermind.models.Game-mastermind.models.Result" style="stroke: #A80036; stroke-width: 1.0;"/><polygon fill="#A80036" points="76.537,600.926,77.7012,591.1462,75.0606,596.1489,70.0579,593.5084,76.537,600.926" style="stroke: #A80036; stroke-width: 1.0;"/><line style="stroke: #A80036; stroke-width: 1.0;" x1="75.0606" x2="72.6982" y1="596.1489" y2="588.5065"/><polygon fill="#A80036" points="94.5121,288.287,87.8703,291.0953,87.9081,298.3063,94.5499,295.498,94.5121,288.287" style="stroke: #A80036; stroke-width: 1.0;"/><!--link mastermind.models.Game to mastermind.models.ProposedCombination--><path d="M120.523,288.367 C110.026,307.439 100.9171,327.666 95,348 C71.9023,427.374 54.3085,462.042 95,534 C100.9743,544.565 143.875,571.034 189.084,596.863 " fill="none" id="mastermind.models.Game-mastermind.models.ProposedCombination" style="stroke: #A80036; stroke-width: 1.0;"/><polygon fill="#A80036" points="193.466,599.36,187.6271,591.4286,189.1219,596.8844,183.6661,598.3792,193.466,599.36" style="stroke: #A80036; stroke-width: 1.0;"/><!--link mastermind.models.Combination to mastermind.models.ProposedCombination--><path d="M488.16,243.807 C525.664,319.687 569.426,443.06 517,534 C493.627,574.544 451.445,603.085 410.597,622.514 " fill="none" id="mastermind.models.Combination-mastermind.models.ProposedCombination" style="stroke: #A80036; stroke-width: 1.0;"/><polygon fill="none" points="481.715,246.579,478.823,225.588,494.174,240.193,481.715,246.579" style="stroke: #A80036; stroke-width: 1.0;"/><!--link mastermind.models.ProposedCombination to mastermind.models.Error--><path d="M302,725.179 C302,742.864 302,762.001 302,779.586 " fill="none" id="mastermind.models.ProposedCombination-mastermind.models.Error" style="stroke: #A80036; stroke-width: 1.0; stroke-dasharray: 7.0,7.0;"/><polygon fill="#A80036" points="302,784.99,306,775.99,302,779.99,298,775.99,302,784.99" style="stroke: #A80036; stroke-width: 1.0;"/><!--link mastermind.models.Combination to mastermind.models.SecretCombination--><path d="M397.579,241.884 C385.456,257.202 372.437,273.299 360,288 C326.046,328.137 285.406,372.482 257.057,402.862 " fill="none" id="mastermind.models.Combination-mastermind.models.SecretCombination" style="stroke: #A80036; stroke-width: 1.0;"/><polygon fill="none" points="392.453,237.077,410.311,225.67,403.464,245.723,392.453,237.077" style="stroke: #A80036; stroke-width: 1.0;"/><!--link mastermind.models.SecretCombination to mastermind.models.Result--><path d="M200.684,479.218 C182.319,511.282 155.427,558.235 133.77,596.047 " fill="none" id="mastermind.models.SecretCombination-mastermind.models.Result" style="stroke: #A80036; stroke-width: 1.0; stroke-dasharray: 7.0,7.0;"/><polygon fill="#A80036" points="131.156,600.611,139.1,594.7892,133.641,596.2722,132.158,590.8132,131.156,600.611" style="stroke: #A80036; stroke-width: 1.0;"/><!--link mastermind.models.SecretCombination to mastermind.models.ProposedCombination--><path d="M235.752,479.218 C246.869,509.301 262.827,552.488 276.295,588.937 " fill="none" id="mastermind.models.SecretCombination-mastermind.models.ProposedCombination" style="stroke: #A80036; stroke-width: 1.0; stroke-dasharray: 7.0,7.0;"/><polygon fill="#A80036" points="278.094,593.804,278.7242,583.9753,276.3598,589.1144,271.2208,586.75,278.094,593.804" style="stroke: #A80036; stroke-width: 1.0;"/><!--
@startuml

class  mastermind.models.Color{
+ {static} RED: Color
+ {static} BLUE: Color
+ {static} YELLOW: Color
+ {static} GREEN: Color
+ {static} ORANGE: Color
+ {static} PURPLE: Color
- Color()
+ {static} valueOf(String): Color
~ {static} length(): int
~ {static} getInstance(int): Color
}

class  mastermind.models.Combination{
- {static} WIDTH: int
# colors: List<Color>
# Combination()
+ {static} getWidth(): int
}
mastermind.models.Combination *-down-> java.util.List
mastermind.models.Combination *-down-> mastermind.models.Color

class  mastermind.models.Error{
+ {static} DUPLICATED: Error
+ {static} WRONG_CHARACTERS: Error
+ {static} WRONG_LENGTH: Error
- Error()
+ {static} valueOf(String): Error
}

class  mastermind.models.Game{
- {static} MAX_LONG: int
- secretCombination: SecretCombination
- proposedCombinations: List<ProposedCombination>
- results: List<Result>
- turn: int
+ Game()
+ clear(): void
+ proposeCombination(ProposedCombination): void
+ getTurn(): int
+ isLooser(): boolean
+ getWidth(): int
+ isWinner(): boolean
+ getCodes(): int[][][]
}
mastermind.models.Game *-down-> java.util.List
mastermind.models.Game *-down-> mastermind.models.SecretCombination
mastermind.models.Game *-down-> mastermind.models.Result
mastermind.models.Game - -> mastermind.models.ProposedCombination

class  mastermind.models.ProposedCombination{
+ ProposedCombination()
~ contains(Color): boolean
~ contains(Color, int): boolean
+ {static} getInstance(int[]): ProposedCombination
+ {static} isValid(int[]): Error
~ getCodes(): int[]
}
mastermind.models.Combination <|-down- mastermind.models.ProposedCombination
mastermind.models.ProposedCombination ..> mastermind.models.Error

class  mastermind.models.Result{
- blacks: int
- whites: int
~ Result(int, int)
~ isWinner(): boolean
~ getCodes(): int[]
}

class  mastermind.models.SecretCombination{
~ SecretCombination()
~ getResult(ProposedCombination): Result
}
mastermind.models.Combination <|-down- mastermind.models.SecretCombination
mastermind.models.SecretCombination ..> mastermind.models.Result
mastermind.models.SecretCombination ..> mastermind.models.ProposedCombination

@enduml

PlantUML version 1.2019.05(Sat Apr 20 18:45:36 CEST 2019)
(GPL source distribution)
Java Runtime: OpenJDK Runtime Environment
JVM: OpenJDK 64-Bit Server VM
Java Version: 1.8.0_222-b10
Operating System: Windows 10
OS Version: 10.0
Default Encoding: windows-1252
Language: es
Country: ES
--></g></svg>