<?xml version="1.0" encoding="UTF-8" standalone="no"?><svg xmlns="http://www.w3.org/2000/svg" xmlns:xlink="http://www.w3.org/1999/xlink" contentScriptType="application/ecmascript" contentStyleType="text/css" height="575px" preserveAspectRatio="none" style="width:456px;height:575px;" version="1.1" viewBox="0 0 456 575" width="456px" zoomAndPan="magnify"><defs><filter height="300%" id="f13ht7arx729lx" width="300%" x="-1" y="-1"><feGaussianBlur result="blurOut" stdDeviation="2.0"/><feColorMatrix in="blurOut" result="blurOut2" type="matrix" values="0 0 0 0 0 0 0 0 0 0 0 0 0 0 0 0 0 0 .4 0"/><feOffset dx="4.0" dy="4.0" in="blurOut2" result="blurOut3"/><feBlend in="SourceGraphic" in2="blurOut3" mode="normal"/></filter></defs><g><!--cluster mastermind.utils--><polygon fill="#FFFFFF" filter="url(#f13ht7arx729lx)" points="22,24,144,24,151,47.6094,434,47.6094,434,439,22,439,22,24" style="stroke: #000000; stroke-width: 1.5;"/><line style="stroke: #000000; stroke-width: 1.5;" x1="22" x2="151" y1="47.6094" y2="47.6094"/><text fill="#000000" font-family="sans-serif" font-size="14" font-weight="bold" lengthAdjust="spacingAndGlyphs" textLength="116" x="26" y="40.5332">mastermind.utils</text><!--cluster java.io--><polygon fill="#FFFFFF" filter="url(#f13ht7arx729lx)" points="56,463,108,463,115,486.6094,208,486.6094,208,563,56,563,56,463" style="stroke: #000000; stroke-width: 1.5;"/><line style="stroke: #000000; stroke-width: 1.5;" x1="56" x2="115" y1="486.6094" y2="486.6094"/><text fill="#000000" font-family="sans-serif" font-size="14" font-weight="bold" lengthAdjust="spacingAndGlyphs" textLength="46" x="60" y="479.5332">java.io</text><!--class mastermind.utils.ClosedInterval--><rect fill="#FEFECE" filter="url(#f13ht7arx729lx)" height="103.3438" id="mastermind.utils.ClosedInterval" style="stroke: #A80036; stroke-width: 1.5;" width="130" x="274" y="60"/><ellipse cx="297.55" cy="76" fill="#ADD1B2" rx="11" ry="11" style="stroke: #A80036; stroke-width: 1.0;"/><path d="M300.3156,71.875 Q300.4719,71.6563 300.6594,71.5469 Q300.8469,71.4375 301.0656,71.4375 Q301.4406,71.4375 301.675,71.6953 Q301.9094,71.9531 301.9094,72.5625 L301.9094,74.0156 Q301.9094,74.625 301.675,74.8906 Q301.4406,75.1563 301.0656,75.1563 Q300.7219,75.1563 300.5188,74.9531 Q300.3156,74.7656 300.2063,74.25 Q300.1594,73.8906 299.9719,73.7031 Q299.6438,73.3281 299.0344,73.1094 Q298.425,72.8906 297.8,72.8906 Q297.0344,72.8906 296.4016,73.2188 Q295.7688,73.5469 295.2766,74.2969 Q294.7844,75.0469 294.7844,76.0781 L294.7844,77.1719 Q294.7844,78.4063 295.675,79.2266 Q296.5656,80.0469 298.1594,80.0469 Q299.0969,80.0469 299.7531,79.7969 Q300.1438,79.6406 300.5656,79.2031 Q300.8313,78.9375 300.9797,78.8594 Q301.1281,78.7813 301.3313,78.7813 Q301.6594,78.7813 301.9172,79.0391 Q302.175,79.2969 302.175,79.6406 Q302.175,79.9844 301.8313,80.3906 Q301.3313,80.9688 300.5344,81.2969 Q299.4563,81.75 298.1594,81.75 Q296.6438,81.75 295.4406,81.125 Q294.4563,80.625 293.7688,79.5547 Q293.0813,78.4844 293.0813,77.2031 L293.0813,76.0469 Q293.0813,74.7188 293.6984,73.5703 Q294.3156,72.4219 295.4094,71.8047 Q296.5031,71.1875 297.7375,71.1875 Q298.4719,71.1875 299.1203,71.3516 Q299.7688,71.5156 300.3156,71.875 Z "/><text fill="#000000" font-family="sans-serif" font-size="12" lengthAdjust="spacingAndGlyphs" textLength="79" x="313.45" y="80.9102">ClosedInterval</text><line style="stroke: #A80036; stroke-width: 1.5;" x1="275" x2="403" y1="92" y2="92"/><rect fill="none" height="6" style="stroke: #C82930; stroke-width: 1.0;" width="6" x="282" y="101.418"/><text fill="#000000" font-family="sans-serif" font-size="11" lengthAdjust="spacingAndGlyphs" textLength="33" x="294" y="107.4189">min: int</text><rect fill="none" height="6" style="stroke: #C82930; stroke-width: 1.0;" width="6" x="282" y="115.2539"/><text fill="#000000" font-family="sans-serif" font-size="11" lengthAdjust="spacingAndGlyphs" textLength="37" x="294" y="121.2549">max: int</text><line style="stroke: #A80036; stroke-width: 1.5;" x1="275" x2="403" y1="127.6719" y2="127.6719"/><ellipse cx="285" cy="140.0898" fill="#84BE84" rx="3" ry="3" style="stroke: #038048; stroke-width: 1.0;"/><text fill="#000000" font-family="sans-serif" font-size="11" lengthAdjust="spacingAndGlyphs" textLength="104" x="294" y="143.0908">ClosedInterval(int, int)</text><ellipse cx="285" cy="153.9258" fill="#84BE84" rx="3" ry="3" style="stroke: #038048; stroke-width: 1.0;"/><text fill="#000000" font-family="sans-serif" font-size="11" lengthAdjust="spacingAndGlyphs" textLength="103" x="294" y="156.9268">includes(int): boolean</text><!--class mastermind.utils.Console--><rect fill="#FEFECE" filter="url(#f13ht7arx729lx)" height="200.1953" id="mastermind.utils.Console" style="stroke: #A80036; stroke-width: 1.5;" width="187" x="38.5" y="223"/><ellipse cx="104.25" cy="239" fill="#ADD1B2" rx="11" ry="11" style="stroke: #A80036; stroke-width: 1.0;"/><path d="M107.0156,234.875 Q107.1719,234.6563 107.3594,234.5469 Q107.5469,234.4375 107.7656,234.4375 Q108.1406,234.4375 108.375,234.6953 Q108.6094,234.9531 108.6094,235.5625 L108.6094,237.0156 Q108.6094,237.625 108.375,237.8906 Q108.1406,238.1563 107.7656,238.1563 Q107.4219,238.1563 107.2188,237.9531 Q107.0156,237.7656 106.9063,237.25 Q106.8594,236.8906 106.6719,236.7031 Q106.3438,236.3281 105.7344,236.1094 Q105.125,235.8906 104.5,235.8906 Q103.7344,235.8906 103.1016,236.2188 Q102.4688,236.5469 101.9766,237.2969 Q101.4844,238.0469 101.4844,239.0781 L101.4844,240.1719 Q101.4844,241.4063 102.375,242.2266 Q103.2656,243.0469 104.8594,243.0469 Q105.7969,243.0469 106.4531,242.7969 Q106.8438,242.6406 107.2656,242.2031 Q107.5313,241.9375 107.6797,241.8594 Q107.8281,241.7813 108.0313,241.7813 Q108.3594,241.7813 108.6172,242.0391 Q108.875,242.2969 108.875,242.6406 Q108.875,242.9844 108.5313,243.3906 Q108.0313,243.9688 107.2344,244.2969 Q106.1563,244.75 104.8594,244.75 Q103.3438,244.75 102.1406,244.125 Q101.1563,243.625 100.4688,242.5547 Q99.7813,241.4844 99.7813,240.2031 L99.7813,239.0469 Q99.7813,237.7188 100.3984,236.5703 Q101.0156,235.4219 102.1094,234.8047 Q103.2031,234.1875 104.4375,234.1875 Q105.1719,234.1875 105.8203,234.3516 Q106.4688,234.5156 107.0156,234.875 Z "/><text fill="#000000" font-family="sans-serif" font-size="12" lengthAdjust="spacingAndGlyphs" textLength="47" x="124.75" y="243.9102">Console</text><line style="stroke: #A80036; stroke-width: 1.5;" x1="39.5" x2="224.5" y1="255" y2="255"/><rect fill="none" height="6" style="stroke: #C82930; stroke-width: 1.0;" width="6" x="46.5" y="264.418"/><text fill="#000000" font-family="sans-serif" font-size="11" lengthAdjust="spacingAndGlyphs" textLength="161" x="58.5" y="270.4189">bufferedReader: BufferedReader</text><line style="stroke: #A80036; stroke-width: 1.5;" x1="39.5" x2="224.5" y1="276.8359" y2="276.8359"/><ellipse cx="49.5" cy="289.2539" fill="#84BE84" rx="3" ry="3" style="stroke: #038048; stroke-width: 1.0;"/><text fill="#000000" font-family="sans-serif" font-size="11" lengthAdjust="spacingAndGlyphs" textLength="47" x="58.5" y="292.2549">Console()</text><ellipse cx="49.5" cy="303.0898" fill="#84BE84" rx="3" ry="3" style="stroke: #038048; stroke-width: 1.0;"/><text fill="#000000" font-family="sans-serif" font-size="11" lengthAdjust="spacingAndGlyphs" textLength="81" x="58.5" y="306.0908">write(char): void</text><ellipse cx="49.5" cy="316.9258" fill="#84BE84" rx="3" ry="3" style="stroke: #038048; stroke-width: 1.0;"/><text fill="#000000" font-family="sans-serif" font-size="11" lengthAdjust="spacingAndGlyphs" textLength="87" x="58.5" y="319.9268">write(String): void</text><ellipse cx="49.5" cy="330.7617" fill="#84BE84" rx="3" ry="3" style="stroke: #038048; stroke-width: 1.0;"/><text fill="#000000" font-family="sans-serif" font-size="11" lengthAdjust="spacingAndGlyphs" textLength="86" x="58.5" y="333.7627">readInt(String): int</text><ellipse cx="49.5" cy="344.5977" fill="#84BE84" rx="3" ry="3" style="stroke: #038048; stroke-width: 1.0;"/><text fill="#000000" font-family="sans-serif" font-size="11" lengthAdjust="spacingAndGlyphs" textLength="109" x="58.5" y="347.5986">readChar(String): char</text><ellipse cx="49.5" cy="358.4336" fill="#84BE84" rx="3" ry="3" style="stroke: #038048; stroke-width: 1.0;"/><text fill="#000000" font-family="sans-serif" font-size="11" lengthAdjust="spacingAndGlyphs" textLength="120" x="58.5" y="361.4346">readString(String): String</text><ellipse cx="49.5" cy="372.2695" fill="#84BE84" rx="3" ry="3" style="stroke: #038048; stroke-width: 1.0;"/><text fill="#000000" font-family="sans-serif" font-size="11" lengthAdjust="spacingAndGlyphs" textLength="78" x="58.5" y="375.2705">writeln(int): void</text><ellipse cx="49.5" cy="386.1055" fill="#84BE84" rx="3" ry="3" style="stroke: #038048; stroke-width: 1.0;"/><text fill="#000000" font-family="sans-serif" font-size="11" lengthAdjust="spacingAndGlyphs" textLength="95" x="58.5" y="389.1064">writeln(String): void</text><ellipse cx="49.5" cy="399.9414" fill="#84BE84" rx="3" ry="3" style="stroke: #038048; stroke-width: 1.0;"/><text fill="#000000" font-family="sans-serif" font-size="11" lengthAdjust="spacingAndGlyphs" textLength="67" x="58.5" y="402.9424">writeln(): void</text><rect fill="#F24D5C" height="6" style="stroke: #C82930; stroke-width: 1.0;" width="6" x="46.5" y="410.7773"/><text fill="#000000" font-family="sans-serif" font-size="11" lengthAdjust="spacingAndGlyphs" textLength="111" x="58.5" y="416.7783">writeError(String): void</text><!--class mastermind.utils.WithConsoleView--><rect fill="#FEFECE" filter="url(#f13ht7arx729lx)" height="75.6719" id="mastermind.utils.WithConsoleView" style="stroke: #A80036; stroke-width: 1.5;" width="129" x="81.5" y="73.5"/><ellipse cx="96.5" cy="89.5" fill="#ADD1B2" rx="11" ry="11" style="stroke: #A80036; stroke-width: 1.0;"/><path d="M99.2656,85.375 Q99.4219,85.1563 99.6094,85.0469 Q99.7969,84.9375 100.0156,84.9375 Q100.3906,84.9375 100.625,85.1953 Q100.8594,85.4531 100.8594,86.0625 L100.8594,87.5156 Q100.8594,88.125 100.625,88.3906 Q100.3906,88.6563 100.0156,88.6563 Q99.6719,88.6563 99.4688,88.4531 Q99.2656,88.2656 99.1563,87.75 Q99.1094,87.3906 98.9219,87.2031 Q98.5938,86.8281 97.9844,86.6094 Q97.375,86.3906 96.75,86.3906 Q95.9844,86.3906 95.3516,86.7188 Q94.7188,87.0469 94.2266,87.7969 Q93.7344,88.5469 93.7344,89.5781 L93.7344,90.6719 Q93.7344,91.9063 94.625,92.7266 Q95.5156,93.5469 97.1094,93.5469 Q98.0469,93.5469 98.7031,93.2969 Q99.0938,93.1406 99.5156,92.7031 Q99.7813,92.4375 99.9297,92.3594 Q100.0781,92.2813 100.2813,92.2813 Q100.6094,92.2813 100.8672,92.5391 Q101.125,92.7969 101.125,93.1406 Q101.125,93.4844 100.7813,93.8906 Q100.2813,94.4688 99.4844,94.7969 Q98.4063,95.25 97.1094,95.25 Q95.5938,95.25 94.3906,94.625 Q93.4063,94.125 92.7188,93.0547 Q92.0313,91.9844 92.0313,90.7031 L92.0313,89.5469 Q92.0313,88.2188 92.6484,87.0703 Q93.2656,85.9219 94.3594,85.3047 Q95.4531,84.6875 96.6875,84.6875 Q97.4219,84.6875 98.0703,84.8516 Q98.7188,85.0156 99.2656,85.375 Z "/><text fill="#000000" font-family="sans-serif" font-size="12" lengthAdjust="spacingAndGlyphs" textLength="97" x="110.5" y="94.4102">WithConsoleView</text><line style="stroke: #A80036; stroke-width: 1.5;" x1="82.5" x2="209.5" y1="105.5" y2="105.5"/><polygon fill="none" points="92.5,112.918,96.5,116.918,92.5,120.918,88.5,116.918" style="stroke: #B38D22; stroke-width: 1.0;"/><text fill="#000000" font-family="sans-serif" font-size="11" lengthAdjust="spacingAndGlyphs" textLength="83" x="101.5" y="120.9189">console: Console</text><line style="stroke: #A80036; stroke-width: 1.5;" x1="82.5" x2="209.5" y1="127.3359" y2="127.3359"/><polygon fill="#FFFF44" points="92.5,134.7539,96.5,138.7539,92.5,142.7539,88.5,138.7539" style="stroke: #B38D22; stroke-width: 1.0;"/><text fill="#000000" font-family="sans-serif" font-size="11" lengthAdjust="spacingAndGlyphs" textLength="94" x="101.5" y="142.7549">WithConsoleView()</text><!--class mastermind.utils.YesNoDialog--><rect fill="#FEFECE" filter="url(#f13ht7arx729lx)" height="158.6875" id="mastermind.utils.YesNoDialog" style="stroke: #A80036; stroke-width: 1.5;" width="157" x="260.5" y="243.5"/><ellipse cx="298.9" cy="259.5" fill="#ADD1B2" rx="11" ry="11" style="stroke: #A80036; stroke-width: 1.0;"/><path d="M301.6656,255.375 Q301.8219,255.1563 302.0094,255.0469 Q302.1969,254.9375 302.4156,254.9375 Q302.7906,254.9375 303.025,255.1953 Q303.2594,255.4531 303.2594,256.0625 L303.2594,257.5156 Q303.2594,258.125 303.025,258.3906 Q302.7906,258.6563 302.4156,258.6563 Q302.0719,258.6563 301.8688,258.4531 Q301.6656,258.2656 301.5563,257.75 Q301.5094,257.3906 301.3219,257.2031 Q300.9938,256.8281 300.3844,256.6094 Q299.775,256.3906 299.15,256.3906 Q298.3844,256.3906 297.7516,256.7188 Q297.1188,257.0469 296.6266,257.7969 Q296.1344,258.5469 296.1344,259.5781 L296.1344,260.6719 Q296.1344,261.9063 297.025,262.7266 Q297.9156,263.5469 299.5094,263.5469 Q300.4469,263.5469 301.1031,263.2969 Q301.4938,263.1406 301.9156,262.7031 Q302.1813,262.4375 302.3297,262.3594 Q302.4781,262.2813 302.6813,262.2813 Q303.0094,262.2813 303.2672,262.5391 Q303.525,262.7969 303.525,263.1406 Q303.525,263.4844 303.1813,263.8906 Q302.6813,264.4688 301.8844,264.7969 Q300.8063,265.25 299.5094,265.25 Q297.9938,265.25 296.7906,264.625 Q295.8063,264.125 295.1188,263.0547 Q294.4313,261.9844 294.4313,260.7031 L294.4313,259.5469 Q294.4313,258.2188 295.0484,257.0703 Q295.6656,255.9219 296.7594,255.3047 Q297.8531,254.6875 299.0875,254.6875 Q299.8219,254.6875 300.4703,254.8516 Q301.1188,255.0156 301.6656,255.375 Z "/><text fill="#000000" font-family="sans-serif" font-size="12" lengthAdjust="spacingAndGlyphs" textLength="73" x="318.1" y="264.4102">YesNoDialog</text><line style="stroke: #A80036; stroke-width: 1.5;" x1="261.5" x2="416.5" y1="275.5" y2="275.5"/><rect fill="none" height="6" style="stroke: #C82930; stroke-width: 1.0;" width="6" x="268.5" y="284.918"/><text fill="#000000" font-family="sans-serif" font-size="11" lengthAdjust="spacingAndGlyphs" text-decoration="underline" textLength="89" x="280.5" y="290.9189">AFIRMATIVE: char</text><rect fill="none" height="6" style="stroke: #C82930; stroke-width: 1.0;" width="6" x="268.5" y="298.7539"/><text fill="#000000" font-family="sans-serif" font-size="11" lengthAdjust="spacingAndGlyphs" text-decoration="underline" textLength="79" x="280.5" y="304.7549">NEGATIVE: char</text><rect fill="none" height="6" style="stroke: #C82930; stroke-width: 1.0;" width="6" x="268.5" y="312.5898"/><text fill="#000000" font-family="sans-serif" font-size="11" lengthAdjust="spacingAndGlyphs" text-decoration="underline" textLength="85" x="280.5" y="318.5908">QUESTION: String</text><rect fill="none" height="6" style="stroke: #C82930; stroke-width: 1.0;" width="6" x="268.5" y="326.4258"/><text fill="#000000" font-family="sans-serif" font-size="11" lengthAdjust="spacingAndGlyphs" text-decoration="underline" textLength="84" x="280.5" y="332.4268">MESSAGE: String</text><line style="stroke: #A80036; stroke-width: 1.5;" x1="261.5" x2="416.5" y1="338.8438" y2="338.8438"/><ellipse cx="271.5" cy="351.2617" fill="#84BE84" rx="3" ry="3" style="stroke: #038048; stroke-width: 1.0;"/><text fill="#000000" font-family="sans-serif" font-size="11" lengthAdjust="spacingAndGlyphs" textLength="70" x="280.5" y="354.2627">YesNoDialog()</text><ellipse cx="271.5" cy="365.0977" fill="#84BE84" rx="3" ry="3" style="stroke: #038048; stroke-width: 1.0;"/><text fill="#000000" font-family="sans-serif" font-size="11" lengthAdjust="spacingAndGlyphs" textLength="102" x="280.5" y="368.0986">read(String): boolean</text><rect fill="#F24D5C" height="6" style="stroke: #C82930; stroke-width: 1.0;" width="6" x="268.5" y="375.9336"/><text fill="#000000" font-family="sans-serif" font-size="11" lengthAdjust="spacingAndGlyphs" text-decoration="underline" textLength="124" x="280.5" y="381.9346">isNegative(char): boolean</text><rect fill="#F24D5C" height="6" style="stroke: #C82930; stroke-width: 1.0;" width="6" x="268.5" y="389.7695"/><text fill="#000000" font-family="sans-serif" font-size="11" lengthAdjust="spacingAndGlyphs" text-decoration="underline" textLength="131" x="280.5" y="395.7705">isAfirmative(char): boolean</text><!--class java.io.BufferedReader--><rect fill="#FEFECE" filter="url(#f13ht7arx729lx)" height="48" id="java.io.BufferedReader" style="stroke: #A80036; stroke-width: 1.5;" width="119" x="72.5" y="499"/><ellipse cx="87.5" cy="515" fill="#ADD1B2" rx="11" ry="11" style="stroke: #A80036; stroke-width: 1.0;"/><path d="M90.2656,510.875 Q90.4219,510.6563 90.6094,510.5469 Q90.7969,510.4375 91.0156,510.4375 Q91.3906,510.4375 91.625,510.6953 Q91.8594,510.9531 91.8594,511.5625 L91.8594,513.0156 Q91.8594,513.625 91.625,513.8906 Q91.3906,514.1563 91.0156,514.1563 Q90.6719,514.1563 90.4688,513.9531 Q90.2656,513.7656 90.1563,513.25 Q90.1094,512.8906 89.9219,512.7031 Q89.5938,512.3281 88.9844,512.1094 Q88.375,511.8906 87.75,511.8906 Q86.9844,511.8906 86.3516,512.2188 Q85.7188,512.5469 85.2266,513.2969 Q84.7344,514.0469 84.7344,515.0781 L84.7344,516.1719 Q84.7344,517.4063 85.625,518.2266 Q86.5156,519.0469 88.1094,519.0469 Q89.0469,519.0469 89.7031,518.7969 Q90.0938,518.6406 90.5156,518.2031 Q90.7813,517.9375 90.9297,517.8594 Q91.0781,517.7813 91.2813,517.7813 Q91.6094,517.7813 91.8672,518.0391 Q92.125,518.2969 92.125,518.6406 Q92.125,518.9844 91.7813,519.3906 Q91.2813,519.9688 90.4844,520.2969 Q89.4063,520.75 88.1094,520.75 Q86.5938,520.75 85.3906,520.125 Q84.4063,519.625 83.7188,518.5547 Q83.0313,517.4844 83.0313,516.2031 L83.0313,515.0469 Q83.0313,513.7188 83.6484,512.5703 Q84.2656,511.4219 85.3594,510.8047 Q86.4531,510.1875 87.6875,510.1875 Q88.4219,510.1875 89.0703,510.3516 Q89.7188,510.5156 90.2656,510.875 Z "/><text fill="#000000" font-family="sans-serif" font-size="12" lengthAdjust="spacingAndGlyphs" textLength="87" x="101.5" y="519.9102">BufferedReader</text><line style="stroke: #A80036; stroke-width: 1.5;" x1="73.5" x2="190.5" y1="531" y2="531"/><line style="stroke: #A80036; stroke-width: 1.5;" x1="73.5" x2="190.5" y1="539" y2="539"/><!--link mastermind.utils.Console to java.io.BufferedReader--><path d="M132,436.55 C132,454.351 132,471.557 132,485.8061 " fill="none" id="mastermind.utils.Console-java.io.BufferedReader" style="stroke: #A80036; stroke-width: 1.0;"/><polygon fill="#A80036" points="132,498.9821,136,489.9821,132,493.9821,128,489.9821,132,498.9821" style="stroke: #A80036; stroke-width: 1.0;"/><line style="stroke: #A80036; stroke-width: 1.0;" x1="132" x2="132" y1="493.9821" y2="485.9821"/><polygon fill="#A80036" points="132,423.29,128,429.29,132,435.29,136,429.29,132,423.29" style="stroke: #A80036; stroke-width: 1.0;"/><!--link mastermind.utils.WithConsoleView to mastermind.utils.Console--><path d="M142.618,163.117 C141.667,177.347 140.593,193.416 139.503,209.729 " fill="none" id="mastermind.utils.WithConsoleView-mastermind.utils.Console" style="stroke: #A80036; stroke-width: 1.0;"/><polygon fill="#A80036" points="138.627,222.834,143.2184,214.1208,138.9605,217.8451,135.2362,213.5872,138.627,222.834" style="stroke: #A80036; stroke-width: 1.0;"/><line style="stroke: #A80036; stroke-width: 1.0;" x1="138.9605" x2="139.494" y1="217.8451" y2="209.8625"/><polygon fill="#A80036" points="143.497,149.954,139.1057,155.6738,142.6966,161.9273,147.0879,156.2074,143.497,149.954" style="stroke: #A80036; stroke-width: 1.0;"/><!--link mastermind.utils.WithConsoleView to mastermind.utils.YesNoDialog--><path d="M194.143,164.759 C215.978,188.46 242.267,216.997 266.422,243.217 " fill="none" id="mastermind.utils.WithConsoleView-mastermind.utils.YesNoDialog" style="stroke: #A80036; stroke-width: 1.0;"/><polygon fill="none" points="188.907,169.407,180.505,149.954,199.204,159.921,188.907,169.407" style="stroke: #A80036; stroke-width: 1.0;"/><!--
@startuml

class  mastermind.utils.ClosedInterval{
- min: int
- max: int
+ ClosedInterval(int, int)
+ includes(int): boolean
}

class  mastermind.utils.Console{
- bufferedReader: BufferedReader
+ Console()
+ write(char): void
+ write(String): void
+ readInt(String): int
+ readChar(String): char
+ readString(String): String
+ writeln(int): void
+ writeln(String): void
+ writeln(): void
- writeError(String): void
}
mastermind.utils.Console *-down-> java.io.BufferedReader

class  mastermind.utils.WithConsoleView{
# console: Console
# WithConsoleView()
}
mastermind.utils.WithConsoleView *-down-> mastermind.utils.Console

class  mastermind.utils.YesNoDialog{
- {static} AFIRMATIVE: char
- {static} NEGATIVE: char
- {static} QUESTION: String
- {static} MESSAGE: String
+ YesNoDialog()
+ read(String): boolean
- {static} isNegative(char): boolean
- {static} isAfirmative(char): boolean
}
mastermind.utils.WithConsoleView <|-down- mastermind.utils.YesNoDialog

@enduml

PlantUML version 1.2019.05(Sat Apr 20 18:45:36 CEST 2019)
(GPL source distribution)
Java Runtime: OpenJDK Runtime Environment
JVM: OpenJDK 64-Bit Server VM
Java Version: 1.8.0_222-b10
Operating System: Windows 10
OS Version: 10.0
Default Encoding: windows-1252
Language: es
Country: ES
--></g></svg>