<?xml version="1.0" encoding="UTF-8" standalone="no"?><svg xmlns="http://www.w3.org/2000/svg" xmlns:xlink="http://www.w3.org/1999/xlink" contentScriptType="application/ecmascript" contentStyleType="text/css" height="355px" preserveAspectRatio="none" style="width:773px;height:355px;" version="1.1" viewBox="0 0 773 355" width="773px" zoomAndPan="magnify"><defs><filter height="300%" id="f149hdyrg00wb1" width="300%" x="-1" y="-1"><feGaussianBlur result="blurOut" stdDeviation="2.0"/><feColorMatrix in="blurOut" result="blurOut2" type="matrix" values="0 0 0 0 0 0 0 0 0 0 0 0 0 0 0 0 0 0 .4 0"/><feOffset dx="4.0" dy="4.0" in="blurOut2" result="blurOut3"/><feBlend in="SourceGraphic" in2="blurOut3" mode="normal"/></filter></defs><g><!--cluster mastermind--><polygon fill="#FFFFFF" filter="url(#f149hdyrg00wb1)" points="22,24,110,24,117,47.6094,381,47.6094,381,343,22,343,22,24" style="stroke: #000000; stroke-width: 1.5;"/><line style="stroke: #000000; stroke-width: 1.5;" x1="22" x2="117" y1="47.6094" y2="47.6094"/><text fill="#000000" font-family="sans-serif" font-size="14" font-weight="bold" lengthAdjust="spacingAndGlyphs" textLength="82" x="26" y="40.5332">mastermind</text><!--cluster mastermind.controllers--><polygon fill="#FFFFFF" filter="url(#f149hdyrg00wb1)" points="405,222,574,222,581,245.6094,584,245.6094,584,322,405,322,405,222" style="stroke: #000000; stroke-width: 1.5;"/><line style="stroke: #000000; stroke-width: 1.5;" x1="405" x2="581" y1="245.6094" y2="245.6094"/><text fill="#000000" font-family="sans-serif" font-size="14" font-weight="bold" lengthAdjust="spacingAndGlyphs" textLength="163" x="409" y="238.5332">mastermind.controllers</text><!--cluster mastermind.views--><polygon fill="#FFFFFF" filter="url(#f149hdyrg00wb1)" points="608,222,741,222,748,245.6094,751,245.6094,751,322,608,322,608,222" style="stroke: #000000; stroke-width: 1.5;"/><line style="stroke: #000000; stroke-width: 1.5;" x1="608" x2="748" y1="245.6094" y2="245.6094"/><text fill="#000000" font-family="sans-serif" font-size="14" font-weight="bold" lengthAdjust="spacingAndGlyphs" textLength="127" x="612" y="238.5332">mastermind.views</text><!--class mastermind.ConsoleMastermind--><rect fill="#FEFECE" filter="url(#f149hdyrg00wb1)" height="89.5078" id="mastermind.ConsoleMastermind" style="stroke: #A80036; stroke-width: 1.5;" width="144" x="38" y="237"/><ellipse cx="53" cy="253" fill="#ADD1B2" rx="11" ry="11" style="stroke: #A80036; stroke-width: 1.0;"/><path d="M55.7656,248.875 Q55.9219,248.6563 56.1094,248.5469 Q56.2969,248.4375 56.5156,248.4375 Q56.8906,248.4375 57.125,248.6953 Q57.3594,248.9531 57.3594,249.5625 L57.3594,251.0156 Q57.3594,251.625 57.125,251.8906 Q56.8906,252.1563 56.5156,252.1563 Q56.1719,252.1563 55.9688,251.9531 Q55.7656,251.7656 55.6563,251.25 Q55.6094,250.8906 55.4219,250.7031 Q55.0938,250.3281 54.4844,250.1094 Q53.875,249.8906 53.25,249.8906 Q52.4844,249.8906 51.8516,250.2188 Q51.2188,250.5469 50.7266,251.2969 Q50.2344,252.0469 50.2344,253.0781 L50.2344,254.1719 Q50.2344,255.4063 51.125,256.2266 Q52.0156,257.0469 53.6094,257.0469 Q54.5469,257.0469 55.2031,256.7969 Q55.5938,256.6406 56.0156,256.2031 Q56.2813,255.9375 56.4297,255.8594 Q56.5781,255.7813 56.7813,255.7813 Q57.1094,255.7813 57.3672,256.0391 Q57.625,256.2969 57.625,256.6406 Q57.625,256.9844 57.2813,257.3906 Q56.7813,257.9688 55.9844,258.2969 Q54.9063,258.75 53.6094,258.75 Q52.0938,258.75 50.8906,258.125 Q49.9063,257.625 49.2188,256.5547 Q48.5313,255.4844 48.5313,254.2031 L48.5313,253.0469 Q48.5313,251.7188 49.1484,250.5703 Q49.7656,249.4219 50.8594,248.8047 Q51.9531,248.1875 53.1875,248.1875 Q53.9219,248.1875 54.5703,248.3516 Q55.2188,248.5156 55.7656,248.875 Z "/><text fill="#000000" font-family="sans-serif" font-size="12" lengthAdjust="spacingAndGlyphs" textLength="112" x="67" y="257.9102">ConsoleMastermind</text><line style="stroke: #A80036; stroke-width: 1.5;" x1="39" x2="181" y1="269" y2="269"/><line style="stroke: #A80036; stroke-width: 1.5;" x1="39" x2="181" y1="277" y2="277"/><ellipse cx="49" cy="289.418" fill="#84BE84" rx="3" ry="3" style="stroke: #038048; stroke-width: 1.0;"/><text fill="#000000" font-family="sans-serif" font-size="11" lengthAdjust="spacingAndGlyphs" textLength="102" x="58" y="292.4189">ConsoleMastermind()</text><ellipse cx="49" cy="303.2539" fill="#84BE84" rx="3" ry="3" style="stroke: #038048; stroke-width: 1.0;"/><text fill="#000000" font-family="sans-serif" font-size="11" lengthAdjust="spacingAndGlyphs" text-decoration="underline" textLength="90" x="58" y="306.2549">main(String[]): void</text><polygon fill="#FFFF44" points="49,312.0898,53,316.0898,49,320.0898,45,316.0898" style="stroke: #B38D22; stroke-width: 1.0;"/><text fill="#000000" font-family="sans-serif" font-size="11" lengthAdjust="spacingAndGlyphs" textLength="97" x="58" y="320.0908">createView(): View</text><!--class mastermind.Mastermind--><rect fill="#FEFECE" filter="url(#f149hdyrg00wb1)" height="117.1797" id="mastermind.Mastermind" style="stroke: #A80036; stroke-width: 1.5;" width="117" x="239.5" y="60"/><ellipse cx="263.5" cy="76" fill="#ADD1B2" rx="11" ry="11" style="stroke: #A80036; stroke-width: 1.0;"/><path d="M266.2656,71.875 Q266.4219,71.6563 266.6094,71.5469 Q266.7969,71.4375 267.0156,71.4375 Q267.3906,71.4375 267.625,71.6953 Q267.8594,71.9531 267.8594,72.5625 L267.8594,74.0156 Q267.8594,74.625 267.625,74.8906 Q267.3906,75.1563 267.0156,75.1563 Q266.6719,75.1563 266.4688,74.9531 Q266.2656,74.7656 266.1563,74.25 Q266.1094,73.8906 265.9219,73.7031 Q265.5938,73.3281 264.9844,73.1094 Q264.375,72.8906 263.75,72.8906 Q262.9844,72.8906 262.3516,73.2188 Q261.7188,73.5469 261.2266,74.2969 Q260.7344,75.0469 260.7344,76.0781 L260.7344,77.1719 Q260.7344,78.4063 261.625,79.2266 Q262.5156,80.0469 264.1094,80.0469 Q265.0469,80.0469 265.7031,79.7969 Q266.0938,79.6406 266.5156,79.2031 Q266.7813,78.9375 266.9297,78.8594 Q267.0781,78.7813 267.2813,78.7813 Q267.6094,78.7813 267.8672,79.0391 Q268.125,79.2969 268.125,79.6406 Q268.125,79.9844 267.7813,80.3906 Q267.2813,80.9688 266.4844,81.2969 Q265.4063,81.75 264.1094,81.75 Q262.5938,81.75 261.3906,81.125 Q260.4063,80.625 259.7188,79.5547 Q259.0313,78.4844 259.0313,77.2031 L259.0313,76.0469 Q259.0313,74.7188 259.6484,73.5703 Q260.2656,72.4219 261.3594,71.8047 Q262.4531,71.1875 263.6875,71.1875 Q264.4219,71.1875 265.0703,71.3516 Q265.7188,71.5156 266.2656,71.875 Z "/><text fill="#000000" font-family="sans-serif" font-size="12" lengthAdjust="spacingAndGlyphs" textLength="65" x="279.5" y="80.9102">Mastermind</text><line style="stroke: #A80036; stroke-width: 1.5;" x1="240.5" x2="355.5" y1="92" y2="92"/><rect fill="none" height="6" style="stroke: #C82930; stroke-width: 1.0;" width="6" x="247.5" y="101.418"/><text fill="#000000" font-family="sans-serif" font-size="11" lengthAdjust="spacingAndGlyphs" textLength="54" x="259.5" y="107.4189">logic: Logic</text><rect fill="none" height="6" style="stroke: #C82930; stroke-width: 1.0;" width="6" x="247.5" y="115.2539"/><text fill="#000000" font-family="sans-serif" font-size="11" lengthAdjust="spacingAndGlyphs" textLength="56" x="259.5" y="121.2549">view: View</text><line style="stroke: #A80036; stroke-width: 1.5;" x1="240.5" x2="355.5" y1="127.6719" y2="127.6719"/><polygon fill="#FFFF44" points="250.5,135.0898,254.5,139.0898,250.5,143.0898,246.5,139.0898" style="stroke: #B38D22; stroke-width: 1.0;"/><text fill="#000000" font-family="sans-serif" font-size="11" lengthAdjust="spacingAndGlyphs" textLength="63" x="259.5" y="143.0908">Mastermind()</text><polygon fill="#FFFF44" points="250.5,148.9258,254.5,152.9258,250.5,156.9258,246.5,152.9258" style="stroke: #B38D22; stroke-width: 1.0;"/><text fill="#000000" font-family="sans-serif" font-size="11" lengthAdjust="spacingAndGlyphs" textLength="54" x="259.5" y="156.9268">play(): void</text><polygon fill="#FFFF44" points="250.5,162.7617,254.5,166.7617,250.5,170.7617,246.5,166.7617" style="stroke: #B38D22; stroke-width: 1.0;"/><text fill="#000000" font-family="sans-serif" font-size="11" font-style="italic" lengthAdjust="spacingAndGlyphs" textLength="91" x="259.5" y="170.7627">createView(): View</text><!--class mastermind.GraphicsMastermind--><rect fill="#FEFECE" filter="url(#f149hdyrg00wb1)" height="89.5078" id="mastermind.GraphicsMastermind" style="stroke: #A80036; stroke-width: 1.5;" width="147" x="217.5" y="237"/><ellipse cx="232.5" cy="253" fill="#ADD1B2" rx="11" ry="11" style="stroke: #A80036; stroke-width: 1.0;"/><path d="M235.2656,248.875 Q235.4219,248.6563 235.6094,248.5469 Q235.7969,248.4375 236.0156,248.4375 Q236.3906,248.4375 236.625,248.6953 Q236.8594,248.9531 236.8594,249.5625 L236.8594,251.0156 Q236.8594,251.625 236.625,251.8906 Q236.3906,252.1563 236.0156,252.1563 Q235.6719,252.1563 235.4688,251.9531 Q235.2656,251.7656 235.1563,251.25 Q235.1094,250.8906 234.9219,250.7031 Q234.5938,250.3281 233.9844,250.1094 Q233.375,249.8906 232.75,249.8906 Q231.9844,249.8906 231.3516,250.2188 Q230.7188,250.5469 230.2266,251.2969 Q229.7344,252.0469 229.7344,253.0781 L229.7344,254.1719 Q229.7344,255.4063 230.625,256.2266 Q231.5156,257.0469 233.1094,257.0469 Q234.0469,257.0469 234.7031,256.7969 Q235.0938,256.6406 235.5156,256.2031 Q235.7813,255.9375 235.9297,255.8594 Q236.0781,255.7813 236.2813,255.7813 Q236.6094,255.7813 236.8672,256.0391 Q237.125,256.2969 237.125,256.6406 Q237.125,256.9844 236.7813,257.3906 Q236.2813,257.9688 235.4844,258.2969 Q234.4063,258.75 233.1094,258.75 Q231.5938,258.75 230.3906,258.125 Q229.4063,257.625 228.7188,256.5547 Q228.0313,255.4844 228.0313,254.2031 L228.0313,253.0469 Q228.0313,251.7188 228.6484,250.5703 Q229.2656,249.4219 230.3594,248.8047 Q231.4531,248.1875 232.6875,248.1875 Q233.4219,248.1875 234.0703,248.3516 Q234.7188,248.5156 235.2656,248.875 Z "/><text fill="#000000" font-family="sans-serif" font-size="12" lengthAdjust="spacingAndGlyphs" textLength="115" x="246.5" y="257.9102">GraphicsMastermind</text><line style="stroke: #A80036; stroke-width: 1.5;" x1="218.5" x2="363.5" y1="269" y2="269"/><line style="stroke: #A80036; stroke-width: 1.5;" x1="218.5" x2="363.5" y1="277" y2="277"/><ellipse cx="228.5" cy="289.418" fill="#84BE84" rx="3" ry="3" style="stroke: #038048; stroke-width: 1.0;"/><text fill="#000000" font-family="sans-serif" font-size="11" lengthAdjust="spacingAndGlyphs" textLength="107" x="237.5" y="292.4189">GraphicsMastermind()</text><ellipse cx="228.5" cy="303.2539" fill="#84BE84" rx="3" ry="3" style="stroke: #038048; stroke-width: 1.0;"/><text fill="#000000" font-family="sans-serif" font-size="11" lengthAdjust="spacingAndGlyphs" text-decoration="underline" textLength="90" x="237.5" y="306.2549">main(String[]): void</text><polygon fill="#FFFF44" points="228.5,312.0898,232.5,316.0898,228.5,320.0898,224.5,316.0898" style="stroke: #B38D22; stroke-width: 1.0;"/><text fill="#000000" font-family="sans-serif" font-size="11" lengthAdjust="spacingAndGlyphs" textLength="97" x="237.5" y="320.0908">createView(): View</text><!--class mastermind.controllers.Logic--><rect fill="#FEFECE" filter="url(#f149hdyrg00wb1)" height="48" id="mastermind.controllers.Logic" style="stroke: #A80036; stroke-width: 1.5;" width="62" x="421" y="258"/><ellipse cx="436" cy="274" fill="#ADD1B2" rx="11" ry="11" style="stroke: #A80036; stroke-width: 1.0;"/><path d="M438.7656,269.875 Q438.9219,269.6563 439.1094,269.5469 Q439.2969,269.4375 439.5156,269.4375 Q439.8906,269.4375 440.125,269.6953 Q440.3594,269.9531 440.3594,270.5625 L440.3594,272.0156 Q440.3594,272.625 440.125,272.8906 Q439.8906,273.1563 439.5156,273.1563 Q439.1719,273.1563 438.9688,272.9531 Q438.7656,272.7656 438.6563,272.25 Q438.6094,271.8906 438.4219,271.7031 Q438.0938,271.3281 437.4844,271.1094 Q436.875,270.8906 436.25,270.8906 Q435.4844,270.8906 434.8516,271.2188 Q434.2188,271.5469 433.7266,272.2969 Q433.2344,273.0469 433.2344,274.0781 L433.2344,275.1719 Q433.2344,276.4063 434.125,277.2266 Q435.0156,278.0469 436.6094,278.0469 Q437.5469,278.0469 438.2031,277.7969 Q438.5938,277.6406 439.0156,277.2031 Q439.2813,276.9375 439.4297,276.8594 Q439.5781,276.7813 439.7813,276.7813 Q440.1094,276.7813 440.3672,277.0391 Q440.625,277.2969 440.625,277.6406 Q440.625,277.9844 440.2813,278.3906 Q439.7813,278.9688 438.9844,279.2969 Q437.9063,279.75 436.6094,279.75 Q435.0938,279.75 433.8906,279.125 Q432.9063,278.625 432.2188,277.5547 Q431.5313,276.4844 431.5313,275.2031 L431.5313,274.0469 Q431.5313,272.7188 432.1484,271.5703 Q432.7656,270.4219 433.8594,269.8047 Q434.9531,269.1875 436.1875,269.1875 Q436.9219,269.1875 437.5703,269.3516 Q438.2188,269.5156 438.7656,269.875 Z "/><text fill="#000000" font-family="sans-serif" font-size="12" lengthAdjust="spacingAndGlyphs" textLength="30" x="450" y="278.9102">Logic</text><line style="stroke: #A80036; stroke-width: 1.5;" x1="422" x2="482" y1="290" y2="290"/><line style="stroke: #A80036; stroke-width: 1.5;" x1="422" x2="482" y1="298" y2="298"/><!--class mastermind.views.View--><rect fill="#FEFECE" filter="url(#f149hdyrg00wb1)" height="48" id="mastermind.views.View" style="stroke: #A80036; stroke-width: 1.5;" width="58" x="624" y="258"/><ellipse cx="639" cy="274" fill="#ADD1B2" rx="11" ry="11" style="stroke: #A80036; stroke-width: 1.0;"/><path d="M641.7656,269.875 Q641.9219,269.6563 642.1094,269.5469 Q642.2969,269.4375 642.5156,269.4375 Q642.8906,269.4375 643.125,269.6953 Q643.3594,269.9531 643.3594,270.5625 L643.3594,272.0156 Q643.3594,272.625 643.125,272.8906 Q642.8906,273.1563 642.5156,273.1563 Q642.1719,273.1563 641.9688,272.9531 Q641.7656,272.7656 641.6563,272.25 Q641.6094,271.8906 641.4219,271.7031 Q641.0938,271.3281 640.4844,271.1094 Q639.875,270.8906 639.25,270.8906 Q638.4844,270.8906 637.8516,271.2188 Q637.2188,271.5469 636.7266,272.2969 Q636.2344,273.0469 636.2344,274.0781 L636.2344,275.1719 Q636.2344,276.4063 637.125,277.2266 Q638.0156,278.0469 639.6094,278.0469 Q640.5469,278.0469 641.2031,277.7969 Q641.5938,277.6406 642.0156,277.2031 Q642.2813,276.9375 642.4297,276.8594 Q642.5781,276.7813 642.7813,276.7813 Q643.1094,276.7813 643.3672,277.0391 Q643.625,277.2969 643.625,277.6406 Q643.625,277.9844 643.2813,278.3906 Q642.7813,278.9688 641.9844,279.2969 Q640.9063,279.75 639.6094,279.75 Q638.0938,279.75 636.8906,279.125 Q635.9063,278.625 635.2188,277.5547 Q634.5313,276.4844 634.5313,275.2031 L634.5313,274.0469 Q634.5313,272.7188 635.1484,271.5703 Q635.7656,270.4219 636.8594,269.8047 Q637.9531,269.1875 639.1875,269.1875 Q639.9219,269.1875 640.5703,269.3516 Q641.2188,269.5156 641.7656,269.875 Z "/><text fill="#000000" font-family="sans-serif" font-size="12" lengthAdjust="spacingAndGlyphs" textLength="26" x="653" y="278.9102">View</text><line style="stroke: #A80036; stroke-width: 1.5;" x1="625" x2="681" y1="290" y2="290"/><line style="stroke: #A80036; stroke-width: 1.5;" x1="625" x2="681" y1="298" y2="298"/><!--link mastermind.Mastermind to mastermind.ConsoleMastermind--><path d="M223.955,183.108 C202.973,201.133 180.599,220.352 161.283,236.946 " fill="none" id="mastermind.Mastermind-mastermind.ConsoleMastermind" style="stroke: #A80036; stroke-width: 1.0;"/><polygon fill="none" points="219.557,177.658,239.289,169.935,228.679,188.278,219.557,177.658" style="stroke: #A80036; stroke-width: 1.0;"/><!--link mastermind.Mastermind to mastermind.GraphicsMastermind--><path d="M294.614,197.613 C294.028,211.145 293.437,224.776 292.908,236.984 " fill="none" id="mastermind.Mastermind-mastermind.GraphicsMastermind" style="stroke: #A80036; stroke-width: 1.0;"/><polygon fill="none" points="287.633,197.027,295.493,177.349,301.62,197.633,287.633,197.027" style="stroke: #A80036; stroke-width: 1.0;"/><!--link mastermind.Mastermind to mastermind.controllers.Logic--><path d="M362.261,186.891 C382.333,207.94 403.591,230.234 420.377,247.837 " fill="none" id="mastermind.Mastermind-mastermind.controllers.Logic" style="stroke: #A80036; stroke-width: 1.0;"/><polygon fill="#A80036" points="429.701,257.615,426.3843,248.3414,426.2503,253.9967,420.595,253.8626,429.701,257.615" style="stroke: #A80036; stroke-width: 1.0;"/><line style="stroke: #A80036; stroke-width: 1.0;" x1="426.2503" x2="420.7295" y1="253.9967" y2="248.207"/><polygon fill="#A80036" points="353.163,177.349,354.4087,184.4517,361.4441,186.0336,360.1984,178.9309,353.163,177.349" style="stroke: #A80036; stroke-width: 1.0;"/><!--link mastermind.Mastermind to mastermind.views.View--><path d="M356.621,146.168 C431.475,180.222 558.531,238.023 619.028,265.5451 " fill="none" id="mastermind.Mastermind-mastermind.views.View" style="stroke: #A80036; stroke-width: 1.0;"/><polygon fill="#A80036" points="623.618,267.6335,617.0816,260.2663,619.0666,265.5635,613.7695,267.5485,623.618,267.6335" style="stroke: #A80036; stroke-width: 1.0;"/><!--
@startuml

class  mastermind.ConsoleMastermind{
+ ConsoleMastermind()
+ {static} main(String[]): void
# createView(): View
}
mastermind.Mastermind <|-down- mastermind.ConsoleMastermind

class  mastermind.GraphicsMastermind{
+ GraphicsMastermind()
+ {static} main(String[]): void
# createView(): View
}
mastermind.Mastermind <|-down- mastermind.GraphicsMastermind

class  mastermind.Mastermind{
- logic: Logic
- view: View
# Mastermind()
# play(): void
# {abstract} createView(): View
}
mastermind.Mastermind *-down-> mastermind.controllers.Logic
mastermind.Mastermind - -> mastermind.views.View

@enduml

PlantUML version 1.2019.05(Sat Apr 20 18:45:36 CEST 2019)
(GPL source distribution)
Java Runtime: OpenJDK Runtime Environment
JVM: OpenJDK 64-Bit Server VM
Java Version: 1.8.0_222-b10
Operating System: Windows 10
OS Version: 10.0
Default Encoding: windows-1252
Language: es
Country: ES
--></g></svg>